<svg version="1.1" xmlns="http://www.w3.org/2000/svg" xmlns:xlink="http://www.w3.org/1999/xlink" width="71" height="32" viewBox="0 0 71 32">
<g id="Logo-GitHub">
<g id="#000000ff">
<path id="Color-Fill-1" d="M14.095,14.767 C15.896,15.629 17.408,17.084 18.336,18.854 C19.638,21.285 19.771,24.299 18.706,26.841 C17.691,29.316 15.567,31.309 13.027,32.144 C12.735,32.255 12.353,32.062 12.369,31.723 C12.371,30.909 12.375,30.094 12.376,29.279 C12.399,28.604 12.257,27.866 11.748,27.382 C12.786,27.266 13.864,27.009 14.680,26.319 C15.410,25.713 15.808,24.792 15.942,23.867 C16.042,23.139 16.084,22.380 15.874,21.667 C15.724,21.131 15.431,20.644 15.064,20.228 C15.358,19.422 15.278,18.517 14.963,17.729 C14.741,17.718 14.517,17.723 14.302,17.778 C13.605,17.945 12.980,18.314 12.387,18.703 C10.860,18.288 9.222,18.287 7.695,18.703 C7.099,18.311 6.469,17.941 5.768,17.776 C5.555,17.720 5.333,17.719 5.113,17.731 C4.805,18.521 4.720,19.422 5.017,20.229 C4.415,20.891 4.059,21.771 4.057,22.669 C4.039,23.861 4.276,25.146 5.113,26.047 C5.932,26.932 7.160,27.263 8.320,27.389 C7.975,27.723 7.796,28.187 7.728,28.655 C7.200,28.872 6.589,28.998 6.040,28.783 C6.109,28.840 6.189,28.897 6.191,28.996 C6.044,29.163 5.831,29.027 5.739,28.877 C5.822,28.827 5.911,28.791 6.006,28.772 C5.722,28.675 5.479,28.486 5.284,28.261 C5.072,28.025 4.948,27.724 4.724,27.498 C4.410,27.153 3.966,26.895 3.490,26.901 C3.347,26.895 3.219,26.966 3.106,27.045 C3.193,27.230 3.344,27.372 3.517,27.477 C3.904,27.714 4.183,28.092 4.385,28.494 C4.511,28.739 4.589,29.011 4.761,29.231 C5.058,29.626 5.510,29.887 5.988,29.993 C6.553,30.126 7.141,30.068 7.703,29.955 C7.696,30.547 7.731,31.138 7.713,31.731 C7.713,31.928 7.570,32.119 7.373,32.154 C7.150,32.206 6.936,32.108 6.733,32.033 C5.385,31.525 4.160,30.700 3.179,29.644 C2.057,28.443 1.259,26.941 0.895,25.337 C0.506,23.652 0.599,21.860 1.155,20.223 C1.694,18.621 2.680,17.174 3.966,16.081 C5.304,14.938 6.968,14.182 8.710,13.939 C10.534,13.677 12.436,13.962 14.095,14.767 z" fill="#E0E0E0" />
<path id="Color-Fill-2" d="M28.571,16.516 C29.372,16.565 30.184,16.662 30.934,16.963 C31.068,17.032 31.240,17.078 31.315,17.219 C31.212,17.824 31.033,18.416 30.911,19.018 C30.869,19.142 30.876,19.331 30.723,19.376 C30.622,19.375 30.528,19.337 30.433,19.309 C29.615,19.034 28.737,18.991 27.881,19.031 C27.153,19.070 26.391,19.318 25.912,19.897 C25.312,20.608 25.143,21.572 25.088,22.476 C25.052,23.583 25.078,24.750 25.589,25.759 C25.904,26.398 26.532,26.868 27.240,26.966 C27.877,27.052 28.531,27.017 29.162,26.897 C29.162,26.076 29.162,25.255 29.162,24.434 C28.647,24.430 28.133,24.439 27.619,24.431 C27.499,24.446 27.386,24.347 27.407,24.223 C27.405,23.572 27.403,22.922 27.408,22.271 C27.389,22.148 27.509,22.062 27.623,22.076 C28.935,22.072 30.249,22.075 31.561,22.075 C31.681,22.061 31.824,22.134 31.806,22.274 C31.815,24.257 31.805,26.239 31.811,28.222 C31.803,28.362 31.848,28.558 31.683,28.624 C30.843,29.131 29.875,29.401 28.903,29.495 C27.956,29.559 26.992,29.526 26.070,29.286 C25.193,29.066 24.365,28.608 23.767,27.921 C23.005,27.053 22.638,25.911 22.484,24.782 C22.333,23.616 22.350,22.429 22.510,21.265 C22.689,20.069 23.081,18.853 23.915,17.949 C24.576,17.226 25.500,16.784 26.456,16.617 C27.153,16.481 27.866,16.491 28.571,16.516 z" fill="#E0E0E0" />
<path id="Color-Fill-3" d="M43.774,16.972 C44.511,16.967 45.249,16.969 45.986,16.971 C46.128,16.950 46.232,17.079 46.212,17.215 C46.214,18.666 46.212,20.116 46.213,21.567 C47.391,21.564 48.570,21.567 49.748,21.565 C49.747,20.136 49.750,18.707 49.747,17.278 C49.749,17.176 49.741,17.033 49.858,16.989 C49.986,16.956 50.122,16.971 50.254,16.968 C50.914,16.977 51.575,16.957 52.234,16.977 C52.386,16.982 52.403,17.155 52.399,17.272 C52.397,21.071 52.397,24.869 52.399,28.668 C52.392,28.836 52.419,29.010 52.372,29.174 C52.316,29.309 52.150,29.274 52.034,29.285 C51.329,29.276 50.623,29.296 49.919,29.276 C49.744,29.274 49.732,29.071 49.739,28.942 C49.749,27.289 49.747,25.637 49.748,23.985 C48.570,23.984 47.391,23.986 46.213,23.984 C46.211,25.676 46.217,27.368 46.210,29.060 C46.230,29.194 46.113,29.294 45.984,29.281 C45.243,29.283 44.501,29.291 43.760,29.277 C43.608,29.290 43.551,29.126 43.565,29.002 C43.567,25.074 43.565,21.146 43.566,17.218 C43.550,17.091 43.633,16.956 43.774,16.972 z" fill="#E0E0E0" />
<path id="Color-Fill-4" d="M62.375,17.223 C62.356,17.099 62.432,16.958 62.572,16.973 C63.311,16.965 64.051,16.971 64.791,16.970 C64.910,16.953 65.031,17.039 65.020,17.168 C65.027,18.511 65.023,19.854 65.022,21.197 C65.706,20.802 66.501,20.608 67.290,20.627 C67.962,20.638 68.658,20.819 69.175,21.268 C69.746,21.753 70.054,22.476 70.202,23.196 C70.389,24.115 70.380,25.062 70.298,25.992 C70.217,26.855 70.048,27.752 69.538,28.473 C69.158,29.018 68.536,29.351 67.889,29.451 C66.685,29.645 65.368,29.408 64.400,28.636 C64.348,28.839 64.404,29.120 64.220,29.262 C63.710,29.312 63.192,29.270 62.680,29.284 C62.535,29.304 62.347,29.238 62.377,29.058 C62.373,25.113 62.376,21.168 62.375,17.223 M64.977,26.976 C65.537,27.289 66.204,27.424 66.838,27.309 C67.130,27.254 67.385,27.046 67.497,26.769 C67.694,26.299 67.707,25.778 67.728,25.275 C67.741,24.704 67.734,24.114 67.530,23.573 C67.401,23.221 67.108,22.914 66.732,22.838 C66.128,22.717 65.509,22.901 64.976,23.183 C64.977,24.448 64.975,25.712 64.977,26.976 z" fill="#E0E0E0" />
<path id="Color-Fill-5" d="M35.537,17.744 C36.002,18.258 36.026,19.104 35.590,19.643 C35.244,20.104 34.610,20.322 34.056,20.158 C33.369,19.985 32.892,19.261 32.986,18.561 C33.043,17.923 33.561,17.365 34.191,17.262 C34.684,17.175 35.214,17.360 35.537,17.744 z" fill="#E0E0E0" />
<path id="Color-Fill-6" d="M38.218,18.488 C38.959,18.495 39.701,18.480 40.443,18.494 C40.576,18.479 40.554,18.636 40.562,18.723 C40.561,19.441 40.565,20.158 40.564,20.875 C41.114,20.876 41.665,20.872 42.215,20.876 C42.323,20.864 42.451,20.929 42.445,21.053 C42.457,21.647 42.447,22.243 42.450,22.838 C42.465,22.954 42.401,23.101 42.264,23.089 C41.698,23.099 41.131,23.088 40.564,23.093 C40.564,24.212 40.564,25.331 40.564,26.449 C40.552,26.746 40.691,27.058 40.964,27.196 C41.367,27.408 41.836,27.331 42.271,27.308 C42.381,27.285 42.487,27.383 42.481,27.495 C42.494,27.996 42.479,28.498 42.483,28.999 C42.485,29.110 42.479,29.264 42.342,29.287 C41.451,29.559 40.476,29.582 39.583,29.307 C38.959,29.113 38.427,28.639 38.195,28.024 C38.004,27.559 37.955,27.052 37.956,26.553 C37.956,25.400 37.956,24.246 37.956,23.093 C37.561,23.089 37.167,23.100 36.773,23.090 C36.656,23.103 36.574,22.991 36.583,22.883 C36.574,22.440 36.583,21.997 36.578,21.554 C36.579,21.446 36.574,21.292 36.707,21.261 C37.119,21.141 37.541,21.057 37.957,20.951 C37.958,20.173 37.950,19.394 37.960,18.617 C37.939,18.472 38.124,18.492 38.218,18.488 z" fill="#E0E0E0" />
<path id="Color-Fill-7" d="M33.449,20.873 C34.150,20.880 34.853,20.867 35.554,20.879 C35.708,20.872 35.757,21.039 35.745,21.164 C35.744,23.758 35.746,26.352 35.744,28.945 C35.758,29.098 35.686,29.291 35.502,29.274 C34.781,29.287 34.057,29.286 33.336,29.268 C33.168,29.267 33.074,29.097 33.094,28.945 C33.091,26.371 33.095,23.797 33.092,21.222 C33.095,21.114 33.082,20.977 33.190,20.911 C33.265,20.860 33.363,20.881 33.449,20.873 z" fill="#E0E0E0" />
<path id="Color-Fill-8" d="M53.744,20.896 C54.488,20.896 55.231,20.889 55.974,20.899 C56.121,20.885 56.185,21.041 56.170,21.165 C56.170,22.870 56.169,24.574 56.170,26.279 C56.178,26.568 56.206,26.890 56.414,27.111 C56.614,27.313 56.916,27.353 57.188,27.354 C57.671,27.349 58.165,27.214 58.564,26.937 C58.600,26.386 58.568,25.831 58.579,25.278 C58.581,23.887 58.576,22.497 58.582,21.107 C58.567,20.987 58.669,20.882 58.790,20.897 C59.515,20.891 60.241,20.894 60.967,20.895 C61.093,20.876 61.224,20.972 61.203,21.108 C61.208,23.739 61.202,26.371 61.206,29.003 C61.211,29.107 61.194,29.256 61.066,29.273 C60.718,29.306 60.367,29.278 60.019,29.288 C59.839,29.282 59.654,29.311 59.480,29.267 C59.317,29.137 59.365,28.887 59.317,28.704 C58.483,29.220 57.511,29.545 56.524,29.521 C55.892,29.517 55.237,29.436 54.676,29.129 C54.183,28.859 53.828,28.377 53.673,27.842 C53.462,27.175 53.511,26.468 53.506,25.780 C53.507,24.222 53.502,22.664 53.508,21.107 C53.487,20.971 53.618,20.877 53.744,20.896 z" fill="#E0E0E0" />
<path id="Color-Fill-9" d="M4.196,27.224 C4.105,27.368 3.819,27.174 3.961,27.081 C4.068,27.028 4.168,27.124 4.196,27.224 z" fill="#E0E0E0" />
<path id="Color-Fill-10" d="M4.672,27.560 C4.633,27.794 4.312,27.571 4.396,27.406 C4.513,27.324 4.642,27.446 4.672,27.560 z" fill="#E0E0E0" />
<path id="Color-Fill-11" d="M4.810,27.837 C4.944,27.871 4.980,28.014 5.030,28.124 C4.952,28.150 4.863,28.219 4.791,28.139 C4.683,28.070 4.647,27.857 4.810,27.837 z" fill="#E0E0E0" />
<path id="Color-Fill-12" d="M5.515,28.662 C5.559,28.786 5.420,28.843 5.325,28.797 C5.219,28.750 5.138,28.632 5.175,28.514 C5.296,28.395 5.474,28.531 5.515,28.662 z" fill="#E0E0E0" />
<path id="Color-Fill-13" d="M6.946,29.005 C7.050,29.195 6.702,29.290 6.598,29.152 C6.511,29.098 6.584,28.965 6.668,28.955 C6.762,28.908 6.872,28.937 6.946,29.005 z" fill="#E0E0E0" />
<path id="Color-Fill-14" d="M7.731,28.997 C7.820,29.243 7.311,29.321 7.336,29.053 C7.364,29.029 7.421,28.983 7.450,28.960 C7.542,28.910 7.653,28.933 7.731,28.997 z" fill="#E0E0E0" />
</g>
</g>
</svg>
