<svg version="1.1" xmlns="http://www.w3.org/2000/svg" xmlns:xlink="http://www.w3.org/1999/xlink" width="587" height="227" viewBox="0 0 587 227">
<g id="icon-svglayers-f">
<g id="group2">
<path id="Color-Fill-35" d="M294.632,160.267 C293.899,160.267 293.307,159.982 292.857,159.416 C292.405,158.849 292.181,158.188 292.181,157.432 C292.181,156.771 292.378,156.157 292.773,155.590 C293.168,155.024 293.788,154.740 294.632,154.740 C329.116,154.740 329.116,154.740 329.116,154.740 C329.963,154.740 330.582,155.024 330.977,155.590 C331.370,156.157 331.567,156.771 331.567,157.432 C331.567,158.140 331.370,158.790 330.977,159.380 C330.581,159.971 329.961,160.267 329.116,160.267 C315.426,160.267 315.426,160.267 315.426,160.267 C315.426,160.267 315.426,204.400 315.426,204.400 C315.426,205.107 315.059,205.638 314.325,205.994 C313.593,206.350 312.775,206.525 311.875,206.525 C310.973,206.525 310.155,206.347 309.424,205.994 C308.692,205.640 308.323,205.107 308.323,204.400 C308.323,160.267 308.323,160.267 308.323,160.267 C308.323,160.267 294.632,160.267 294.632,160.267 z" fill="#FFFFFF" />
<path id="Color-Fill-36" d="M329.203,203.481 C346.530,156.373 346.530,156.373 346.530,156.373 C346.756,155.665 347.291,155.145 348.136,154.814 C348.981,154.484 349.882,154.318 350.841,154.318 C351.855,154.318 352.783,154.495 353.630,154.849 C354.475,155.203 355.010,155.711 355.234,156.372 C372.477,203.479 372.477,203.479 372.477,203.479 C372.589,203.668 372.646,203.833 372.646,203.975 C372.646,204.449 372.406,204.872 371.928,205.249 C371.449,205.628 370.870,205.936 370.195,206.170 C369.519,206.407 368.871,206.524 368.253,206.524 C367.632,206.524 367.097,206.419 366.647,206.207 C366.196,205.994 365.886,205.651 365.717,205.181 C361.912,194.624 361.912,194.624 361.912,194.624 C339.683,194.624 339.683,194.624 339.683,194.624 C339.683,194.624 336.048,205.181 336.048,205.181 C335.879,205.654 335.554,205.994 335.074,206.207 C334.597,206.419 334.020,206.525 333.344,206.525 C332.781,206.525 332.146,206.419 331.443,206.207 C330.737,205.994 330.174,205.699 329.754,205.320 C329.330,204.943 329.118,204.517 329.118,204.046 C329.118,203.858 329.146,203.669 329.203,203.481 zM360.308,189.736 L350.841,163.099 L341.373,189.736 L360.308,189.736 z" fill="#FFFFFF" />
<path id="Color-Fill-37" d="M379.407,170.186 C379.407,166.457 380.212,163.457 381.816,161.190 C383.422,158.922 385.590,157.283 388.325,156.267 C391.057,155.252 394.087,154.744 397.411,154.744 C401.132,154.744 404.355,155.275 407.091,156.338 C409.822,157.401 411.964,158.877 413.515,160.767 C415.064,162.656 415.839,164.874 415.839,167.424 C415.839,168.558 415.527,169.325 414.908,169.728 C414.287,170.128 413.414,170.330 412.288,170.330 C411.329,170.330 410.514,170.178 409.838,169.870 C409.160,169.562 408.794,169.031 408.737,168.275 C408.511,166.624 408.006,165.193 407.216,163.990 C406.427,162.786 405.242,161.842 403.666,161.157 C402.088,160.471 400.060,160.129 397.579,160.129 C394.086,160.129 391.367,160.943 389.424,162.572 C387.480,164.203 386.508,166.742 386.508,170.187 C386.508,191.510 386.508,191.510 386.508,191.510 C386.508,194.957 387.480,197.495 389.424,199.125 C391.367,200.754 394.086,201.567 397.579,201.567 C401.072,201.567 403.807,200.754 405.778,199.125 C407.751,197.495 408.736,194.957 408.736,191.510 C408.736,184.284 408.736,184.284 408.736,184.284 C408.736,184.284 398.680,184.284 398.680,184.284 C397.890,184.284 397.284,184.024 396.863,183.505 C396.440,182.985 396.229,182.419 396.229,181.806 C396.229,181.193 396.440,180.625 396.863,180.105 C397.285,179.585 397.890,179.327 398.680,179.327 C413.387,179.327 413.387,179.327 413.387,179.327 C414.175,179.327 414.782,179.539 415.203,179.965 C415.626,180.391 415.838,180.910 415.838,181.524 C415.838,191.512 415.838,191.512 415.838,191.512 C415.838,195.242 415.034,198.241 413.429,200.508 C411.824,202.776 409.639,204.416 406.878,205.432 C404.116,206.443 401.018,206.950 397.580,206.950 C394.142,206.950 391.059,206.443 388.325,205.428 C385.591,204.413 383.424,202.772 381.816,200.504 C380.212,198.236 379.407,195.238 379.407,191.508 C379.407,170.186 379.407,170.186 379.407,170.186 z" fill="#FFFFFF" />
<path id="Color-Fill-38" d="M425.726,170.186 C425.726,166.457 426.530,163.457 428.135,161.190 C429.740,158.922 431.908,157.283 434.644,156.267 C437.375,155.252 440.405,154.744 443.730,154.744 C447.450,154.744 450.674,155.275 453.409,156.338 C456.141,157.401 458.282,158.877 459.833,160.767 C461.383,162.656 462.157,164.874 462.157,167.424 C462.157,168.558 461.846,169.325 461.227,169.728 C460.606,170.128 459.733,170.330 458.607,170.330 C457.648,170.330 456.832,170.178 456.156,169.870 C455.479,169.562 455.112,169.031 455.056,168.275 C454.829,166.624 454.324,165.193 453.535,163.990 C452.746,162.786 451.562,161.842 449.985,161.157 C448.407,160.471 446.380,160.129 443.899,160.129 C440.405,160.129 437.687,160.943 435.743,162.572 C433.800,164.203 432.827,166.742 432.827,170.187 C432.827,191.510 432.827,191.510 432.827,191.510 C432.827,194.957 433.800,197.495 435.743,199.125 C437.687,200.754 440.405,201.567 443.899,201.567 C447.392,201.567 450.127,200.754 452.098,199.125 C454.070,197.495 455.056,194.957 455.056,191.510 C455.056,184.284 455.056,184.284 455.056,184.284 C455.056,184.284 444.997,184.284 444.997,184.284 C444.207,184.284 443.601,184.024 443.181,183.505 C442.758,182.985 442.547,182.419 442.547,181.806 C442.547,181.193 442.758,180.625 443.181,180.105 C443.603,179.585 444.208,179.327 444.997,179.327 C459.704,179.327 459.704,179.327 459.704,179.327 C460.492,179.327 461.100,179.539 461.521,179.965 C461.942,180.391 462.155,180.910 462.155,181.524 C462.155,191.512 462.155,191.512 462.155,191.512 C462.155,195.242 461.352,198.241 459.746,200.508 C458.142,202.776 455.956,204.416 453.195,205.432 C450.436,206.443 447.336,206.950 443.899,206.950 C440.461,206.950 437.378,206.443 434.644,205.428 C431.910,204.412 429.742,202.772 428.135,200.504 C426.530,198.236 425.726,195.238 425.726,191.508 C425.726,170.186 425.726,170.186 425.726,170.186 z" fill="#FFFFFF" />
<path id="Color-Fill-39" d="M472.637,156.867 C472.637,156.159 472.975,155.627 473.652,155.273 C474.328,154.919 475.060,154.742 475.849,154.742 C505.940,154.742 505.940,154.742 505.940,154.742 C506.841,154.742 507.475,155.026 507.842,155.592 C508.207,156.159 508.391,156.750 508.391,157.363 C508.391,158.071 508.180,158.709 507.757,159.276 C507.334,159.843 506.729,160.126 505.940,160.126 C479.738,160.126 479.738,160.126 479.738,160.126 C479.738,178.120 479.738,178.120 479.738,178.120 C479.738,178.120 492.925,178.120 492.925,178.120 C493.713,178.120 494.320,178.380 494.741,178.898 C495.163,179.418 495.376,180.007 495.376,180.669 C495.376,181.235 495.191,181.779 494.826,182.299 C494.460,182.820 493.824,183.077 492.925,183.077 C479.738,183.077 479.738,183.077 479.738,183.077 C479.738,201.141 479.738,201.141 479.738,201.141 C479.738,201.141 505.940,201.141 505.940,201.141 C506.729,201.141 507.336,201.412 507.757,201.954 C508.180,202.498 508.391,203.146 508.391,203.902 C508.391,204.515 508.207,205.105 507.842,205.673 C507.475,206.239 506.841,206.524 505.940,206.524 C475.849,206.524 475.849,206.524 475.849,206.524 C475.849,206.524 475.849,206.525 475.849,206.525 C475.060,206.525 474.328,206.347 473.652,205.994 C472.975,205.640 472.637,205.107 472.637,204.400 C472.637,156.867 472.637,156.867 472.637,156.867 z" fill="#FFFFFF" />
<path id="Color-Fill-40" d="M523.181,183.573 C523.181,183.573 523.181,204.400 523.181,204.400 C523.181,205.107 522.814,205.638 522.081,205.994 C521.349,206.348 520.530,206.525 519.631,206.525 C518.784,206.525 517.983,206.347 517.222,205.994 C516.461,205.641 516.079,205.107 516.079,204.400 C516.079,156.796 516.079,156.796 516.079,156.796 C516.079,156.229 516.318,155.757 516.799,155.379 C517.278,155.002 517.883,154.789 518.615,154.741 C534.083,154.741 534.083,154.741 534.083,154.741 C537.521,154.741 540.661,155.179 543.509,156.052 C546.354,156.927 548.621,158.390 550.313,160.444 C552.003,162.500 552.849,165.321 552.849,168.911 C552.849,171.792 552.299,174.177 551.201,176.065 C550.102,177.955 548.596,179.430 546.680,180.493 C544.763,181.556 542.621,182.300 540.256,182.723 C552.765,202.628 552.765,202.628 552.765,202.628 C552.876,202.816 552.962,202.994 553.019,203.159 C553.075,203.325 553.104,203.478 553.104,203.620 C553.104,204.141 552.892,204.636 552.469,205.107 C552.047,205.580 551.511,205.958 550.864,206.241 C550.216,206.525 549.554,206.667 548.878,206.667 C548.201,206.667 547.596,206.432 547.061,205.959 C546.525,205.486 546.060,204.943 545.665,204.329 C532.986,183.573 532.986,183.573 532.986,183.573 C523.181,183.573 523.181,183.573 523.181,183.573 zM542.537,162.216 C540.395,160.823 537.578,160.126 534.086,160.126 C523.183,160.126 523.183,160.126 523.183,160.126 C523.183,178.614 523.183,178.614 523.183,178.614 C523.183,178.614 534.086,178.614 534.086,178.614 C537.578,178.614 540.397,177.906 542.537,176.489 C544.680,175.073 545.750,172.687 545.750,169.335 C545.750,165.983 544.680,163.609 542.537,162.216 z" fill="#FFFFFF" />
</g>
<g id="group1">
<g id="O">
<g id="group">
<path id="Color-Fill-1" d="M237.429,184.432 C221.700,203.702 199.409,217.550 175.089,222.880 C152.278,227.950 127.859,225.901 106.349,216.670 C79.339,205.340 57.269,182.940 46.249,155.810 C35.659,129.880 35.049,99.840 45.188,73.680 C46.739,74.650 48.289,75.620 49.909,76.480 C50.938,82.820 48.049,88.780 47.108,94.930 C43.798,114.270 45.818,134.580 53.369,152.730 C63.659,178.020 84.228,198.900 109.369,209.561 C131.148,218.920 156.139,220.582 178.959,214.112 C203.688,207.311 225.528,190.912 239.289,169.300 C250.119,152.500 255.858,132.480 255.648,112.500 C255.688,92.600 249.749,72.750 238.898,56.080 C223.400,32.020 197.730,14.700 169.500,9.690 C150.649,6.380 130.710,7.860 112.939,15.180 C120.899,23.830 129.559,31.810 137.740,40.260 C146.370,49.300 155.290,58.050 164.120,66.880 C168.420,71.250 173.620,75.050 176.300,80.730 C179.560,87.140 179.430,94.530 179.360,101.540 C178.860,112.160 180.260,122.840 179.131,133.440 C178.681,138.790 173.691,143.030 168.401,143.070 C158.781,143.360 149.141,142.990 139.502,143.150 C132.441,143.160 125.012,143.760 118.452,140.610 C111.662,137.880 106.941,132.120 101.891,127.120 C91.381,116.630 80.941,106.060 70.331,95.670 C63.780,88.640 57.041,81.770 49.820,75.420 C46.900,72.590 43.841,69.770 41.831,66.200 C39.591,61.700 40.931,55.970 44.661,52.680 C59.360,38.030 74.040,23.360 88.680,8.660 C90.980,6.270 94.110,4.530 97.510,4.690 C101.390,4.480 104.560,7.010 107.420,9.290 C130.870,-0.250 157.500,-1.720 181.819,5.330 C207.069,12.590 229.500,29.050 244.009,50.950 C256.529,69.570 263.139,92.070 262.779,114.500 C262.679,139.800 253.519,164.920 237.429,184.432 zM146.890,102.970 C142.000,104.390 138.330,109.350 138.640,114.470 C138.741,120.850 145.070,126.330 151.411,125.410 C157.890,124.820 162.881,118.030 161.331,111.650 C160.210,105.300 153.050,100.980 146.890,102.970 z" fill="#FFFFFF" />
</g>
<g id="group">
<path id="Color-Fill-2" d="M296.492,134.520 C288.372,128.450 284.651,117.200 287.632,107.490 C289.940,98.930 297.250,92.040 305.880,90.090 C310.880,89.000 316.231,89.230 321.020,91.130 C329.151,94.220 335.320,101.890 336.581,110.500 C338.121,119.570 334.241,129.390 326.701,134.720 C318.012,141.300 305.092,141.200 296.492,134.520 zM302.880,121.090 C307.640,127.700 318.800,126.350 322.028,118.930 C326.319,111.140 318.510,100.840 309.850,102.760 C301.690,103.840 297.190,114.870 302.880,121.090 z" fill="#FFFFFF" />
</g>
</g>
<g id="bg-black">
<path id="Color-Fill-5" d="M239.291,169.300 C225.530,190.910 203.690,207.311 178.961,214.112 C156.141,220.582 131.150,218.922 109.371,209.561 C84.230,198.901 63.661,178.020 53.371,152.730 C45.820,134.580 43.801,114.270 47.110,94.930 C48.050,88.780 50.940,82.820 49.911,76.480 C49.821,75.420 49.821,75.420 49.821,75.420 C57.042,81.770 63.780,88.640 70.332,95.670 C80.941,106.060 91.382,116.630 101.892,127.120 C106.942,132.120 111.663,137.880 118.453,140.610 C125.013,143.760 132.442,143.160 139.503,143.150 C149.143,142.990 158.782,143.360 168.402,143.070 C173.692,143.030 178.682,138.790 179.132,133.440 C180.262,122.840 178.861,112.160 179.361,101.540 C179.431,94.530 179.561,87.140 176.301,80.730 C173.621,75.050 168.421,71.250 164.121,66.880 C155.291,58.050 146.371,49.300 137.740,40.260 C129.560,31.810 120.900,23.830 112.940,15.180 C130.711,7.860 150.650,6.380 169.501,9.690 C197.730,14.700 223.400,32.020 238.900,56.080 C249.751,72.750 255.690,92.600 255.650,112.500 C255.860,132.480 250.121,152.500 239.291,169.300 z" fill="#171A18" />
<path id="Color-Fill-6" d="M146.890,102.970 C153.050,100.980 160.210,105.300 161.330,111.650 C162.880,118.030 157.890,124.820 151.410,125.410 C145.069,126.330 138.740,120.850 138.639,114.470 C138.330,109.350 142.000,104.390 146.890,102.970 z" fill="#171A18" />
</g>
<g id="N">
<path id="Color-Fill-32" d="M345.947,90.181 C347.140,89.724 348.437,89.495 349.837,89.495 C351.233,89.495 352.384,89.610 353.286,89.838 C354.188,90.067 355.033,90.513 355.819,91.175 C356.605,91.839 357.435,92.856 358.309,94.228 C375.169,119.815 375.169,119.815 375.169,119.815 C375.169,119.815 375.169,92.239 375.169,92.239 C375.169,91.279 375.766,90.582 376.960,90.147 C378.152,89.713 379.449,89.495 380.848,89.495 C382.303,89.495 383.614,89.713 384.779,90.147 C385.944,90.582 386.527,91.279 386.527,92.239 C386.527,136.828 386.527,136.828 386.527,136.828 C386.527,137.744 385.944,138.440 384.779,138.920 C383.614,139.400 382.303,139.640 380.848,139.640 C379.507,139.640 378.271,139.434 377.135,139.023 C375.998,138.612 375.081,137.880 374.383,136.828 C355.513,109.251 355.513,109.251 355.513,109.251 C355.513,109.251 355.513,136.828 355.513,136.828 C355.513,137.744 354.931,138.440 353.766,138.920 C352.601,139.400 351.292,139.640 349.837,139.640 C348.439,139.640 347.142,139.400 345.947,138.920 C344.755,138.440 344.156,137.743 344.156,136.828 C344.156,92.308 344.156,92.308 344.156,92.308 C344.156,91.348 344.755,90.639 345.947,90.181 z" fill="#FFFFFF" />
</g>
<g id="E">
<path id="Color-Fill-33" d="M396.731,90.216 C397.779,89.736 398.915,89.495 400.138,89.495 C431.239,89.495 431.239,89.495 431.239,89.495 C432.519,89.495 433.437,89.907 433.991,90.730 C434.545,91.553 434.820,92.422 434.820,93.337 C434.820,94.435 434.515,95.372 433.904,96.150 C433.293,96.928 432.403,97.316 431.239,97.316 C406.515,97.316 406.515,97.316 406.515,97.316 C406.515,111.036 406.515,111.036 406.515,111.036 C406.515,111.036 419.794,111.036 419.794,111.036 C420.958,111.036 421.847,111.391 422.458,112.099 C423.068,112.808 423.376,113.642 423.376,114.602 C423.376,115.380 423.099,116.145 422.546,116.900 C421.990,117.654 421.073,118.032 419.794,118.032 C406.515,118.032 406.515,118.032 406.515,118.032 C406.515,131.820 406.515,131.820 406.515,131.820 C406.515,131.820 431.239,131.820 431.239,131.820 C432.403,131.820 433.293,132.209 433.904,132.987 C434.515,133.765 434.820,134.702 434.820,135.800 C434.820,136.715 434.545,137.583 433.991,138.406 C433.437,139.229 432.519,139.641 431.239,139.641 C400.138,139.640 400.138,139.640 400.138,139.640 C400.138,139.640 400.138,139.640 400.138,139.640 C398.913,139.640 397.779,139.400 396.731,138.920 C395.683,138.440 395.158,137.743 395.158,136.828 C395.158,92.308 395.158,92.308 395.158,92.308 C395.158,91.393 395.683,90.696 396.731,90.216 z" fill="#FFFFFF" />
</g>
<path id="Color-Fill-34" d="M398.545,89.980 C399.573,89.499 400.690,89.257 401.891,89.257 C432.430,89.257 432.430,89.257 432.430,89.257 C433.687,89.257 434.587,89.670 435.132,90.496 C435.674,91.322 435.945,92.195 435.945,93.113 C435.945,94.215 435.645,95.156 435.045,95.936 C434.444,96.717 433.571,97.107 432.430,97.107 C408.153,97.107 408.153,97.107 408.153,97.107 C408.153,110.879 408.153,110.879 408.153,110.879 C408.153,110.879 421.192,110.879 421.192,110.879 C422.337,110.879 423.208,111.234 423.808,111.946 C424.410,112.658 424.708,113.495 424.708,114.460 C424.708,115.241 424.437,116.009 423.895,116.767 C423.350,117.524 422.450,117.903 421.192,117.903 C408.153,117.903 408.153,117.903 408.153,117.903 C408.153,131.744 408.153,131.744 408.153,131.744 C408.153,131.744 432.430,131.744 432.430,131.744 C433.573,131.744 434.446,132.135 435.045,132.915 C435.647,133.696 435.945,134.636 435.945,135.738 C435.945,136.657 435.674,137.529 435.132,138.355 C434.587,139.181 433.687,139.594 432.430,139.594 C401.891,139.593 401.891,139.593 401.891,139.593 C401.891,139.593 401.891,139.593 401.891,139.593 C400.690,139.593 399.575,139.352 398.545,138.870 C397.515,138.388 397.001,137.689 397.001,136.769 C397.001,92.080 397.001,92.080 397.001,92.080 C397.001,91.163 397.515,90.462 398.545,89.980 z" fill="#FFFFFF" />
</g>
</g>
</svg>
