<?xml version="1.0" encoding="utf-8"?>
<!-- Generator: Adobe Illustrator 16.0.0, SVG Export Plug-In . SVG Version: 6.00 Build 0)  -->
<!DOCTYPE svg PUBLIC "-//W3C//DTD SVG 1.1//EN" "http://www.w3.org/Graphics/SVG/1.1/DTD/svg11.dtd">
<svg version="1.1" id="Laag_1" xmlns="http://www.w3.org/2000/svg" xmlns:xlink="http://www.w3.org/1999/xlink" x="0px" y="0px"
	 width="587px" height="319px" viewBox="0 0 587 319" enable-background="new 0 0 587 319" xml:space="preserve">
<g>
	<g id="logo-svglayers">
		<path id="Color-Fill-3" fill="#FFFFFF" d="M37.51,316.49c-0.02-20.99-0.02-41.99,0-62.98c170.99-0.01,341.99-0.01,512.979,0
			c0.012,20.99,0.021,41.99,0,62.98C379.5,316.5,208.5,316.51,37.51,316.49z"/>
		<g id="icon-svglayers-f_2_">
			<g id="icon-svglayers-f_1_">
				<g id="icon-svglayers-f">
					<g id="group2">
						<path id="Color-Fill-35" fill="#FFFFFF" d="M290.857,159.416c-0.452-0.567-0.676-1.228-0.676-1.984
							c0-0.661,0.197-1.275,0.592-1.842c0.396-0.566,1.016-0.85,1.859-0.85c34.483,0,34.483,0,34.483,0
							c0.848,0,1.466,0.284,1.861,0.85c0.393,0.567,0.59,1.181,0.59,1.842c0,0.708-0.197,1.358-0.59,1.948
							c-0.396,0.591-1.016,0.888-1.861,0.888c-13.689,0-13.689,0-13.689,0V204.4c0,0.707-0.367,1.238-1.102,1.594
							c-0.731,0.355-1.55,0.531-2.449,0.531c-0.902,0-1.721-0.178-2.451-0.531c-0.732-0.354-1.102-0.887-1.102-1.594
							c0-44.133,0-44.133,0-44.133h-13.69C291.899,160.268,291.307,159.982,290.857,159.416z"/>
						<path id="Color-Fill-36" fill="#FFFFFF" d="M344.53,156.373c0.227-0.708,0.761-1.228,1.606-1.559
							c0.845-0.33,1.746-0.496,2.705-0.496c1.014,0,1.941,0.177,2.789,0.531c0.845,0.354,1.38,0.862,1.604,1.523
							c17.243,47.106,17.243,47.106,17.243,47.106c0.112,0.189,0.169,0.354,0.169,0.496c0,0.475-0.24,0.897-0.718,1.274
							c-0.479,0.379-1.059,0.687-1.733,0.921c-0.676,0.237-1.324,0.354-1.941,0.354c-0.621,0-1.156-0.104-1.606-0.316
							c-0.451-0.213-0.761-0.557-0.93-1.025c-3.806-10.558-3.806-10.558-3.806-10.558c-22.229,0-22.229,0-22.229,0l-3.635,10.558
							c-0.169,0.473-0.494,0.813-0.975,1.025c-0.477,0.212-1.054,0.318-1.729,0.318c-0.563,0-1.198-0.106-1.901-0.318
							c-0.706-0.213-1.269-0.508-1.688-0.887c-0.425-0.377-0.637-0.803-0.637-1.274c0-0.188,0.028-0.377,0.085-0.565
							C344.53,156.373,344.53,156.373,344.53,156.373z M348.841,163.1l-9.469,26.637h18.936L348.841,163.1z"/>
						<path id="Color-Fill-37" fill="#FFFFFF" d="M379.816,161.189c1.606-2.268,3.774-3.906,6.509-4.922
							c2.732-1.015,5.763-1.523,9.086-1.523c3.722,0,6.944,0.531,9.681,1.594c2.73,1.063,4.873,2.539,6.424,4.43
							c1.549,1.889,2.324,4.106,2.324,6.656c0,1.135-0.313,1.901-0.932,2.305c-0.621,0.399-1.494,0.602-2.62,0.602
							c-0.959,0-1.773-0.152-2.449-0.46c-0.679-0.308-1.044-0.839-1.102-1.595c-0.226-1.651-0.73-3.082-1.521-4.285
							c-0.789-1.204-1.975-2.148-3.551-2.833c-1.577-0.687-3.605-1.028-6.087-1.028c-3.492,0-6.212,0.814-8.154,2.443
							c-1.944,1.631-2.916,4.17-2.916,7.615c0,21.322,0,21.322,0,21.322c0,3.447,0.972,5.985,2.916,7.615
							c1.942,1.629,4.662,2.441,8.154,2.441c3.493,0,6.229-0.813,8.199-2.441c1.974-1.63,2.958-4.168,2.958-7.615
							c0-7.226,0-7.226,0-7.226H396.68c-0.79,0-1.396-0.261-1.817-0.779c-0.423-0.521-0.634-1.086-0.634-1.698
							c0-0.613,0.211-1.182,0.634-1.701c0.422-0.521,1.027-0.778,1.817-0.778c14.707,0,14.707,0,14.707,0
							c0.788,0,1.395,0.212,1.815,0.638c0.424,0.426,0.636,0.945,0.636,1.559c0,9.988,0,9.988,0,9.988
							c0,3.73-0.805,6.729-2.409,8.996c-1.605,2.268-3.79,3.908-6.551,4.924c-2.763,1.012-5.86,1.519-9.299,1.519
							c-3.438,0-6.521-0.507-9.255-1.522c-2.733-1.015-4.9-2.656-6.509-4.924c-1.604-2.268-2.409-5.266-2.409-8.996
							c0-21.322,0-21.322,0-21.322C377.406,166.457,378.212,163.457,379.816,161.189z"/>
						<path id="Color-Fill-38" fill="#FFFFFF" d="M426.135,161.189c1.604-2.268,3.772-3.906,6.509-4.922
							c2.731-1.015,5.761-1.523,9.086-1.523c3.72,0,6.944,0.531,9.679,1.594c2.732,1.063,4.873,2.539,6.424,4.43
							c1.551,1.889,2.324,4.106,2.324,6.656c0,1.135-0.311,1.901-0.93,2.305c-0.621,0.399-1.494,0.602-2.62,0.602
							c-0.959,0-1.775-0.152-2.451-0.46c-0.677-0.308-1.044-0.839-1.1-1.595c-0.228-1.651-0.732-3.082-1.521-4.285
							c-0.789-1.204-1.973-2.148-3.55-2.833c-1.578-0.687-3.604-1.028-6.086-1.028c-3.494,0-6.212,0.814-8.156,2.443
							c-1.942,1.631-2.916,4.17-2.916,7.615c0,21.322,0,21.322,0,21.322c0,3.447,0.974,5.985,2.916,7.615
							c1.944,1.629,4.662,2.441,8.156,2.441c3.493,0,6.229-0.813,8.199-2.441c1.972-1.63,2.958-4.168,2.958-7.615
							c0-7.226,0-7.226,0-7.226h-10.06c-0.79,0-1.396-0.261-1.815-0.779c-0.423-0.521-0.634-1.086-0.634-1.698
							c0-0.613,0.211-1.182,0.634-1.701c0.422-0.521,1.026-0.778,1.815-0.778c14.707,0,14.707,0,14.707,0
							c0.788,0,1.396,0.212,1.817,0.638s0.634,0.945,0.634,1.559c0,9.988,0,9.988,0,9.988c0,3.73-0.803,6.729-2.409,8.996
							c-1.604,2.268-3.79,3.908-6.551,4.924c-2.759,1.012-5.858,1.519-9.296,1.519s-6.521-0.507-9.255-1.522
							s-4.902-2.656-6.509-4.924c-1.605-2.268-2.409-5.266-2.409-8.996c0-21.322,0-21.322,0-21.322
							C423.726,166.457,424.53,163.457,426.135,161.189z"/>
						<path id="Color-Fill-39" fill="#FFFFFF" d="M471.652,155.273c0.676-0.354,1.408-0.531,2.197-0.531c30.091,0,30.091,0,30.091,0
							c0.901,0,1.535,0.284,1.902,0.85c0.365,0.567,0.549,1.158,0.549,1.771c0,0.708-0.211,1.346-0.634,1.913
							s-1.028,0.85-1.817,0.85c-26.202,0-26.202,0-26.202,0c0,17.994,0,17.994,0,17.994h13.188c0.788,0,1.395,0.26,1.815,0.778
							c0.422,0.52,0.636,1.108,0.636,1.771c0,0.565-0.186,1.11-0.551,1.63c-0.365,0.521-1.002,0.778-1.9,0.778
							c-13.188,0-13.188,0-13.188,0c0,18.063,0,18.063,0,18.063h26.202c0.789,0,1.396,0.271,1.817,0.813
							c0.423,0.544,0.634,1.192,0.634,1.948c0,0.613-0.184,1.203-0.549,1.771c-0.367,0.566-1.001,0.851-1.902,0.851
							c-30.091,0-30.091,0-30.091,0v0.002c-0.789,0-1.521-0.178-2.197-0.531c-0.677-0.354-1.015-0.887-1.015-1.594
							c0-47.533,0-47.533,0-47.533C470.637,156.159,470.975,155.627,471.652,155.273z"/>
						<path id="Color-Fill-40" fill="#FFFFFF" d="M521.181,204.4c0,0.707-0.367,1.238-1.101,1.594
							c-0.731,0.354-1.551,0.531-2.449,0.531c-0.848,0-1.648-0.178-2.409-0.531s-1.144-0.887-1.144-1.594
							c0-47.604,0-47.604,0-47.604c0-0.567,0.239-1.039,0.721-1.417c0.479-0.377,1.084-0.59,1.815-0.638c15.468,0,15.468,0,15.468,0
							c3.438,0,6.578,0.438,9.427,1.311c2.845,0.875,5.111,2.338,6.804,4.392c1.69,2.057,2.536,4.877,2.536,8.468
							c0,2.881-0.55,5.266-1.648,7.153c-1.099,1.891-2.604,3.365-4.521,4.429c-1.917,1.063-4.06,1.807-6.424,2.229
							c12.509,19.905,12.509,19.905,12.509,19.905c0.11,0.188,0.197,0.366,0.254,0.531c0.056,0.166,0.085,0.319,0.085,0.461
							c0,0.521-0.212,1.016-0.635,1.487c-0.422,0.473-0.958,0.851-1.605,1.134c-0.647,0.284-1.31,0.426-1.985,0.426
							c-0.678,0-1.282-0.235-1.817-0.708c-0.536-0.473-1.001-1.016-1.396-1.63c-12.679-20.756-12.679-20.756-12.679-20.756
							c-9.805,0-9.805,0-9.805,0V204.4z M532.086,160.126c-10.903,0-10.903,0-10.903,0c0,18.488,0,18.488,0,18.488h10.903
							c3.491,0,6.311-0.708,8.45-2.125c2.144-1.416,3.214-3.802,3.214-7.154s-1.07-5.726-3.214-7.119
							C538.395,160.823,535.577,160.126,532.086,160.126z"/>
					</g>
					<g id="group1">
						<g id="O">
							<g id="group">
								<path id="Color-Fill-1" fill="#FFFFFF" d="M173.089,222.88c-22.812,5.07-47.23,3.021-68.74-6.21
									c-27.01-11.33-49.08-33.73-60.1-60.86c-10.59-25.93-11.2-55.97-1.062-82.13c1.551,0.97,3.102,1.94,4.722,2.8
									c1.028,6.34-1.86,12.3-2.802,18.45c-3.31,19.34-1.29,39.65,6.262,57.8c10.29,25.29,30.858,46.17,56,56.831
									c21.778,9.359,46.77,11.021,69.59,4.551c24.729-6.801,46.568-23.199,60.33-44.812c10.83-16.8,16.568-36.82,16.358-56.8
									c0.04-19.9-5.898-39.75-16.75-56.42C221.4,32.02,195.73,14.7,167.5,9.69c-18.852-3.31-38.79-1.83-56.562,5.49
									c7.96,8.65,16.62,16.63,24.802,25.08c8.63,9.04,17.55,17.79,26.38,26.62c4.3,4.37,9.5,8.17,12.18,13.85
									c3.26,6.41,3.13,13.8,3.06,20.81c-0.5,10.62,0.9,21.3-0.229,31.9c-0.45,5.35-5.44,9.59-10.73,9.63
									c-9.62,0.29-19.26-0.08-28.898,0.08c-7.062,0.01-14.49,0.61-21.05-2.54c-6.79-2.73-11.512-8.49-16.562-13.49
									c-10.51-10.49-20.95-21.06-31.56-31.45c-6.552-7.03-13.29-13.9-20.512-20.25c-2.92-2.83-5.979-5.65-7.988-9.22
									c-2.24-4.5-0.9-10.23,2.83-13.52C57.36,38.03,72.04,23.36,86.68,8.66c2.3-2.39,5.43-4.13,8.83-3.97
									c3.88-0.21,7.05,2.32,9.91,4.6c23.45-9.54,50.08-11.01,74.398-3.96c25.25,7.26,47.682,23.72,62.19,45.62
									c12.52,18.62,19.13,41.12,18.77,63.55c-0.1,25.3-9.26,50.42-25.35,69.932C219.7,203.702,197.409,217.55,173.089,222.88z
									 M136.64,114.47c0.102,6.38,6.43,11.86,12.771,10.94c6.479-0.59,11.47-7.38,9.92-13.76c-1.121-6.35-8.281-10.67-14.441-8.68
									C140,104.39,136.33,109.35,136.64,114.47z"/>
							</g>
							<g id="group_1_">
								<path id="Color-Fill-2" fill="#FFFFFF" d="M285.632,107.49c2.308-8.56,9.618-15.45,18.248-17.4
									c5-1.09,10.351-0.86,15.14,1.04c8.131,3.09,14.3,10.76,15.561,19.37c1.54,9.07-2.34,18.89-9.88,24.22
									c-8.688,6.58-21.608,6.48-30.208-0.2C286.372,128.45,282.651,117.2,285.632,107.49z M320.028,118.93
									c4.291-7.79-3.518-18.09-12.178-16.17c-8.16,1.08-12.66,12.11-6.97,18.33C305.64,127.7,316.8,126.35,320.028,118.93z"/>
							</g>
						</g>
						<g id="bg-black">
							<path id="Color-Fill-5" fill="#171A18" d="M176.961,214.111c-22.82,6.471-47.812,4.811-69.59-4.551
								c-25.142-10.66-45.71-31.541-56-56.831c-7.552-18.15-9.57-38.46-6.262-57.8c0.94-6.15,3.83-12.11,2.802-18.45
								c-0.091-1.06-0.091-1.06-0.091-1.06c7.222,6.35,13.959,13.22,20.512,20.25c10.608,10.39,21.05,20.96,31.56,31.45
								c5.05,5,9.771,10.76,16.562,13.49c6.56,3.15,13.988,2.55,21.05,2.54c9.64-0.16,19.279,0.21,28.898-0.08
								c5.29-0.04,10.28-4.28,10.73-9.63c1.13-10.6-0.271-21.28,0.229-31.9c0.07-7.01,0.2-14.4-3.06-20.81
								c-2.68-5.68-7.88-9.48-12.18-13.85c-8.83-8.83-17.75-17.58-26.381-26.62c-8.181-8.45-16.841-16.43-24.801-25.08
								c17.771-7.32,37.71-8.8,56.562-5.49C195.73,14.7,221.4,32.02,236.9,56.08c10.852,16.67,16.79,36.52,16.75,56.42
								c0.21,19.98-5.528,40-16.358,56.8C223.53,190.91,201.69,207.311,176.961,214.111z"/>
							<path id="Color-Fill-6" fill="#171A18" d="M159.33,111.65c1.55,6.38-3.44,13.17-9.92,13.76
								c-6.342,0.92-12.67-4.56-12.771-10.94c-0.309-5.12,3.361-10.08,8.251-11.5C151.05,100.98,158.21,105.3,159.33,111.65z"/>
						</g>
						<g id="N">
							<path id="Color-Fill-32" fill="#FFFFFF" d="M347.837,89.495c1.396,0,2.547,0.115,3.448,0.343
								c0.902,0.229,1.747,0.675,2.533,1.337c0.786,0.664,1.616,1.681,2.49,3.053c16.86,25.587,16.86,25.587,16.86,25.587V92.239
								c0-0.96,0.597-1.657,1.791-2.092c1.191-0.434,2.488-0.652,3.888-0.652c1.455,0,2.766,0.218,3.931,0.652
								c1.165,0.435,1.748,1.132,1.748,2.092c0,44.589,0,44.589,0,44.589c0,0.916-0.583,1.612-1.748,2.092s-2.476,0.72-3.931,0.72
								c-1.341,0-2.577-0.206-3.713-0.617c-1.138-0.411-2.055-1.143-2.752-2.195c-18.87-27.577-18.87-27.577-18.87-27.577v27.577
								c0,0.916-0.582,1.612-1.747,2.092s-2.475,0.72-3.929,0.72c-1.398,0-2.695-0.24-3.891-0.72
								c-1.191-0.48-1.791-1.177-1.791-2.092c0-44.52,0-44.52,0-44.52c0-0.96,0.6-1.669,1.791-2.127
								C345.14,89.724,346.437,89.495,347.837,89.495z"/>
						</g>
						<g id="E">
							<path id="Color-Fill-33" fill="#FFFFFF" d="M398.138,89.495c31.101,0,31.101,0,31.101,0c1.28,0,2.198,0.412,2.752,1.235
								c0.555,0.823,0.829,1.692,0.829,2.607c0,1.098-0.305,2.035-0.916,2.813c-0.61,0.778-1.501,1.166-2.665,1.166
								c-24.724,0-24.724,0-24.724,0c0,13.72,0,13.72,0,13.72h13.279c1.163,0,2.053,0.355,2.663,1.063
								c0.61,0.709,0.919,1.543,0.919,2.503c0,0.778-0.277,1.543-0.83,2.298c-0.557,0.754-1.474,1.132-2.752,1.132
								c-13.279,0-13.279,0-13.279,0c0,13.788,0,13.788,0,13.788h24.724c1.164,0,2.055,0.389,2.665,1.167
								c0.611,0.778,0.916,1.715,0.916,2.813c0,0.915-0.274,1.783-0.829,2.606c-0.554,0.823-1.472,1.235-2.752,1.235
								c-31.101-0.001-31.101-0.001-31.101-0.001l0,0c-1.226,0-2.359-0.24-3.407-0.72s-1.573-1.177-1.573-2.092
								c0-44.52,0-44.52,0-44.52c0-0.915,0.525-1.612,1.573-2.092S396.914,89.495,398.138,89.495z"/>
						</g>
						<path id="Color-Fill-34" fill="#FFFFFF" d="M399.891,89.257c30.539,0,30.539,0,30.539,0c1.257,0,2.157,0.413,2.702,1.239
							c0.542,0.826,0.813,1.699,0.813,2.617c0,1.102-0.3,2.043-0.899,2.823c-0.602,0.781-1.475,1.171-2.615,1.171
							c-24.277,0-24.277,0-24.277,0c0,13.772,0,13.772,0,13.772h13.039c1.146,0,2.016,0.355,2.616,1.067
							c0.602,0.712,0.899,1.549,0.899,2.514c0,0.781-0.271,1.549-0.813,2.307c-0.545,0.757-1.445,1.136-2.703,1.136
							c-13.039,0-13.039,0-13.039,0c0,13.841,0,13.841,0,13.841h24.277c1.143,0,2.016,0.391,2.615,1.171
							c0.602,0.781,0.899,1.721,0.899,2.823c0,0.919-0.271,1.791-0.813,2.617c-0.545,0.826-1.445,1.239-2.702,1.239
							c-30.539-0.001-30.539-0.001-30.539-0.001l0,0c-1.201,0-2.316-0.241-3.346-0.723c-1.03-0.482-1.544-1.181-1.544-2.101
							c0-44.689,0-44.689,0-44.689c0-0.917,0.514-1.618,1.544-2.1C397.573,89.499,398.69,89.257,399.891,89.257z"/>
					</g>
				</g>
			</g>
		</g>
	</g>
	<g>
		<path d="M92.258,298.468c-0.408,0-0.738-0.102-0.99-0.306s-0.378-0.45-0.378-0.738v-24.192c0-0.359,0.144-0.63,0.432-0.81
			c0.288-0.18,0.6-0.271,0.936-0.271h6.192c1.32,0,2.539,0.162,3.654,0.486s2.004,0.931,2.664,1.818s0.99,2.172,0.99,3.852
			c0,1.512-0.277,2.772-0.828,3.78c-0.553,1.008-1.297,1.716-2.232,2.124c0.744,0.288,1.393,0.679,1.943,1.17
			c0.553,0.492,0.984,1.128,1.297,1.908s0.469,1.794,0.469,3.042v0.647c0,1.849-0.313,3.318-0.938,4.41
			c-0.623,1.093-1.475,1.878-2.555,2.358s-2.293,0.72-3.637,0.72H92.258z M93.914,282.952h4.5c1.486,0,2.578-0.33,3.275-0.99
			c0.695-0.66,1.045-1.733,1.045-3.222c0-0.984-0.188-1.758-0.559-2.322c-0.373-0.563-0.889-0.96-1.549-1.188
			c-0.66-0.228-1.434-0.342-2.322-0.342h-4.391V282.952z M93.914,295.731h4.86c1.463,0,2.598-0.396,3.402-1.188
			c0.803-0.792,1.205-2.04,1.205-3.744v-0.612c0-1.728-0.402-2.945-1.205-3.653c-0.805-0.708-1.939-1.063-3.402-1.063h-4.86V295.731
			z"/>
		<path d="M111.878,298.468c-0.336,0-0.647-0.09-0.936-0.27c-0.288-0.181-0.433-0.45-0.433-0.811v-24.156
			c0-0.359,0.145-0.63,0.433-0.81s0.6-0.271,0.936-0.271h12.816c0.384,0,0.653,0.145,0.81,0.433s0.234,0.588,0.234,0.899
			c0,0.36-0.09,0.685-0.271,0.973c-0.18,0.288-0.438,0.432-0.773,0.432h-11.16v9.145h5.616c0.336,0,0.594,0.132,0.773,0.396
			c0.181,0.265,0.271,0.564,0.271,0.9c0,0.288-0.078,0.563-0.234,0.828c-0.156,0.264-0.426,0.396-0.81,0.396h-5.616v9.18h11.16
			c0.336,0,0.594,0.139,0.773,0.414c0.181,0.276,0.271,0.606,0.271,0.99c0,0.313-0.078,0.612-0.234,0.9s-0.426,0.432-0.81,0.432
			H111.878z"/>
		<path d="M135.278,298.468c-0.385,0-0.732-0.09-1.044-0.27c-0.313-0.181-0.469-0.45-0.469-0.811V274.96h-5.832
			c-0.312,0-0.563-0.145-0.756-0.433c-0.192-0.287-0.288-0.623-0.288-1.008c0-0.336,0.084-0.647,0.252-0.936
			s0.433-0.433,0.792-0.433h14.688c0.36,0,0.624,0.145,0.792,0.433s0.252,0.6,0.252,0.936c0,0.36-0.084,0.69-0.252,0.99
			c-0.168,0.301-0.432,0.45-0.792,0.45h-5.832v22.428c0,0.36-0.156,0.63-0.468,0.811
			C136.01,298.378,135.662,298.468,135.278,298.468z"/>
		<path d="M152.918,298.468c-0.385,0-0.732-0.09-1.044-0.27c-0.313-0.181-0.469-0.45-0.469-0.811V274.96h-5.832
			c-0.312,0-0.563-0.145-0.756-0.433c-0.192-0.287-0.288-0.623-0.288-1.008c0-0.336,0.084-0.647,0.252-0.936
			s0.433-0.433,0.792-0.433h14.688c0.36,0,0.624,0.145,0.792,0.433s0.252,0.6,0.252,0.936c0,0.36-0.084,0.69-0.252,0.99
			c-0.168,0.301-0.432,0.45-0.792,0.45h-5.832v22.428c0,0.36-0.156,0.63-0.468,0.811
			C153.649,298.378,153.302,298.468,152.918,298.468z"/>
		<path d="M165.661,298.468c-0.336,0-0.647-0.09-0.936-0.27c-0.288-0.181-0.433-0.45-0.433-0.811v-24.156
			c0-0.359,0.145-0.63,0.433-0.81s0.6-0.271,0.936-0.271h12.816c0.384,0,0.653,0.145,0.81,0.433s0.234,0.588,0.234,0.899
			c0,0.36-0.09,0.685-0.271,0.973c-0.18,0.288-0.438,0.432-0.773,0.432h-11.16v9.145h5.616c0.336,0,0.594,0.132,0.773,0.396
			c0.181,0.265,0.271,0.564,0.271,0.9c0,0.288-0.078,0.563-0.234,0.828c-0.156,0.264-0.426,0.396-0.81,0.396h-5.616v9.18h11.16
			c0.336,0,0.594,0.139,0.773,0.414c0.181,0.276,0.271,0.606,0.271,0.99c0,0.313-0.078,0.612-0.234,0.9s-0.426,0.432-0.81,0.432
			H165.661z"/>
		<path d="M196.765,298.54c-0.288,0-0.547-0.12-0.774-0.36c-0.229-0.239-0.427-0.516-0.594-0.828l-5.4-10.548h-4.176v10.584
			c0,0.36-0.156,0.63-0.468,0.811c-0.313,0.18-0.661,0.27-1.044,0.27c-0.36,0-0.702-0.09-1.026-0.27
			c-0.324-0.181-0.486-0.45-0.486-0.811v-24.192c0-0.287,0.103-0.527,0.307-0.72c0.203-0.191,0.462-0.3,0.773-0.324h6.588
			c1.464,0,2.802,0.223,4.015,0.666c1.211,0.444,2.178,1.188,2.897,2.232c0.721,1.044,1.08,2.479,1.08,4.302
			c0,1.465-0.233,2.677-0.702,3.636c-0.468,0.961-1.11,1.711-1.926,2.25c-0.816,0.54-1.728,0.919-2.736,1.135l5.328,10.115
			c0.048,0.097,0.084,0.187,0.108,0.271c0.023,0.084,0.036,0.162,0.036,0.234c0,0.264-0.09,0.516-0.271,0.756
			c-0.18,0.24-0.408,0.432-0.684,0.576C197.335,298.468,197.052,298.54,196.765,298.54z M185.821,284.284h4.644
			c1.488,0,2.688-0.36,3.601-1.08c0.911-0.721,1.368-1.932,1.368-3.637c0-1.703-0.457-2.909-1.368-3.617
			c-0.912-0.708-2.112-1.063-3.601-1.063h-4.644V284.284z"/>
		<path d="M215.665,298.468c-0.385,0-0.732-0.09-1.044-0.27c-0.313-0.181-0.469-0.45-0.469-0.811V274.96h-5.832
			c-0.312,0-0.563-0.145-0.756-0.433c-0.192-0.287-0.288-0.623-0.288-1.008c0-0.336,0.084-0.647,0.252-0.936
			s0.433-0.433,0.792-0.433h14.688c0.36,0,0.624,0.145,0.792,0.433s0.252,0.6,0.252,0.936c0,0.36-0.084,0.69-0.252,0.99
			c-0.168,0.301-0.432,0.45-0.792,0.45h-5.832v22.428c0,0.36-0.156,0.63-0.468,0.811
			C216.396,298.378,216.049,298.468,215.665,298.468z"/>
		<path d="M224.808,298.468c-0.24,0-0.511-0.054-0.811-0.162c-0.3-0.107-0.54-0.258-0.72-0.45c-0.18-0.191-0.27-0.407-0.27-0.647
			c0-0.096,0.012-0.192,0.036-0.288l7.38-23.94c0.096-0.359,0.323-0.623,0.684-0.792c0.36-0.167,0.744-0.252,1.152-0.252
			c0.432,0,0.828,0.09,1.188,0.271c0.36,0.18,0.588,0.438,0.685,0.773l7.344,23.94c0.048,0.096,0.072,0.18,0.072,0.252
			c0,0.24-0.103,0.456-0.307,0.647c-0.204,0.192-0.449,0.349-0.737,0.469s-0.564,0.18-0.828,0.18c-0.265,0-0.492-0.054-0.685-0.162
			c-0.192-0.107-0.323-0.281-0.396-0.521l-1.62-5.364h-9.468l-1.548,5.364c-0.072,0.24-0.211,0.414-0.414,0.521
			C225.343,298.414,225.096,298.468,224.808,298.468z M228.228,289.936h8.064l-4.032-13.536L228.228,289.936z"/>
		<path d="M252.168,298.684c-1.464,0-2.778-0.258-3.942-0.773c-1.164-0.517-2.088-1.351-2.771-2.502
			c-0.684-1.152-1.026-2.676-1.026-4.572V280c0-1.896,0.343-3.42,1.026-4.572s1.607-1.985,2.771-2.502
			c1.164-0.516,2.454-0.774,3.87-0.774c1.584,0,2.958,0.271,4.122,0.811s2.076,1.29,2.736,2.25s0.99,2.088,0.99,3.384
			c0,0.576-0.133,0.967-0.396,1.17c-0.265,0.204-0.636,0.306-1.116,0.306c-0.408,0-0.756-0.077-1.044-0.233
			s-0.444-0.426-0.468-0.811c-0.096-0.84-0.313-1.565-0.647-2.178c-0.337-0.612-0.841-1.092-1.513-1.439s-1.536-0.522-2.592-0.522
			c-1.488,0-2.646,0.414-3.474,1.242s-1.242,2.118-1.242,3.87v10.836c0,1.752,0.414,3.042,1.242,3.87s1.985,1.242,3.474,1.242
			s2.651-0.414,3.492-1.242c0.84-0.828,1.26-2.118,1.26-3.87v-3.672h-4.284c-0.336,0-0.594-0.132-0.773-0.396
			c-0.181-0.264-0.271-0.552-0.271-0.864c0-0.312,0.09-0.6,0.271-0.863c0.18-0.264,0.438-0.396,0.773-0.396h6.265
			c0.335,0,0.594,0.108,0.773,0.324c0.181,0.216,0.271,0.48,0.271,0.792v5.076c0,1.896-0.343,3.42-1.026,4.572
			c-0.684,1.151-1.614,1.985-2.79,2.502C254.952,298.426,253.632,298.684,252.168,298.684z"/>
		<path d="M270.672,298.756c-1.536,0-2.88-0.234-4.032-0.702s-2.04-1.02-2.664-1.656c-0.624-0.636-0.936-1.206-0.936-1.71
			c0-0.239,0.065-0.485,0.197-0.737s0.3-0.469,0.504-0.648s0.414-0.27,0.63-0.27c0.288,0,0.57,0.144,0.847,0.432
			c0.275,0.288,0.624,0.63,1.044,1.026c0.42,0.396,0.966,0.737,1.638,1.025s1.548,0.433,2.628,0.433
			c1.008,0,1.884-0.162,2.628-0.486s1.326-0.815,1.746-1.477c0.42-0.659,0.63-1.493,0.63-2.502c0-1.031-0.216-1.872-0.647-2.52
			c-0.433-0.648-1.003-1.188-1.71-1.62c-0.708-0.432-1.477-0.815-2.305-1.152c-0.827-0.335-1.668-0.678-2.52-1.025
			c-0.853-0.348-1.626-0.78-2.322-1.296c-0.696-0.517-1.26-1.183-1.691-1.998c-0.433-0.816-0.648-1.848-0.648-3.097
			c0-1.319,0.239-2.411,0.72-3.275s1.116-1.548,1.908-2.052c0.792-0.505,1.65-0.858,2.574-1.063c0.924-0.203,1.83-0.306,2.718-0.306
			c0.648,0,1.332,0.048,2.052,0.144c0.721,0.097,1.404,0.24,2.053,0.433c0.647,0.192,1.175,0.438,1.584,0.737
			c0.407,0.301,0.611,0.654,0.611,1.063c0,0.192-0.048,0.414-0.144,0.666c-0.097,0.252-0.24,0.48-0.432,0.684
			c-0.192,0.204-0.433,0.306-0.721,0.306c-0.264,0-0.588-0.113-0.972-0.342c-0.384-0.228-0.895-0.455-1.53-0.684
			c-0.636-0.228-1.47-0.342-2.502-0.342c-0.864,0-1.674,0.12-2.43,0.359c-0.756,0.24-1.356,0.637-1.8,1.188
			c-0.444,0.552-0.666,1.284-0.666,2.195c0,0.864,0.216,1.572,0.647,2.124c0.433,0.553,0.996,1.009,1.692,1.368
			c0.695,0.36,1.464,0.69,2.304,0.99c0.84,0.301,1.68,0.648,2.521,1.044c0.84,0.396,1.613,0.882,2.321,1.458s1.278,1.326,1.71,2.25
			c0.433,0.924,0.648,2.082,0.648,3.474c0,1.729-0.342,3.15-1.026,4.267c-0.684,1.116-1.614,1.944-2.79,2.483
			C273.563,298.485,272.207,298.756,270.672,298.756z"/>
		<path d="M283.128,298.684c-0.553,0-1.008-0.192-1.368-0.576c-0.36-0.383-0.54-0.815-0.54-1.296c0-0.527,0.18-0.978,0.54-1.35
			s0.815-0.559,1.368-0.559c0.479,0,0.905,0.187,1.278,0.559c0.371,0.372,0.558,0.822,0.558,1.35c0,0.48-0.187,0.913-0.558,1.296
			C284.033,298.491,283.607,298.684,283.128,298.684z"/>
		<path d="M304.582,298.468c-0.408,0-0.738-0.102-0.99-0.306s-0.377-0.45-0.377-0.738v-24.192c0-0.359,0.145-0.63,0.432-0.81
			c0.289-0.18,0.6-0.271,0.936-0.271h6.193c1.318,0,2.537,0.162,3.652,0.486c1.117,0.324,2.004,0.931,2.664,1.818
			s0.99,2.172,0.99,3.852c0,1.512-0.275,2.772-0.828,3.78c-0.551,1.008-1.295,1.716-2.23,2.124c0.742,0.288,1.391,0.679,1.943,1.17
			c0.551,0.492,0.984,1.128,1.295,1.908c0.313,0.78,0.469,1.794,0.469,3.042v0.647c0,1.849-0.313,3.318-0.936,4.41
			c-0.625,1.093-1.477,1.878-2.557,2.358s-2.291,0.72-3.635,0.72H304.582z M306.239,282.952h4.5c1.488,0,2.58-0.33,3.277-0.99
			c0.695-0.66,1.043-1.733,1.043-3.222c0-0.984-0.186-1.758-0.559-2.322c-0.371-0.563-0.887-0.96-1.547-1.188
			c-0.66-0.228-1.436-0.342-2.322-0.342h-4.393V282.952z M306.239,295.731h4.861c1.463,0,2.598-0.396,3.4-1.188
			c0.805-0.792,1.207-2.04,1.207-3.744v-0.612c0-1.728-0.402-2.945-1.207-3.653c-0.803-0.708-1.938-1.063-3.4-1.063h-4.861V295.731z
			"/>
		<path d="M324.203,298.468c-0.336,0-0.648-0.09-0.936-0.27c-0.289-0.181-0.434-0.45-0.434-0.811v-24.156
			c0-0.359,0.145-0.63,0.434-0.81c0.287-0.18,0.6-0.271,0.936-0.271h12.816c0.383,0,0.652,0.145,0.809,0.433
			s0.234,0.588,0.234,0.899c0,0.36-0.09,0.685-0.27,0.973s-0.438,0.432-0.773,0.432h-11.16v9.145h5.615
			c0.336,0,0.594,0.132,0.773,0.396c0.182,0.265,0.271,0.564,0.271,0.9c0,0.288-0.078,0.563-0.234,0.828
			c-0.156,0.264-0.426,0.396-0.811,0.396h-5.615v9.18h11.16c0.336,0,0.594,0.139,0.773,0.414c0.18,0.276,0.27,0.606,0.27,0.99
			c0,0.313-0.078,0.612-0.234,0.9s-0.426,0.432-0.809,0.432H324.203z"/>
		<path d="M347.602,298.468c-0.385,0-0.732-0.09-1.043-0.27c-0.313-0.181-0.469-0.45-0.469-0.811V274.96h-5.832
			c-0.313,0-0.564-0.145-0.756-0.433c-0.193-0.287-0.289-0.623-0.289-1.008c0-0.336,0.084-0.647,0.252-0.936
			s0.434-0.433,0.793-0.433h14.688c0.361,0,0.625,0.145,0.793,0.433s0.252,0.6,0.252,0.936c0,0.36-0.084,0.69-0.252,0.99
			c-0.168,0.301-0.432,0.45-0.793,0.45h-5.832v22.428c0,0.36-0.156,0.63-0.467,0.811
			C348.334,298.378,347.987,298.468,347.602,298.468z"/>
		<path d="M365.242,298.468c-0.385,0-0.732-0.09-1.045-0.27c-0.313-0.181-0.469-0.45-0.469-0.811V274.96h-5.832
			c-0.311,0-0.563-0.145-0.756-0.433c-0.191-0.287-0.287-0.623-0.287-1.008c0-0.336,0.084-0.647,0.252-0.936
			s0.432-0.433,0.791-0.433h14.689c0.359,0,0.623,0.145,0.791,0.433s0.252,0.6,0.252,0.936c0,0.36-0.084,0.69-0.252,0.99
			c-0.168,0.301-0.432,0.45-0.791,0.45h-5.832v22.428c0,0.36-0.156,0.63-0.469,0.811
			C365.973,298.378,365.625,298.468,365.242,298.468z"/>
		<path d="M377.985,298.468c-0.336,0-0.646-0.09-0.936-0.27c-0.287-0.181-0.432-0.45-0.432-0.811v-24.156
			c0-0.359,0.145-0.63,0.432-0.81c0.289-0.18,0.6-0.271,0.936-0.271h12.816c0.385,0,0.654,0.145,0.811,0.433
			s0.234,0.588,0.234,0.899c0,0.36-0.09,0.685-0.271,0.973c-0.18,0.288-0.438,0.432-0.773,0.432h-11.16v9.145h5.617
			c0.336,0,0.594,0.132,0.773,0.396c0.18,0.265,0.27,0.564,0.27,0.9c0,0.288-0.078,0.563-0.234,0.828
			c-0.156,0.264-0.426,0.396-0.809,0.396h-5.617v9.18h11.16c0.336,0,0.594,0.139,0.773,0.414c0.182,0.276,0.271,0.606,0.271,0.99
			c0,0.313-0.078,0.612-0.234,0.9s-0.426,0.432-0.811,0.432H377.985z"/>
		<path d="M409.09,298.54c-0.289,0-0.547-0.12-0.775-0.36c-0.229-0.239-0.426-0.516-0.594-0.828l-5.4-10.548h-4.176v10.584
			c0,0.36-0.156,0.63-0.467,0.811c-0.313,0.18-0.662,0.27-1.045,0.27c-0.359,0-0.701-0.09-1.025-0.27
			c-0.324-0.181-0.486-0.45-0.486-0.811v-24.192c0-0.287,0.102-0.527,0.307-0.72c0.203-0.191,0.461-0.3,0.773-0.324h6.588
			c1.463,0,2.801,0.223,4.014,0.666c1.211,0.444,2.178,1.188,2.898,2.232s1.08,2.479,1.08,4.302c0,1.465-0.234,2.677-0.703,3.636
			c-0.467,0.961-1.109,1.711-1.926,2.25c-0.816,0.54-1.727,0.919-2.736,1.135l5.328,10.115c0.049,0.097,0.084,0.187,0.109,0.271
			c0.023,0.084,0.035,0.162,0.035,0.234c0,0.264-0.09,0.516-0.27,0.756s-0.408,0.432-0.684,0.576
			C409.658,298.468,409.377,298.54,409.09,298.54z M398.145,284.284h4.645c1.488,0,2.688-0.36,3.6-1.08
			c0.912-0.721,1.369-1.932,1.369-3.637c0-1.703-0.457-2.909-1.369-3.617s-2.111-1.063-3.6-1.063h-4.645V284.284z"/>
		<path d="M423.237,298.468c-0.359,0-0.701-0.09-1.025-0.27c-0.324-0.181-0.486-0.45-0.486-0.811v-23.76
			c0-0.552,0.162-0.937,0.486-1.152s0.666-0.324,1.025-0.324c0.383,0,0.715,0.072,0.99,0.217c0.275,0.144,0.527,0.354,0.756,0.63
			s0.449,0.63,0.666,1.062l5.688,10.836l5.689-10.836c0.238-0.432,0.473-0.785,0.701-1.062s0.48-0.486,0.756-0.63
			c0.275-0.145,0.594-0.217,0.953-0.217c0.408,0,0.762,0.108,1.063,0.324s0.451,0.601,0.451,1.152v23.76
			c0,0.36-0.156,0.63-0.469,0.811c-0.313,0.18-0.66,0.27-1.045,0.27c-0.383,0-0.732-0.09-1.043-0.27
			c-0.313-0.181-0.469-0.45-0.469-0.811v-18.9l-5.471,10.225c-0.168,0.288-0.35,0.498-0.541,0.63s-0.396,0.198-0.611,0.198
			c-0.168,0-0.355-0.06-0.559-0.181c-0.203-0.119-0.391-0.335-0.559-0.647l-5.436-10.368v19.044c0,0.36-0.156,0.63-0.467,0.811
			C423.969,298.378,423.619,298.468,423.237,298.468z"/>
		<path d="M447.61,298.468c-0.361,0-0.703-0.09-1.027-0.27c-0.324-0.181-0.486-0.45-0.486-0.811v-24.192
			c0-0.359,0.162-0.623,0.486-0.792c0.324-0.167,0.666-0.252,1.027-0.252c0.383,0,0.73,0.085,1.043,0.252
			c0.313,0.169,0.469,0.433,0.469,0.792v24.192c0,0.36-0.156,0.63-0.469,0.811C448.34,298.378,447.992,298.468,447.61,298.468z"/>
		<path d="M454.303,298.54c-0.264,0-0.539-0.066-0.828-0.198c-0.287-0.132-0.533-0.312-0.736-0.54
			c-0.205-0.228-0.307-0.474-0.307-0.738c0-0.191,0.059-0.407,0.18-0.647l6.229-11.124l-6.084-11.052
			c-0.168-0.288-0.252-0.553-0.252-0.792c0-0.288,0.096-0.534,0.287-0.738s0.426-0.36,0.703-0.468
			c0.275-0.108,0.568-0.162,0.881-0.162s0.576,0.114,0.793,0.342c0.215,0.229,0.383,0.498,0.504,0.81l5.111,9.576l5.111-9.576
			c0.145-0.312,0.324-0.581,0.541-0.81c0.217-0.228,0.48-0.342,0.791-0.342c0.289,0,0.576,0.054,0.865,0.162
			c0.287,0.107,0.521,0.264,0.701,0.468s0.27,0.45,0.27,0.738c0,0.239-0.084,0.504-0.252,0.792l-6.084,11.052l6.229,11.124
			c0.121,0.24,0.18,0.456,0.18,0.647c0,0.265-0.096,0.511-0.287,0.738c-0.193,0.229-0.432,0.408-0.721,0.54
			c-0.287,0.132-0.576,0.198-0.863,0.198c-0.264,0-0.492-0.108-0.684-0.324c-0.193-0.216-0.35-0.444-0.469-0.684l-5.328-9.828
			l-5.291,9.828c-0.121,0.239-0.277,0.468-0.469,0.684C454.83,298.432,454.592,298.54,454.303,298.54z"/>
		<path d="M473.78,298.468c-0.336,0-0.646-0.09-0.936-0.27c-0.287-0.181-0.432-0.45-0.432-0.811v-24.156
			c0-0.359,0.145-0.63,0.432-0.81c0.289-0.18,0.6-0.271,0.936-0.271h12.816c0.385,0,0.654,0.145,0.811,0.433
			s0.234,0.588,0.234,0.899c0,0.36-0.09,0.685-0.271,0.973c-0.18,0.288-0.438,0.432-0.773,0.432h-11.16v9.145h5.617
			c0.336,0,0.594,0.132,0.773,0.396c0.18,0.265,0.27,0.564,0.27,0.9c0,0.288-0.078,0.563-0.234,0.828
			c-0.156,0.264-0.426,0.396-0.809,0.396h-5.617v9.18h11.16c0.336,0,0.594,0.139,0.773,0.414c0.182,0.276,0.271,0.606,0.271,0.99
			c0,0.313-0.078,0.612-0.234,0.9s-0.426,0.432-0.811,0.432H473.78z"/>
		<path d="M497.18,298.756c-1.535,0-2.879-0.234-4.031-0.702s-2.041-1.02-2.664-1.656c-0.625-0.636-0.936-1.206-0.936-1.71
			c0-0.239,0.064-0.485,0.197-0.737c0.131-0.252,0.299-0.469,0.504-0.648c0.203-0.18,0.414-0.27,0.629-0.27
			c0.289,0,0.57,0.144,0.848,0.432c0.275,0.288,0.623,0.63,1.043,1.026c0.42,0.396,0.967,0.737,1.639,1.025s1.547,0.433,2.627,0.433
			c1.008,0,1.885-0.162,2.629-0.486s1.326-0.815,1.746-1.477c0.42-0.659,0.629-1.493,0.629-2.502c0-1.031-0.215-1.872-0.646-2.52
			c-0.434-0.648-1.004-1.188-1.711-1.62s-1.477-0.815-2.305-1.152c-0.826-0.335-1.668-0.678-2.52-1.025s-1.625-0.78-2.322-1.296
			c-0.695-0.517-1.26-1.183-1.691-1.998c-0.432-0.816-0.648-1.848-0.648-3.097c0-1.319,0.24-2.411,0.721-3.275
			s1.115-1.548,1.908-2.052c0.791-0.505,1.65-0.858,2.574-1.063c0.924-0.203,1.83-0.306,2.717-0.306
			c0.648,0,1.332,0.048,2.053,0.144c0.721,0.097,1.404,0.24,2.053,0.433c0.646,0.192,1.174,0.438,1.584,0.737
			c0.406,0.301,0.611,0.654,0.611,1.063c0,0.192-0.049,0.414-0.145,0.666s-0.24,0.48-0.432,0.684
			c-0.191,0.204-0.432,0.306-0.721,0.306c-0.264,0-0.588-0.113-0.971-0.342c-0.385-0.228-0.895-0.455-1.531-0.684
			c-0.635-0.228-1.469-0.342-2.502-0.342c-0.863,0-1.674,0.12-2.43,0.359c-0.756,0.24-1.355,0.637-1.799,1.188
			c-0.445,0.552-0.666,1.284-0.666,2.195c0,0.864,0.215,1.572,0.646,2.124c0.434,0.553,0.996,1.009,1.693,1.368
			c0.695,0.36,1.463,0.69,2.303,0.99c0.84,0.301,1.68,0.648,2.521,1.044c0.84,0.396,1.613,0.882,2.32,1.458
			c0.709,0.576,1.279,1.326,1.711,2.25s0.648,2.082,0.648,3.474c0,1.729-0.342,3.15-1.027,4.267
			c-0.684,1.116-1.613,1.944-2.789,2.483C500.073,298.485,498.715,298.756,497.18,298.756z"/>
		<path d="M509.635,298.684c-0.553,0-1.008-0.192-1.367-0.576c-0.361-0.383-0.541-0.815-0.541-1.296c0-0.527,0.18-0.978,0.541-1.35
			c0.359-0.372,0.814-0.559,1.367-0.559c0.48,0,0.906,0.187,1.279,0.559c0.371,0.372,0.557,0.822,0.557,1.35
			c0,0.48-0.186,0.913-0.557,1.296C510.541,298.491,510.115,298.684,509.635,298.684z"/>
	</g>
</g>
<g id="group_2_">
	<path id="Color-Fill-2_1_" fill="#FFFFFF" d="M285.298,107.372c2.34-8.704,9.751-15.71,18.501-17.693
		c5.068-1.108,10.493-0.875,15.349,1.058c8.244,3.142,14.498,10.941,15.776,19.696c1.562,9.222-2.372,19.208-10.017,24.627
		c-8.809,6.691-21.908,6.589-30.627-0.203C286.048,128.685,282.275,117.246,285.298,107.372z M320.17,119.004
		c4.351-7.921-3.566-18.395-12.347-16.442c-8.273,1.098-12.836,12.314-7.066,18.639C305.582,127.922,316.898,126.549,320.17,119.004
		z"/>
</g>
</svg>
