<?xml version="1.0" encoding="UTF-8" ?>
<!DOCTYPE svg PUBLIC "-//W3C//DTD SVG 1.1//EN" "http://www.w3.org/Graphics/SVG/1.1/DTD/svg11.dtd">
<svg width="512pt" height="223pt" viewBox="0 0 512 223" version="1.1" xmlns="http://www.w3.org/2000/svg">
<g id="#ffffffff">
<path fill="#ffffff" opacity="1.00" d=" M 93.77 20.74 C 115.93 11.80 141.33 10.91 163.92 18.83 C 184.57 25.91 202.62 40.21 214.33 58.63 C 226.90 78.06 232.04 102.12 228.73 125.02 C 226.10 144.35 217.38 162.77 204.21 177.15 C 188.33 194.73 165.86 206.14 142.30 208.60 C 118.45 211.30 93.66 204.83 74.23 190.72 C 57.47 178.79 44.76 161.35 38.33 141.83 C 31.82 121.87 31.88 99.83 38.62 79.94 C 39.04 78.66 39.65 77.48 40.48 76.42 C 41.87 78.26 43.62 79.82 44.83 81.80 C 42.00 91.96 39.88 102.42 40.26 113.02 C 40.69 134.69 49.17 156.10 63.78 172.12 C 78.40 188.44 99.07 199.24 120.85 201.77 C 138.83 204.06 157.42 200.57 173.53 192.33 C 194.44 181.74 210.89 162.77 218.41 140.58 C 224.71 122.57 225.00 102.57 219.39 84.36 C 213.49 64.86 200.70 47.68 184.01 36.07 C 159.63 18.79 126.54 14.87 98.77 25.89 C 114.15 41.30 129.55 56.67 144.94 72.07 C 147.90 75.09 151.40 77.70 153.56 81.42 C 156.28 86.12 157.11 91.65 157.02 97.02 C 156.90 107.37 157.17 117.73 156.90 128.08 C 156.84 133.31 151.94 137.58 146.82 137.48 C 136.53 137.57 126.24 137.44 115.94 137.53 C 109.13 137.77 102.19 135.47 96.99 131.06 C 78.21 112.56 59.82 93.67 40.86 75.38 C 38.97 73.21 36.67 71.07 36.15 68.09 C 35.65 65.11 36.26 61.74 38.40 59.50 C 52.04 45.75 65.78 32.08 79.65 18.57 C 83.95 15.20 90.48 16.60 93.77 20.74 M 128.30 102.50 C 121.62 104.44 118.98 113.98 124.31 118.74 C 129.01 124.31 138.93 121.82 140.85 114.91 C 143.59 107.65 135.51 99.74 128.30 102.50 Z" />
<path fill="#ffffff" opacity="1.00" d=" M 260.52 91.76 C 271.02 87.74 283.96 93.24 288.19 103.68 C 291.56 111.42 290.01 121.02 284.21 127.19 C 278.97 132.97 270.47 135.59 262.89 133.66 C 254.75 131.90 248.09 124.97 246.52 116.81 C 244.11 106.51 250.50 95.14 260.52 91.76 M 264.54 102.61 C 258.33 104.90 255.78 113.59 260.58 118.46 C 265.07 124.08 274.91 122.26 277.26 115.51 C 280.68 108.03 272.05 99.38 264.54 102.61 Z" />
<path fill="#ffffff" opacity="1.00" d=" M 297.08 93.91 C 297.01 91.48 300.01 91.04 301.87 90.97 C 304.54 90.66 307.53 91.55 308.84 94.08 C 313.57 102.05 317.88 110.26 322.67 118.19 C 322.87 110.12 322.66 102.06 322.77 93.99 C 322.49 92.12 324.52 91.35 325.98 91.08 C 328.21 90.88 330.86 90.73 332.68 92.28 C 333.48 93.72 333.17 95.46 333.27 97.04 C 333.18 108.70 333.36 120.36 333.18 132.01 C 333.37 133.44 331.62 133.92 330.61 134.35 C 327.60 135.24 323.84 134.86 321.80 132.24 C 316.98 126.56 312.40 120.69 307.53 115.05 C 307.39 121.02 307.65 127.00 307.42 132.97 C 306.27 134.77 303.70 134.62 301.82 134.76 C 299.78 134.58 296.63 133.85 297.02 131.13 C 297.03 118.72 296.90 106.31 297.08 93.91 Z" />
<path fill="#ffffff" opacity="1.00" d=" M 342.04 93.97 C 342.11 91.57 345.10 91.00 347.01 90.90 C 356.41 91.08 365.81 91.00 375.21 90.97 C 378.10 93.34 377.49 97.55 375.07 100.03 C 368.21 99.96 361.35 100.01 354.50 100.00 C 354.50 103.17 354.50 106.34 354.50 109.50 C 358.31 109.56 362.12 109.35 365.93 109.58 C 369.51 110.58 369.43 116.61 365.89 117.59 C 362.11 117.96 358.30 117.66 354.50 117.75 C 354.50 120.33 354.50 122.91 354.50 125.50 C 360.67 125.53 366.84 125.45 373.00 125.52 C 378.02 125.07 378.86 134.33 373.87 134.72 C 364.93 134.79 355.98 134.75 347.04 134.73 C 344.89 134.78 341.81 133.74 342.02 131.11 C 342.00 118.73 341.95 106.35 342.04 93.97 Z" />
<path fill="#ffffff" opacity="1.00" d=" M 252.04 153.37 C 249.56 152.14 250.12 147.43 253.07 147.51 C 263.26 147.53 273.46 147.41 283.64 147.57 C 286.61 147.87 286.41 153.03 283.61 153.44 C 279.83 153.63 276.04 153.44 272.26 153.49 C 272.23 164.97 272.28 176.45 272.23 187.93 C 272.89 192.03 265.76 192.44 264.37 189.65 C 264.08 177.61 264.34 165.55 264.25 153.50 C 260.18 153.43 256.10 153.68 252.04 153.37 Z" />
<path fill="#ffffff" opacity="1.00" d=" M 297.34 150.10 C 298.76 145.52 307.23 145.85 308.20 150.65 C 312.74 163.13 317.50 175.54 321.92 188.06 C 322.34 191.59 317.28 191.34 314.91 191.20 C 313.59 188.10 312.61 184.89 311.43 181.74 C 305.59 181.76 299.75 181.75 293.91 181.75 C 292.60 184.86 292.13 188.46 289.99 191.15 C 287.45 191.67 284.82 191.06 282.98 189.19 C 287.55 176.09 292.57 163.14 297.34 150.10 M 302.67 156.74 C 300.16 163.16 298.07 169.73 295.85 176.26 C 300.39 176.25 304.92 176.25 309.46 176.26 C 307.41 169.68 304.99 163.22 302.67 156.74 Z" />
<path fill="#ffffff" opacity="1.00" d=" M 332.84 149.63 C 339.14 146.63 346.89 146.74 353.21 149.63 C 357.14 151.31 359.95 155.50 359.21 159.84 C 358.45 162.04 355.72 161.90 353.86 161.70 C 350.63 161.52 351.57 157.32 349.56 155.65 C 344.99 151.60 334.74 152.85 334.58 160.19 C 334.51 166.77 334.31 173.37 334.69 179.93 C 335.54 186.21 343.86 187.14 348.44 184.49 C 352.01 182.32 351.50 177.58 351.23 174.00 C 348.07 173.97 344.82 174.33 341.78 173.22 C 341.90 171.65 341.26 169.71 342.80 168.64 C 347.47 168.31 352.18 168.55 356.87 168.51 C 358.33 168.32 359.53 169.40 359.23 170.93 C 359.10 175.59 359.97 180.57 357.96 184.95 C 355.98 189.06 351.34 190.85 347.10 191.53 C 341.70 192.15 335.74 191.84 331.14 188.62 C 328.07 186.49 326.62 182.66 326.74 179.01 C 326.75 172.65 326.74 166.29 326.75 159.93 C 326.60 155.69 328.92 151.41 332.84 149.63 Z" />
<path fill="#ffffff" opacity="1.00" d=" M 367.02 158.90 C 366.93 153.71 371.31 149.61 376.06 148.37 C 382.39 146.77 389.61 147.12 395.23 150.72 C 398.06 152.43 399.63 155.80 399.52 159.06 C 399.17 162.49 394.43 162.30 392.18 160.97 C 391.11 158.59 390.65 155.41 387.90 154.35 C 384.26 152.96 379.69 152.98 376.56 155.56 C 374.46 157.85 374.72 161.13 374.73 164.02 C 374.84 169.26 374.59 174.52 374.84 179.77 C 375.47 186.21 383.90 187.09 388.55 184.55 C 392.20 182.38 391.48 177.60 391.50 174.00 C 388.72 173.83 385.80 174.42 383.11 173.64 C 380.45 172.35 381.87 167.57 384.95 168.50 C 389.61 168.79 394.49 167.82 399.00 169.06 C 399.95 173.24 399.62 177.71 399.09 181.96 C 398.45 187.25 393.32 190.45 388.47 191.30 C 383.18 192.19 377.40 192.07 372.60 189.44 C 369.18 187.69 366.92 183.90 366.99 180.07 C 367.01 173.01 366.97 165.95 367.02 158.90 Z" />
<path fill="#ffffff" opacity="1.00" d=" M 406.97 148.84 C 409.28 147.01 412.28 147.54 415.03 147.49 C 422.05 147.54 429.07 147.45 436.09 147.51 C 439.53 147.03 439.90 153.09 436.65 153.43 C 429.44 153.62 422.21 153.44 415.00 153.50 C 415.00 157.92 415.00 162.33 415.00 166.75 C 418.69 166.78 422.38 166.69 426.07 166.76 C 428.96 166.34 429.56 171.48 426.92 172.11 C 422.96 172.45 418.97 172.17 415.00 172.25 C 415.00 176.65 414.99 181.05 415.01 185.46 C 422.50 185.65 430.01 185.28 437.49 185.63 C 439.46 186.87 438.86 189.34 438.15 191.16 C 429.09 191.36 420.03 191.20 410.97 191.26 C 409.49 191.29 406.85 191.14 407.05 189.05 C 406.91 175.65 407.08 162.24 406.97 148.84 Z" />
<path fill="#ffffff" opacity="1.00" d=" M 444.73 148.95 C 445.46 146.75 448.29 147.75 450.01 147.48 C 457.21 147.83 464.84 146.42 471.64 149.44 C 479.85 152.96 479.71 166.84 471.52 170.31 C 470.28 170.83 469.03 171.32 467.76 171.76 C 470.92 176.92 474.46 181.84 477.49 187.07 C 479.07 190.87 472.08 192.95 470.24 189.88 C 466.44 184.21 463.13 178.23 459.29 172.59 C 457.03 172.69 454.76 172.63 452.51 172.71 C 452.41 178.33 452.68 183.96 452.39 189.57 C 450.70 192.01 447.11 191.03 444.73 190.28 C 444.77 176.51 444.74 162.73 444.73 148.95 M 452.50 153.51 C 452.50 158.00 452.50 162.50 452.50 167.00 C 456.85 167.32 461.37 167.48 465.62 166.37 C 470.66 164.88 471.26 156.75 466.48 154.58 C 462.12 152.57 457.13 153.86 452.50 153.51 Z" />
</g>
<g id="#1a1c1bff">
<path fill="#1a1c1b" opacity="1.00" d=" M 98.77 25.89 C 126.54 14.87 159.63 18.79 184.01 36.07 C 200.70 47.68 213.49 64.86 219.39 84.36 C 225.00 102.57 224.71 122.57 218.41 140.58 C 210.89 162.77 194.44 181.74 173.53 192.33 C 157.42 200.57 138.83 204.06 120.85 201.77 C 99.07 199.24 78.40 188.44 63.78 172.12 C 49.17 156.10 40.69 134.69 40.26 113.02 C 39.88 102.42 42.00 91.96 44.83 81.80 C 43.62 79.82 41.87 78.26 40.48 76.42 C 40.58 76.16 40.77 75.64 40.86 75.38 C 59.82 93.67 78.21 112.56 96.99 131.06 C 102.19 135.47 109.13 137.77 115.94 137.53 C 126.24 137.44 136.53 137.57 146.82 137.48 C 151.94 137.58 156.84 133.31 156.90 128.08 C 157.17 117.73 156.90 107.37 157.02 97.02 C 157.11 91.65 156.28 86.12 153.56 81.42 C 151.40 77.70 147.90 75.09 144.94 72.07 C 129.55 56.67 114.15 41.30 98.77 25.89 Z" />
<path fill="#1a1c1b" opacity="1.00" d=" M 128.30 102.50 C 135.51 99.74 143.59 107.65 140.85 114.91 C 138.93 121.82 129.01 124.31 124.31 118.74 C 118.98 113.98 121.62 104.44 128.30 102.50 Z" />
</g>
</svg>
