<?xml version="1.0" encoding="utf-8"?>
<!-- Generator: Adobe Illustrator 16.0.0, SVG Export Plug-In . SVG Version: 6.00 Build 0)  -->
<!DOCTYPE svg PUBLIC "-//W3C//DTD SVG 1.1//EN" "http://www.w3.org/Graphics/SVG/1.1/DTD/svg11.dtd">
<svg version="1.1" id="Layer_1" xmlns="http://www.w3.org/2000/svg" xmlns:xlink="http://www.w3.org/1999/xlink" x="0px" y="0px"
	 width="587px" height="319px" viewBox="0 0 587 319" enable-background="new 0 0 587 319" xml:space="preserve">
<g>
	<g>
		<g>
			<g>
				<g>
					<path fill="#FFFFFF" d="M107.42,9.29c23.45-9.54,50.08-11.01,74.399-3.96c25.25,7.26,47.681,23.72,62.19,45.62
						c12.52,18.62,19.13,41.12,18.77,63.55c-0.1,25.3-9.26,50.42-25.35,69.932c-15.729,19.27-38.02,33.118-62.34,38.448
						c-22.811,5.07-47.23,3.021-68.74-6.21c-27.01-11.33-49.08-33.73-60.1-60.86c-10.59-25.93-11.2-55.97-1.061-82.13
						c1.551,0.97,3.101,1.94,4.721,2.8c1.029,6.34-1.86,12.3-2.801,18.45c-3.31,19.34-1.29,39.65,6.261,57.8
						c10.29,25.29,30.859,46.17,56,56.831c21.779,9.359,46.77,11.021,69.59,4.551c24.729-6.801,46.569-23.2,60.33-44.812
						c10.83-16.8,16.569-36.82,16.359-56.8c0.04-19.9-5.899-39.75-16.75-56.42C223.4,32.02,197.73,14.7,169.5,9.69
						c-18.851-3.31-38.79-1.83-56.561,5.49c7.96,8.65,16.62,16.63,24.801,25.08c8.63,9.04,17.55,17.79,26.38,26.62
						c4.3,4.37,9.5,8.17,12.18,13.85c3.26,6.41,3.13,13.8,3.06,20.81c-0.5,10.62,0.9,21.3-0.229,31.9
						c-0.45,5.35-5.44,9.59-10.73,9.63c-9.62,0.29-19.26-0.08-28.899,0.08c-7.061,0.01-14.49,0.61-21.05-2.54
						c-6.79-2.73-11.511-8.49-16.561-13.49c-10.51-10.49-20.95-21.06-31.56-31.45c-6.551-7.03-13.29-13.9-20.511-20.25
						c-2.92-2.83-5.979-5.65-7.989-9.22c-2.24-4.5-0.9-10.23,2.83-13.52C59.36,38.03,74.04,23.36,88.68,8.66
						c2.3-2.39,5.43-4.13,8.83-3.97C101.39,4.48,104.56,7.01,107.42,9.29z M146.89,102.97c-4.89,1.42-8.56,6.38-8.25,11.5
						c0.101,6.38,6.43,11.86,12.771,10.94c6.479-0.59,11.47-7.38,9.92-13.76C160.21,105.3,153.05,100.98,146.89,102.97z"/>
				</g>
				<g>
					<path fill="#FFFFFF" d="M300.88,90.09c5-1.09,10.351-0.86,15.14,1.04c8.131,3.09,14.3,10.76,15.561,19.37
						c1.54,9.07-2.34,18.89-9.88,24.22c-8.689,6.58-21.609,6.48-30.209-0.2c-8.12-6.07-11.841-17.32-8.86-27.03
						C284.94,98.93,292.25,92.04,300.88,90.09z M304.85,102.76c-8.16,1.08-12.66,12.11-6.97,18.33c4.76,6.61,15.92,5.26,19.148-2.16
						C321.319,111.14,313.51,100.84,304.85,102.76z"/>
				</g>
				<g>
					<path fill="#FFFFFF" d="M37.51,253.51c170.99-0.01,341.99-0.01,512.979,0c0.011,20.99,0.021,41.99,0,62.98
						c-170.989,0.01-341.989,0.02-512.979,0C37.49,295.5,37.49,274.5,37.51,253.51z"/>
				</g>
				<path fill="#171A18" d="M105.24,294.359c-2.131,0.261-4.29,0.141-6.431,0.121"/>
			</g>
			<g>
				<path fill="#171A18" d="M112.94,15.18c17.771-7.32,37.71-8.8,56.561-5.49C197.73,14.7,223.4,32.02,238.9,56.08
					c10.851,16.67,16.79,36.52,16.75,56.42c0.21,19.98-5.529,40-16.359,56.8c-13.761,21.61-35.601,38.011-60.33,44.812
					c-22.82,6.47-47.811,4.81-69.59-4.551c-25.141-10.66-45.71-31.541-56-56.831c-7.551-18.15-9.57-38.46-6.261-57.8
					c0.94-6.15,3.83-12.11,2.801-18.45l-0.09-1.06c7.221,6.35,13.959,13.22,20.511,20.25c10.609,10.39,21.05,20.96,31.56,31.45
					c5.05,5,9.771,10.76,16.561,13.49c6.56,3.15,13.989,2.55,21.05,2.54c9.64-0.16,19.279,0.21,28.899-0.08
					c5.29-0.04,10.28-4.28,10.73-9.63c1.13-10.6-0.271-21.28,0.229-31.9c0.07-7.01,0.2-14.4-3.06-20.81
					c-2.68-5.68-7.88-9.48-12.18-13.85c-8.83-8.83-17.75-17.58-26.381-26.62C129.56,31.81,120.9,23.83,112.94,15.18z"/>
				<path fill="#171A18" d="M146.89,102.97c6.16-1.99,13.32,2.33,14.44,8.68c1.55,6.38-3.44,13.17-9.92,13.76
					c-6.341,0.92-12.67-4.56-12.771-10.94C138.33,109.35,142,104.39,146.89,102.97z"/>
				<path fill="#171A18" d="M278.66,293.47"/>
				<path fill="#171A18" d="M496.689,293.53"/>
			</g>
			<g>
				<path d="M95.815,298c-0.396,0-0.717-0.1-0.962-0.298c-0.245-0.197-0.368-0.438-0.368-0.718v-23.521
					c0-0.35,0.141-0.612,0.42-0.787c0.28-0.176,0.583-0.263,0.91-0.263h6.021c1.283,0,2.468,0.157,3.553,0.473
					c1.085,0.314,1.948,0.904,2.59,1.769c0.643,0.862,0.962,2.112,0.962,3.745c0,1.47-0.269,2.693-0.805,3.675
					s-1.26,1.669-2.17,2.063c0.723,0.28,1.353,0.659,1.89,1.139c0.537,0.479,0.957,1.097,1.261,1.854
					c0.303,0.76,0.454,1.745,0.454,2.958v0.63c0,1.799-0.303,3.227-0.909,4.287c-0.607,1.063-1.436,1.827-2.485,2.293
					c-1.05,0.469-2.229,0.7-3.535,0.7L95.815,298L95.815,298z M97.425,282.915h4.375c1.447,0,2.508-0.32,3.185-0.963
					c0.678-0.642,1.016-1.685,1.016-3.134c0-0.955-0.182-1.709-0.542-2.256c-0.362-0.549-0.864-0.934-1.505-1.155
					c-0.643-0.222-1.396-0.332-2.259-0.332h-4.27V282.915z M97.425,295.34h4.725c1.423,0,2.525-0.385,3.309-1.154
					c0.78-0.771,1.172-1.982,1.172-3.641v-0.595c0-1.681-0.392-2.864-1.172-3.554c-0.782-0.688-1.886-1.031-3.309-1.031h-4.725
					V295.34z"/>
				<path d="M114.89,298c-0.327,0-0.63-0.087-0.91-0.264c-0.279-0.174-0.42-0.438-0.42-0.786v-23.485c0-0.35,0.141-0.611,0.42-0.787
					c0.28-0.176,0.583-0.263,0.91-0.263h12.46c0.373,0,0.636,0.142,0.788,0.42c0.151,0.28,0.229,0.572,0.229,0.875
					c0,0.351-0.088,0.665-0.264,0.945c-0.175,0.28-0.426,0.42-0.752,0.42H116.5v8.89h5.46c0.327,0,0.578,0.129,0.753,0.387
					c0.175,0.256,0.262,0.547,0.262,0.875c0,0.278-0.076,0.547-0.228,0.805c-0.152,0.257-0.415,0.385-0.788,0.385h-5.46v8.925h10.85
					c0.327,0,0.578,0.136,0.752,0.403c0.175,0.268,0.263,0.589,0.263,0.962c0,0.304-0.075,0.595-0.228,0.875s-0.415,0.42-0.788,0.42
					L114.89,298L114.89,298z"/>
				<path d="M137.64,298c-0.374,0-0.712-0.087-1.015-0.264c-0.305-0.174-0.455-0.438-0.455-0.786v-21.806h-5.67
					c-0.305,0-0.548-0.141-0.735-0.42c-0.187-0.281-0.28-0.605-0.28-0.979c0-0.326,0.082-0.63,0.245-0.91
					c0.163-0.278,0.42-0.42,0.771-0.42h14.279c0.351,0,0.606,0.142,0.771,0.42c0.163,0.28,0.245,0.584,0.245,0.91
					c0,0.35-0.082,0.671-0.245,0.962c-0.164,0.292-0.42,0.438-0.771,0.438h-5.67v21.807c0,0.35-0.151,0.611-0.455,0.787
					C138.351,297.913,138.012,298,137.64,298z"/>
				<path d="M154.79,298c-0.374,0-0.712-0.087-1.016-0.264c-0.304-0.174-0.455-0.438-0.455-0.786v-21.806h-5.67
					c-0.304,0-0.548-0.141-0.734-0.42c-0.188-0.281-0.28-0.605-0.28-0.979c0-0.326,0.082-0.63,0.245-0.91
					c0.163-0.278,0.42-0.42,0.77-0.42h14.28c0.35,0,0.606,0.142,0.771,0.42c0.162,0.28,0.244,0.584,0.244,0.91
					c0,0.35-0.082,0.671-0.244,0.962c-0.164,0.292-0.421,0.438-0.771,0.438h-5.67v21.807c0,0.35-0.152,0.611-0.455,0.787
					C155.501,297.913,155.162,298,154.79,298z"/>
				<path d="M167.179,298c-0.327,0-0.63-0.087-0.91-0.264c-0.28-0.174-0.42-0.438-0.42-0.786v-23.485c0-0.35,0.14-0.611,0.42-0.787
					s0.583-0.263,0.91-0.263h12.46c0.373,0,0.636,0.142,0.788,0.42c0.151,0.28,0.228,0.572,0.228,0.875
					c0,0.351-0.087,0.665-0.263,0.945c-0.175,0.28-0.426,0.42-0.752,0.42h-10.85v8.89h5.46c0.327,0,0.578,0.129,0.753,0.387
					c0.175,0.256,0.262,0.547,0.262,0.875c0,0.278-0.076,0.547-0.228,0.805c-0.152,0.257-0.415,0.385-0.788,0.385h-5.46v8.925h10.85
					c0.327,0,0.578,0.136,0.752,0.403c0.175,0.268,0.263,0.589,0.263,0.962c0,0.304-0.075,0.595-0.228,0.875s-0.415,0.42-0.788,0.42
					L167.179,298L167.179,298z"/>
				<path d="M197.418,298.068c-0.28,0-0.531-0.115-0.752-0.35c-0.223-0.232-0.415-0.501-0.578-0.805l-5.25-10.255h-4.061v10.29
					c0,0.35-0.151,0.611-0.455,0.787s-0.642,0.263-1.015,0.263c-0.35,0-0.683-0.087-0.998-0.263
					c-0.314-0.176-0.473-0.438-0.473-0.787v-23.52c0-0.281,0.099-0.515,0.298-0.701c0.198-0.187,0.449-0.291,0.752-0.314h6.405
					c1.423,0,2.724,0.216,3.901,0.646c1.179,0.432,2.118,1.155,2.818,2.17c0.7,1.017,1.05,2.41,1.05,4.184
					c0,1.424-0.228,2.604-0.683,3.535s-1.08,1.662-1.873,2.188s-1.68,0.894-2.66,1.104l5.18,9.835
					c0.047,0.094,0.082,0.181,0.105,0.263c0.022,0.081,0.035,0.157,0.035,0.227c0,0.259-0.087,0.504-0.263,0.735
					c-0.175,0.234-0.396,0.42-0.665,0.562C197.973,298,197.699,298.068,197.418,298.068z M186.778,284.21h4.516
					c1.447,0,2.612-0.351,3.5-1.05c0.887-0.7,1.33-1.878,1.33-3.535c0-1.656-0.443-2.829-1.33-3.518
					c-0.888-0.688-2.053-1.032-3.5-1.032h-4.516V284.21z"/>
				<path d="M215.793,298c-0.374,0-0.712-0.087-1.016-0.264c-0.304-0.174-0.455-0.438-0.455-0.786v-21.806h-5.67
					c-0.304,0-0.548-0.141-0.734-0.42c-0.188-0.281-0.28-0.605-0.28-0.979c0-0.326,0.082-0.63,0.245-0.91
					c0.163-0.278,0.42-0.42,0.77-0.42h14.28c0.351,0,0.606,0.142,0.771,0.42c0.163,0.28,0.244,0.584,0.244,0.91
					c0,0.35-0.081,0.671-0.244,0.962c-0.164,0.292-0.42,0.438-0.771,0.438h-5.67v21.807c0,0.35-0.152,0.611-0.455,0.787
					C216.505,297.913,216.166,298,215.793,298z"/>
				<path d="M224.683,298c-0.233,0-0.496-0.053-0.788-0.157s-0.524-0.251-0.7-0.438c-0.175-0.188-0.262-0.397-0.262-0.63
					c0-0.094,0.011-0.188,0.035-0.28l7.175-23.275c0.093-0.35,0.315-0.605,0.665-0.77c0.351-0.163,0.724-0.245,1.12-0.245
					c0.42,0,0.805,0.088,1.155,0.263c0.35,0.175,0.57,0.427,0.665,0.753l7.14,23.274c0.047,0.094,0.07,0.175,0.07,0.245
					c0,0.232-0.101,0.443-0.298,0.63c-0.198,0.187-0.438,0.339-0.718,0.455S239.395,298,239.138,298s-0.479-0.053-0.665-0.157
					s-0.314-0.274-0.385-0.508l-1.575-5.215h-9.205l-1.505,5.215c-0.07,0.233-0.205,0.401-0.402,0.508
					C225.202,297.947,224.963,298,224.683,298z M228.008,289.705h7.84l-3.92-13.16L228.008,289.705z"/>
				<path d="M251.283,298.21c-1.425,0-2.701-0.25-3.833-0.753c-1.133-0.501-2.03-1.313-2.695-2.432
					c-0.665-1.12-0.997-2.604-0.997-4.445v-10.535c0-1.843,0.332-3.325,0.997-4.443c0.665-1.121,1.563-1.933,2.695-2.434
					c1.131-0.502,2.385-0.753,3.762-0.753c1.54,0,2.875,0.263,4.008,0.787c1.131,0.524,2.018,1.255,2.66,2.188
					c0.642,0.934,0.963,2.029,0.963,3.29c0,0.561-0.129,0.938-0.385,1.138c-0.257,0.197-0.619,0.298-1.085,0.298
					c-0.397,0-0.735-0.075-1.016-0.229c-0.279-0.151-0.432-0.413-0.455-0.786c-0.093-0.816-0.303-1.523-0.63-2.119
					c-0.327-0.595-0.816-1.062-1.47-1.399c-0.654-0.338-1.494-0.507-2.52-0.507c-1.447,0-2.573,0.402-3.378,1.207
					c-0.805,0.806-1.208,2.06-1.208,3.763v10.535c0,1.704,0.402,2.958,1.208,3.763s1.931,1.207,3.378,1.207
					c1.445,0,2.577-0.402,3.395-1.207c0.816-0.805,1.225-2.059,1.225-3.763v-3.57h-4.165c-0.326,0-0.577-0.128-0.753-0.385
					c-0.175-0.256-0.262-0.536-0.262-0.84s0.087-0.583,0.262-0.841c0.176-0.256,0.427-0.385,0.753-0.385h6.091
					c0.326,0,0.577,0.104,0.752,0.314c0.174,0.21,0.263,0.467,0.263,0.77v4.937c0,1.843-0.333,3.325-0.998,4.444
					s-1.57,1.932-2.712,2.433C253.989,297.96,252.706,298.21,251.283,298.21z"/>
				<path d="M269.272,298.28c-1.494,0-2.8-0.229-3.92-0.683c-1.12-0.455-1.982-0.992-2.59-1.611c-0.607-0.617-0.91-1.172-0.91-1.661
					c0-0.233,0.064-0.474,0.193-0.718c0.128-0.245,0.292-0.455,0.49-0.631c0.197-0.175,0.402-0.263,0.612-0.263
					c0.28,0,0.555,0.142,0.822,0.42c0.268,0.28,0.606,0.613,1.015,0.997c0.408,0.387,0.939,0.719,1.593,0.998
					c0.652,0.28,1.505,0.42,2.555,0.42c0.979,0,1.832-0.156,2.555-0.473c0.724-0.314,1.289-0.792,1.697-1.436
					c0.408-0.642,0.612-1.453,0.612-2.433c0-1.003-0.21-1.819-0.631-2.45c-0.42-0.63-0.975-1.154-1.662-1.574
					c-0.688-0.42-1.436-0.793-2.24-1.121c-0.805-0.325-1.622-0.657-2.45-0.996c-0.829-0.338-1.581-0.758-2.257-1.26
					c-0.677-0.502-1.226-1.148-1.646-1.942c-0.42-0.793-0.63-1.798-0.63-3.011c0-1.282,0.233-2.346,0.7-3.186
					s1.085-1.505,1.855-1.995c0.77-0.489,1.604-0.834,2.502-1.032c0.897-0.197,1.778-0.298,2.643-0.298
					c0.63,0,1.295,0.048,1.995,0.142c0.7,0.093,1.365,0.232,1.995,0.42c0.63,0.187,1.143,0.426,1.54,0.718
					c0.396,0.292,0.595,0.635,0.595,1.032c0,0.187-0.047,0.402-0.14,0.646c-0.095,0.245-0.234,0.467-0.42,0.665
					c-0.188,0.198-0.42,0.298-0.7,0.298c-0.257,0-0.572-0.111-0.945-0.332c-0.374-0.223-0.869-0.443-1.487-0.666
					c-0.618-0.222-1.43-0.332-2.433-0.332c-0.84,0-1.627,0.116-2.362,0.351c-0.734,0.233-1.317,0.618-1.75,1.153
					c-0.432,0.539-0.646,1.25-0.646,2.137c0,0.84,0.21,1.527,0.63,2.063c0.42,0.537,0.968,0.98,1.645,1.33
					c0.677,0.351,1.424,0.671,2.24,0.964c0.816,0.291,1.633,0.629,2.45,1.014c0.816,0.386,1.569,0.858,2.257,1.419
					c0.688,0.56,1.243,1.288,1.663,2.188s0.63,2.024,0.63,3.378c0,1.68-0.333,3.063-0.998,4.146
					c-0.665,1.086-1.569,1.891-2.713,2.416C272.084,298.018,270.765,298.28,269.272,298.28z"/>
				<path d="M281.382,298.21c-0.537,0-0.98-0.188-1.33-0.562c-0.35-0.371-0.525-0.793-0.525-1.26c0-0.513,0.176-0.949,0.525-1.313
					c0.35-0.361,0.793-0.542,1.33-0.542c0.466,0,0.88,0.181,1.242,0.542c0.36,0.361,0.542,0.8,0.542,1.313
					c0,0.467-0.182,0.889-0.542,1.26C282.263,298.021,281.849,298.21,281.382,298.21z"/>
				<path d="M302.241,298c-0.396,0-0.718-0.1-0.963-0.298c-0.245-0.197-0.368-0.438-0.368-0.718v-23.521
					c0-0.35,0.142-0.612,0.42-0.787c0.28-0.176,0.584-0.263,0.911-0.263h6.021c1.283,0,2.468,0.157,3.553,0.473
					c1.085,0.314,1.947,0.904,2.59,1.769c0.643,0.862,0.963,2.112,0.963,3.745c0,1.47-0.27,2.693-0.806,3.675
					s-1.26,1.669-2.17,2.063c0.723,0.28,1.353,0.659,1.89,1.139c0.537,0.479,0.957,1.097,1.262,1.854
					c0.303,0.76,0.453,1.745,0.453,2.958v0.63c0,1.799-0.303,3.227-0.908,4.287c-0.607,1.063-1.436,1.827-2.485,2.293
					c-1.05,0.469-2.229,0.7-3.535,0.7L302.241,298L302.241,298z M303.852,282.915h4.375c1.446,0,2.509-0.32,3.185-0.963
					c0.678-0.642,1.017-1.685,1.017-3.134c0-0.955-0.182-1.709-0.542-2.256c-0.362-0.549-0.864-0.934-1.506-1.155
					c-0.643-0.222-1.395-0.332-2.259-0.332h-4.27V282.915z M303.852,295.34h4.726c1.423,0,2.525-0.385,3.309-1.154
					c0.78-0.771,1.172-1.982,1.172-3.641v-0.595c0-1.681-0.392-2.864-1.172-3.554c-0.782-0.688-1.886-1.031-3.309-1.031h-4.726
					V295.34z"/>
				<path d="M321.316,298c-0.327,0-0.63-0.087-0.91-0.264c-0.278-0.174-0.42-0.438-0.42-0.786v-23.485
					c0-0.35,0.142-0.611,0.42-0.787c0.28-0.176,0.583-0.263,0.91-0.263h12.46c0.373,0,0.636,0.142,0.788,0.42
					c0.15,0.28,0.227,0.572,0.227,0.875c0,0.351-0.087,0.665-0.263,0.945c-0.175,0.28-0.425,0.42-0.752,0.42h-10.85v8.89h5.459
					c0.327,0,0.578,0.129,0.754,0.387c0.175,0.256,0.262,0.547,0.262,0.875c0,0.278-0.075,0.547-0.228,0.805
					c-0.151,0.257-0.414,0.385-0.788,0.385h-5.459v8.925h10.85c0.327,0,0.577,0.136,0.752,0.403
					c0.176,0.268,0.263,0.589,0.263,0.962c0,0.304-0.075,0.595-0.227,0.875c-0.152,0.28-0.415,0.42-0.788,0.42L321.316,298
					L321.316,298z"/>
				<path d="M344.066,298c-0.373,0-0.713-0.087-1.015-0.264c-0.305-0.174-0.456-0.438-0.456-0.786v-21.806h-5.669
					c-0.305,0-0.549-0.141-0.735-0.42c-0.188-0.281-0.28-0.605-0.28-0.979c0-0.326,0.082-0.63,0.245-0.91
					c0.163-0.278,0.42-0.42,0.771-0.42h14.278c0.352,0,0.606,0.142,0.771,0.42c0.163,0.28,0.244,0.584,0.244,0.91
					c0,0.35-0.081,0.671-0.244,0.962c-0.164,0.292-0.42,0.438-0.771,0.438h-5.67v21.807c0,0.35-0.15,0.611-0.455,0.787
					C344.777,297.913,344.439,298,344.066,298z"/>
				<path d="M361.216,298c-0.373,0-0.712-0.087-1.016-0.264c-0.304-0.174-0.455-0.438-0.455-0.786v-21.806h-5.67
					c-0.304,0-0.549-0.141-0.734-0.42c-0.188-0.281-0.28-0.605-0.28-0.979c0-0.326,0.082-0.63,0.246-0.91
					c0.162-0.278,0.42-0.42,0.77-0.42h14.28c0.35,0,0.606,0.142,0.771,0.42c0.162,0.28,0.244,0.584,0.244,0.91
					c0,0.35-0.082,0.671-0.244,0.962c-0.163,0.292-0.421,0.438-0.771,0.438h-5.671v21.807c0,0.35-0.151,0.611-0.454,0.787
					C361.928,297.913,361.589,298,361.216,298z"/>
				<path d="M373.605,298c-0.327,0-0.63-0.087-0.91-0.264c-0.28-0.174-0.42-0.438-0.42-0.786v-23.485c0-0.35,0.14-0.611,0.42-0.787
					s0.583-0.263,0.91-0.263h12.46c0.373,0,0.636,0.142,0.788,0.42c0.15,0.28,0.228,0.572,0.228,0.875
					c0,0.351-0.088,0.665-0.263,0.945s-0.426,0.42-0.753,0.42h-10.851v8.89h5.461c0.325,0,0.577,0.129,0.752,0.387
					c0.176,0.256,0.263,0.547,0.263,0.875c0,0.278-0.076,0.547-0.228,0.805c-0.152,0.257-0.415,0.385-0.787,0.385h-5.461v8.925
					h10.851c0.327,0,0.578,0.136,0.753,0.403s0.263,0.589,0.263,0.962c0,0.304-0.076,0.595-0.228,0.875
					c-0.152,0.28-0.415,0.42-0.788,0.42L373.605,298L373.605,298z"/>
				<path d="M403.845,298.068c-0.279,0-0.53-0.115-0.752-0.35c-0.224-0.232-0.415-0.501-0.578-0.805l-5.25-10.255h-4.061v10.29
					c0,0.35-0.151,0.611-0.454,0.787c-0.304,0.176-0.643,0.263-1.016,0.263c-0.35,0-0.683-0.087-0.997-0.263
					s-0.474-0.438-0.474-0.787v-23.52c0-0.281,0.1-0.515,0.299-0.701c0.197-0.187,0.448-0.291,0.752-0.314h6.404
					c1.424,0,2.725,0.216,3.902,0.646c1.179,0.433,2.117,1.155,2.817,2.17c0.699,1.017,1.05,2.41,1.05,4.184
					c0,1.424-0.228,2.604-0.683,3.535s-1.079,1.662-1.872,2.188c-0.794,0.525-1.68,0.894-2.66,1.104l5.18,9.835
					c0.047,0.094,0.081,0.181,0.105,0.263c0.021,0.081,0.034,0.157,0.034,0.227c0,0.259-0.087,0.504-0.263,0.735
					c-0.176,0.234-0.396,0.42-0.665,0.562C404.399,298,404.125,298.068,403.845,298.068z M393.204,284.21h4.516
					c1.446,0,2.612-0.351,3.5-1.05c0.887-0.7,1.331-1.878,1.331-3.535c0-1.656-0.444-2.829-1.331-3.518
					c-0.888-0.689-2.054-1.032-3.5-1.032h-4.516V284.21z"/>
				<path d="M417.6,298c-0.352,0-0.684-0.087-0.997-0.264c-0.315-0.174-0.474-0.438-0.474-0.786V273.85
					c0-0.537,0.157-0.91,0.474-1.119c0.313-0.211,0.646-0.315,0.997-0.315c0.373,0,0.694,0.069,0.963,0.21
					c0.268,0.141,0.513,0.345,0.734,0.611c0.222,0.27,0.438,0.613,0.646,1.033l5.53,10.535l5.529-10.535
					c0.232-0.42,0.461-0.765,0.684-1.033c0.221-0.268,0.466-0.473,0.734-0.611c0.268-0.141,0.576-0.21,0.928-0.21
					c0.396,0,0.74,0.104,1.032,0.315c0.291,0.209,0.438,0.582,0.438,1.119v23.101c0,0.35-0.15,0.612-0.455,0.786
					c-0.304,0.177-0.642,0.264-1.015,0.264s-0.712-0.087-1.015-0.264c-0.305-0.174-0.456-0.438-0.456-0.786v-18.375l-5.319,9.938
					c-0.163,0.28-0.339,0.484-0.524,0.612c-0.188,0.129-0.386,0.192-0.596,0.192c-0.164,0-0.345-0.059-0.542-0.176
					c-0.199-0.115-0.38-0.326-0.543-0.629l-5.285-10.08v18.516c0,0.35-0.15,0.611-0.455,0.787
					C418.311,297.913,417.973,298,417.6,298z"/>
				<path d="M441.294,298c-0.351,0-0.684-0.087-0.997-0.264c-0.315-0.174-0.474-0.438-0.474-0.786V273.43
					c0-0.351,0.157-0.606,0.474-0.771c0.313-0.163,0.646-0.245,0.997-0.245c0.374,0,0.712,0.082,1.016,0.245
					c0.303,0.163,0.455,0.42,0.455,0.771v23.521c0,0.35-0.152,0.612-0.455,0.786C442.006,297.913,441.668,298,441.294,298z"/>
				<path d="M447.804,298.068c-0.257,0-0.525-0.063-0.807-0.191c-0.278-0.128-0.519-0.303-0.717-0.523
					c-0.199-0.223-0.297-0.461-0.297-0.719c0-0.187,0.057-0.396,0.174-0.63l6.057-10.815l-5.915-10.744
					c-0.163-0.279-0.245-0.535-0.245-0.771c0-0.28,0.093-0.519,0.28-0.718c0.186-0.197,0.413-0.35,0.682-0.455
					c0.269-0.104,0.555-0.156,0.856-0.156c0.305,0,0.562,0.11,0.771,0.332c0.21,0.223,0.373,0.484,0.49,0.787l4.97,9.311l4.97-9.311
					c0.142-0.303,0.315-0.564,0.525-0.787c0.21-0.222,0.466-0.332,0.771-0.332c0.279,0,0.561,0.053,0.84,0.156
					c0.28,0.105,0.508,0.258,0.683,0.455c0.176,0.199,0.263,0.438,0.263,0.718c0,0.234-0.081,0.49-0.245,0.771l-5.914,10.744
					l6.056,10.815c0.115,0.233,0.175,0.443,0.175,0.63c0,0.258-0.093,0.496-0.28,0.719c-0.187,0.222-0.42,0.396-0.699,0.523
					c-0.279,0.129-0.561,0.191-0.841,0.191c-0.257,0-0.478-0.104-0.664-0.313c-0.188-0.21-0.339-0.432-0.456-0.665l-5.18-9.555
					l-5.145,9.555c-0.117,0.233-0.271,0.455-0.455,0.665C448.316,297.965,448.084,298.068,447.804,298.068z"/>
				<path d="M466.739,298c-0.328,0-0.63-0.087-0.911-0.264c-0.278-0.174-0.42-0.438-0.42-0.786v-23.485
					c0-0.35,0.142-0.611,0.42-0.787c0.281-0.176,0.583-0.263,0.911-0.263h12.459c0.374,0,0.637,0.142,0.788,0.42
					c0.151,0.28,0.229,0.572,0.229,0.875c0,0.351-0.087,0.665-0.264,0.945c-0.175,0.28-0.426,0.42-0.753,0.42h-10.85v8.89h5.46
					c0.327,0,0.577,0.129,0.753,0.387c0.175,0.256,0.262,0.547,0.262,0.875c0,0.278-0.075,0.547-0.228,0.805
					c-0.151,0.257-0.414,0.385-0.787,0.385h-5.46v8.925h10.85c0.327,0,0.578,0.136,0.753,0.403c0.177,0.268,0.264,0.589,0.264,0.962
					c0,0.304-0.076,0.595-0.229,0.875c-0.151,0.28-0.414,0.42-0.788,0.42L466.739,298L466.739,298z"/>
				<path d="M489.489,298.28c-1.494,0-2.801-0.229-3.921-0.683c-1.12-0.455-1.982-0.992-2.59-1.611
					c-0.607-0.617-0.91-1.172-0.91-1.661c0-0.233,0.063-0.474,0.192-0.718c0.129-0.245,0.292-0.455,0.49-0.631
					c0.197-0.175,0.401-0.263,0.612-0.263c0.279,0,0.554,0.142,0.821,0.42c0.269,0.28,0.607,0.613,1.016,0.997
					c0.408,0.387,0.938,0.719,1.594,0.998c0.652,0.28,1.504,0.42,2.555,0.42c0.979,0,1.831-0.156,2.555-0.473
					c0.725-0.314,1.289-0.792,1.698-1.436c0.408-0.642,0.611-1.453,0.611-2.433c0-1.003-0.21-1.819-0.63-2.45
					c-0.42-0.63-0.975-1.154-1.662-1.574c-0.688-0.42-1.437-0.793-2.239-1.121c-0.807-0.325-1.623-0.657-2.45-0.996
					c-0.829-0.338-1.581-0.758-2.258-1.26s-1.227-1.148-1.646-1.942c-0.42-0.793-0.63-1.798-0.63-3.011
					c0-1.282,0.233-2.346,0.7-3.186s1.085-1.505,1.854-1.995c0.771-0.489,1.604-0.834,2.504-1.032
					c0.896-0.197,1.778-0.298,2.643-0.298c0.63,0,1.295,0.048,1.995,0.142c0.7,0.093,1.365,0.232,1.995,0.42
					c0.63,0.187,1.143,0.426,1.54,0.718c0.396,0.292,0.595,0.635,0.595,1.032c0,0.187-0.047,0.402-0.14,0.646
					c-0.095,0.245-0.233,0.467-0.421,0.665s-0.42,0.298-0.699,0.298c-0.258,0-0.572-0.111-0.945-0.332
					c-0.374-0.223-0.869-0.443-1.487-0.666c-0.617-0.222-1.43-0.332-2.433-0.332c-0.84,0-1.627,0.116-2.362,0.351
					c-0.733,0.233-1.317,0.618-1.75,1.153c-0.432,0.539-0.646,1.25-0.646,2.137c0,0.84,0.21,1.527,0.63,2.063
					c0.42,0.537,0.968,0.98,1.646,1.33c0.677,0.351,1.423,0.671,2.239,0.964c0.816,0.291,1.633,0.629,2.45,1.014
					c0.816,0.386,1.569,0.858,2.257,1.419c0.688,0.56,1.243,1.288,1.663,2.188s0.63,2.024,0.63,3.378
					c0,1.68-0.332,3.063-0.997,4.146c-0.665,1.086-1.569,1.891-2.713,2.416C492.301,298.018,490.981,298.28,489.489,298.28z"/>
				<path d="M501.599,298.21c-0.537,0-0.98-0.188-1.33-0.562c-0.35-0.371-0.525-0.793-0.525-1.26c0-0.513,0.177-0.949,0.525-1.313
					c0.35-0.361,0.793-0.542,1.33-0.542c0.466,0,0.881,0.181,1.242,0.542c0.36,0.361,0.542,0.8,0.542,1.313
					c0,0.467-0.182,0.889-0.542,1.26C502.479,298.021,502.064,298.21,501.599,298.21z"/>
			</g>
			<g>
				<path fill="#FFFFFF" d="M346.17,139.64c-1.398,0-2.695-0.24-3.89-0.72c-1.192-0.48-1.791-1.177-1.791-2.092v-44.52
					c0-0.96,0.599-1.669,1.791-2.127c1.193-0.457,2.49-0.686,3.89-0.686c1.396,0,2.547,0.115,3.449,0.343
					c0.902,0.229,1.747,0.675,2.533,1.337c0.786,0.664,1.616,1.681,2.49,3.053l16.86,25.587V92.239c0-0.96,0.597-1.657,1.791-2.092
					c1.192-0.434,2.489-0.652,3.888-0.652c1.455,0,2.766,0.218,3.931,0.652c1.165,0.435,1.748,1.132,1.748,2.092v44.589
					c0,0.916-0.583,1.612-1.748,2.092s-2.476,0.72-3.931,0.72c-1.341,0-2.577-0.206-3.713-0.617
					c-1.137-0.411-2.054-1.143-2.752-2.195l-18.87-27.577v27.577c0,0.916-0.582,1.612-1.747,2.092S347.625,139.64,346.17,139.64z"/>
			</g>
			<g>
				<path fill="#FFFFFF" d="M396.471,139.64c-1.225,0-2.359-0.24-3.407-0.72s-1.573-1.177-1.573-2.092v-44.52
					c0-0.915,0.525-1.612,1.573-2.092s2.184-0.721,3.407-0.721h31.101c1.28,0,2.198,0.412,2.752,1.235s0.829,1.692,0.829,2.607
					c0,1.098-0.305,2.035-0.916,2.813s-1.501,1.166-2.665,1.166h-24.724v13.72h13.279c1.164,0,2.053,0.355,2.664,1.063
					c0.61,0.709,0.918,1.543,0.918,2.503c0,0.778-0.277,1.543-0.83,2.298c-0.556,0.754-1.473,1.132-2.752,1.132h-13.279v13.788
					h24.724c1.164,0,2.054,0.389,2.665,1.167c0.611,0.778,0.916,1.715,0.916,2.813c0,0.915-0.275,1.783-0.829,2.606
					c-0.554,0.823-1.472,1.235-2.752,1.235L396.471,139.64L396.471,139.64z"/>
			</g>
		</g>
		<path fill="#FFFFFF" d="M397.224,139.593c-1.201,0-2.316-0.241-3.346-0.723c-1.03-0.482-1.544-1.181-1.544-2.101V92.08
			c0-0.917,0.514-1.618,1.544-2.1c1.028-0.481,2.145-0.723,3.346-0.723h30.539c1.257,0,2.157,0.413,2.702,1.239
			c0.542,0.826,0.813,1.699,0.813,2.617c0,1.102-0.3,2.043-0.9,2.823c-0.601,0.781-1.474,1.171-2.615,1.171h-24.277v13.772h13.039
			c1.145,0,2.016,0.355,2.616,1.067c0.602,0.712,0.9,1.549,0.9,2.514c0,0.781-0.271,1.549-0.813,2.307
			c-0.545,0.757-1.445,1.136-2.703,1.136h-13.039v13.841h24.277c1.143,0,2.016,0.391,2.615,1.171c0.602,0.781,0.9,1.721,0.9,2.823
			c0,0.919-0.271,1.791-0.813,2.617c-0.545,0.826-1.445,1.239-2.702,1.239L397.224,139.593L397.224,139.593z"/>
	</g>
	<g>
		<path fill="#FFFFFF" d="M307.875,206.525c-0.902,0-1.72-0.178-2.451-0.531c-0.732-0.354-1.101-0.887-1.101-1.594v-44.133h-13.691
			c-0.733,0-1.325-0.285-1.775-0.851c-0.452-0.567-0.676-1.228-0.676-1.984c0-0.661,0.197-1.275,0.592-1.842
			c0.395-0.566,1.015-0.85,1.859-0.85h34.484c0.847,0,1.466,0.284,1.861,0.85c0.393,0.567,0.59,1.181,0.59,1.842
			c0,0.708-0.197,1.358-0.59,1.948c-0.396,0.591-1.016,0.887-1.861,0.887h-13.69V204.4c0,0.707-0.367,1.238-1.101,1.594
			C309.593,206.35,308.775,206.525,307.875,206.525z"/>
		<path fill="#FFFFFF" d="M329.344,206.525c-0.563,0-1.198-0.106-1.901-0.318c-0.706-0.213-1.269-0.508-1.689-0.887
			c-0.424-0.377-0.636-0.803-0.636-1.274c0-0.188,0.028-0.377,0.085-0.565l17.327-47.108c0.226-0.708,0.761-1.228,1.606-1.559
			c0.845-0.33,1.746-0.496,2.705-0.496c1.014,0,1.942,0.177,2.789,0.531c0.845,0.354,1.38,0.862,1.604,1.523l17.243,47.107
			c0.112,0.189,0.169,0.354,0.169,0.496c0,0.474-0.24,0.897-0.718,1.274c-0.479,0.379-1.058,0.687-1.733,0.921
			c-0.676,0.237-1.324,0.354-1.942,0.354c-0.621,0-1.156-0.105-1.606-0.317c-0.451-0.213-0.761-0.556-0.93-1.026l-3.805-10.557
			h-22.229l-3.635,10.557c-0.169,0.473-0.494,0.813-0.974,1.026C330.597,206.419,330.02,206.525,329.344,206.525z M337.373,189.736
			h18.935l-9.467-26.637L337.373,189.736z"/>
		<path fill="#FFFFFF" d="M393.58,206.95c-3.438,0-6.521-0.507-9.255-1.522s-4.901-2.656-6.509-4.924
			c-1.604-2.268-2.409-5.266-2.409-8.996v-21.322c0-3.729,0.805-6.729,2.409-8.996c1.606-2.268,3.774-3.907,6.509-4.923
			c2.732-1.015,5.762-1.523,9.086-1.523c3.721,0,6.944,0.531,9.68,1.594c2.731,1.063,4.873,2.539,6.424,4.429
			c1.549,1.889,2.324,4.107,2.324,6.657c0,1.134-0.312,1.901-0.931,2.304c-0.621,0.4-1.494,0.602-2.62,0.602
			c-0.959,0-1.774-0.152-2.45-0.46c-0.678-0.308-1.044-0.839-1.101-1.595c-0.226-1.651-0.731-3.082-1.521-4.285
			c-0.789-1.204-1.974-2.148-3.55-2.833c-1.578-0.686-3.606-1.028-6.087-1.028c-3.493,0-6.212,0.814-8.155,2.443
			c-1.944,1.631-2.916,4.17-2.916,7.615v21.323c0,3.447,0.972,5.985,2.916,7.615c1.943,1.629,4.662,2.442,8.155,2.442
			s6.228-0.813,8.199-2.442c1.973-1.63,2.958-4.168,2.958-7.615v-7.226H394.68c-0.79,0-1.396-0.26-1.817-0.779
			c-0.423-0.52-0.634-1.086-0.634-1.699s0.211-1.181,0.634-1.701c0.422-0.52,1.027-0.778,1.817-0.778h14.707
			c0.788,0,1.395,0.212,1.816,0.638c0.423,0.426,0.635,0.945,0.635,1.559v9.988c0,3.73-0.804,6.729-2.409,8.996
			c-1.605,2.268-3.79,3.908-6.551,4.924C400.116,206.443,397.018,206.95,393.58,206.95z"/>
		<path fill="#FFFFFF" d="M439.899,206.95c-3.438,0-6.521-0.507-9.255-1.522c-2.734-1.016-4.902-2.656-6.509-4.924
			c-1.605-2.268-2.409-5.266-2.409-8.996v-21.322c0-3.729,0.804-6.729,2.409-8.996c1.605-2.268,3.773-3.907,6.509-4.923
			c2.731-1.015,5.761-1.523,9.086-1.523c3.72,0,6.944,0.531,9.679,1.594c2.732,1.063,4.873,2.539,6.424,4.429
			c1.55,1.889,2.324,4.107,2.324,6.657c0,1.134-0.311,1.901-0.93,2.304c-0.621,0.4-1.494,0.602-2.62,0.602
			c-0.959,0-1.775-0.152-2.451-0.46c-0.677-0.308-1.044-0.839-1.1-1.595c-0.227-1.651-0.732-3.082-1.521-4.285
			c-0.789-1.204-1.973-2.148-3.55-2.833c-1.578-0.686-3.605-1.028-6.086-1.028c-3.494,0-6.212,0.814-8.156,2.443
			c-1.943,1.631-2.916,4.17-2.916,7.615v21.323c0,3.447,0.973,5.985,2.916,7.615c1.944,1.629,4.662,2.442,8.156,2.442
			c3.493,0,6.228-0.813,8.199-2.442c1.972-1.63,2.958-4.168,2.958-7.615v-7.226h-10.059c-0.79,0-1.396-0.26-1.816-0.779
			c-0.423-0.52-0.634-1.086-0.634-1.699s0.211-1.181,0.634-1.701c0.422-0.52,1.027-0.778,1.816-0.778h14.707
			c0.788,0,1.396,0.212,1.817,0.638s0.634,0.945,0.634,1.559v9.988c0,3.73-0.803,6.729-2.409,8.996
			c-1.604,2.268-3.79,3.908-6.551,4.924C446.436,206.443,443.336,206.95,439.899,206.95z"/>
		<path fill="#FFFFFF" d="M471.849,206.525c-0.789,0-1.521-0.178-2.197-0.531c-0.677-0.354-1.015-0.887-1.015-1.594v-47.533
			c0-0.708,0.338-1.24,1.015-1.594c0.676-0.354,1.408-0.531,2.197-0.531h30.091c0.901,0,1.535,0.284,1.902,0.85
			c0.365,0.567,0.549,1.158,0.549,1.771c0,0.708-0.211,1.346-0.634,1.913s-1.028,0.85-1.817,0.85h-26.202v17.994h13.187
			c0.788,0,1.395,0.26,1.816,0.778c0.422,0.52,0.635,1.109,0.635,1.771c0,0.566-0.185,1.11-0.55,1.63
			c-0.366,0.521-1.002,0.778-1.901,0.778h-13.187v18.064h26.202c0.789,0,1.396,0.271,1.817,0.813
			c0.423,0.544,0.634,1.192,0.634,1.948c0,0.613-0.184,1.203-0.549,1.771c-0.367,0.566-1.001,0.851-1.902,0.851H471.849z"/>
		<path fill="#FFFFFF" d="M544.878,206.667c-0.677,0-1.282-0.235-1.817-0.708c-0.536-0.473-1.001-1.016-1.396-1.63l-12.679-20.756
			h-9.805V204.4c0,0.707-0.367,1.238-1.1,1.594c-0.732,0.354-1.551,0.531-2.45,0.531c-0.847,0-1.648-0.178-2.409-0.531
			s-1.143-0.887-1.143-1.594v-47.604c0-0.567,0.239-1.039,0.72-1.417c0.479-0.377,1.084-0.59,1.816-0.638h15.468
			c3.438,0,6.578,0.438,9.426,1.311c2.845,0.875,5.112,2.338,6.804,4.392c1.69,2.056,2.536,4.877,2.536,8.467
			c0,2.881-0.55,5.266-1.648,7.154c-1.099,1.89-2.605,3.365-4.521,4.428c-1.917,1.063-4.059,1.807-6.424,2.23l12.509,19.905
			c0.111,0.188,0.197,0.366,0.254,0.531c0.056,0.166,0.085,0.319,0.085,0.461c0,0.521-0.212,1.016-0.635,1.487
			c-0.422,0.473-0.958,0.851-1.605,1.134C546.216,206.525,545.554,206.667,544.878,206.667z M519.183,178.614h10.903
			c3.492,0,6.311-0.708,8.451-2.125c2.143-1.416,3.213-3.802,3.213-7.154s-1.07-5.726-3.213-7.119
			c-2.142-1.393-4.959-2.09-8.451-2.09h-10.903V178.614z"/>
	</g>
</g>
</svg>
