<?xml version="1.0" encoding="utf-8"?>
<!-- Generator: Adobe Illustrator 16.0.0, SVG Export Plug-In . SVG Version: 6.00 Build 0)  -->
<!DOCTYPE svg PUBLIC "-//W3C//DTD SVG 1.1//EN" "http://www.w3.org/Graphics/SVG/1.1/DTD/svg11.dtd">
<svg version="1.1" id="Layer_1" xmlns="http://www.w3.org/2000/svg" xmlns:xlink="http://www.w3.org/1999/xlink" x="0px" y="0px"
	 width="587px" height="227.167px" viewBox="0 0 587 227.167" enable-background="new 0 0 587 227.167" xml:space="preserve">
<g>
	<g>
		<g>
			<g>
				<g>
					<path fill="#FFFFFF" d="M107.42,9.29c23.45-9.54,50.08-11.01,74.4-3.96c25.25,7.26,47.68,23.72,62.19,45.62
						c12.52,18.62,19.13,41.12,18.77,63.55c-0.1,25.3-9.26,50.42-25.35,69.931c-15.73,19.27-38.02,33.119-62.34,38.449
						c-22.81,5.07-47.23,3.021-68.74-6.21c-27.01-11.33-49.08-33.73-60.1-60.86c-10.59-25.93-11.2-55.97-1.06-82.13
						c1.55,0.97,3.1,1.94,4.72,2.8c1.03,6.34-1.86,12.3-2.8,18.45c-3.31,19.34-1.29,39.65,6.26,57.8
						c10.29,25.29,30.86,46.17,56,56.831c21.78,9.359,46.77,11.02,69.59,4.55c24.73-6.8,46.57-23.2,60.33-44.811
						c10.83-16.8,16.57-36.82,16.36-56.8c0.04-19.9-5.9-39.75-16.75-56.42c-15.5-24.06-41.17-41.38-69.4-46.39
						c-18.85-3.31-38.79-1.83-56.56,5.49c7.96,8.65,16.62,16.63,24.8,25.08c8.63,9.04,17.55,17.79,26.38,26.62
						c4.3,4.37,9.5,8.17,12.18,13.85c3.26,6.41,3.13,13.8,3.06,20.81c-0.5,10.62,0.9,21.3-0.23,31.9
						c-0.45,5.35-5.44,9.59-10.73,9.63c-9.62,0.29-19.26-0.08-28.9,0.08c-7.06,0.01-14.49,0.61-21.05-2.54
						c-6.79-2.73-11.51-8.49-16.56-13.49c-10.51-10.49-20.95-21.06-31.56-31.45c-6.55-7.03-13.29-13.9-20.51-20.25
						c-2.92-2.83-5.98-5.65-7.99-9.22c-2.24-4.5-0.9-10.23,2.83-13.52C59.36,38.03,74.04,23.36,88.68,8.66
						c2.3-2.39,5.43-4.13,8.83-3.97C101.39,4.48,104.56,7.01,107.42,9.29z M146.89,102.97c-4.89,1.42-8.56,6.38-8.25,11.5
						c0.1,6.38,6.43,11.86,12.77,10.94c6.48-0.59,11.47-7.38,9.92-13.76C160.21,105.3,153.05,100.98,146.89,102.97z"/>
				</g>
				<g>
					<path fill="#FFFFFF" d="M300.88,90.09c5-1.09,10.351-0.86,15.14,1.04c8.131,3.09,14.3,10.76,15.561,19.37
						c1.54,9.07-2.34,18.89-9.88,24.22c-8.69,6.58-21.61,6.48-30.21-0.2c-8.12-6.07-11.84-17.32-8.86-27.03
						C284.94,98.93,292.25,92.04,300.88,90.09z M304.85,102.76c-8.16,1.08-12.66,12.11-6.97,18.33c4.76,6.61,15.92,5.26,19.149-2.16
						C321.319,111.14,313.51,100.84,304.85,102.76z"/>
				</g>
			</g>
			<g>
				<path fill="#171A18" d="M112.94,15.18c17.77-7.32,37.71-8.8,56.56-5.49c28.23,5.01,53.9,22.33,69.4,46.39
					c10.85,16.67,16.79,36.52,16.75,56.42c0.21,19.98-5.53,40-16.36,56.8c-13.76,21.61-35.6,38.011-60.33,44.811
					c-22.82,6.47-47.81,4.81-69.59-4.55c-25.14-10.66-45.71-31.541-56-56.831c-7.55-18.15-9.57-38.46-6.26-57.8
					c0.94-6.15,3.83-12.11,2.8-18.45l-0.089-1.06c7.22,6.35,13.959,13.22,20.51,20.25c10.61,10.39,21.05,20.96,31.56,31.45
					c5.05,5,9.77,10.76,16.56,13.49c6.56,3.15,13.99,2.55,21.05,2.54c9.64-0.16,19.28,0.21,28.9-0.08
					c5.29-0.04,10.28-4.28,10.73-9.63c1.13-10.6-0.27-21.28,0.23-31.9c0.07-7.01,0.2-14.4-3.06-20.81
					c-2.68-5.68-7.88-9.48-12.18-13.85c-8.83-8.83-17.75-17.58-26.38-26.62C129.56,31.81,120.9,23.83,112.94,15.18z"/>
				<path fill="#171A18" d="M146.89,102.97c6.16-1.99,13.32,2.33,14.44,8.68c1.55,6.38-3.44,13.17-9.92,13.76
					c-6.34,0.92-12.67-4.56-12.77-10.94C138.33,109.35,142,104.39,146.89,102.97z"/>
			</g>
			<g>
				<path fill="#FFFFFF" d="M346.17,139.64c-1.398,0-2.695-0.24-3.889-0.72c-1.193-0.48-1.791-1.177-1.791-2.092v-44.52
					c0-0.96,0.598-1.669,1.791-2.127c1.193-0.457,2.49-0.686,3.889-0.686c1.396,0,2.547,0.115,3.45,0.343
					c0.902,0.229,1.747,0.675,2.533,1.337c0.786,0.664,1.616,1.681,2.49,3.053l16.86,25.587V92.239c0-0.96,0.597-1.657,1.791-2.092
					c1.193-0.434,2.49-0.652,3.888-0.652c1.455,0,2.766,0.218,3.931,0.652c1.165,0.435,1.748,1.132,1.748,2.092v44.589
					c0,0.916-0.583,1.612-1.748,2.092c-1.165,0.48-2.476,0.72-3.931,0.72c-1.341,0-2.577-0.206-3.713-0.617
					s-2.053-1.143-2.752-2.195l-18.87-27.577v27.577c0,0.916-0.582,1.612-1.747,2.092C348.935,139.4,347.625,139.64,346.17,139.64z"
					/>
			</g>
			<g>
				<path fill="#FFFFFF" d="M396.471,139.64c-1.224,0-2.359-0.24-3.407-0.72c-1.048-0.48-1.573-1.177-1.573-2.092v-44.52
					c0-0.915,0.525-1.612,1.573-2.092c1.048-0.48,2.184-0.721,3.407-0.721h31.101c1.28,0,2.198,0.412,2.752,1.235
					c0.553,0.823,0.829,1.692,0.829,2.607c0,1.098-0.305,2.035-0.916,2.813c-0.612,0.778-1.501,1.166-2.665,1.166h-24.724v13.72
					h13.279c1.164,0,2.053,0.355,2.664,1.063c0.611,0.709,0.918,1.543,0.918,2.503c0,0.778-0.277,1.543-0.83,2.298
					c-0.555,0.754-1.472,1.132-2.752,1.132h-13.279v13.788h24.724c1.164,0,2.053,0.389,2.665,1.167
					c0.611,0.778,0.916,1.715,0.916,2.813c0,0.915-0.276,1.783-0.829,2.606c-0.554,0.823-1.472,1.235-2.752,1.235H396.471z"/>
			</g>
		</g>
		<path fill="#FFFFFF" d="M397.224,139.593c-1.201,0-2.316-0.241-3.346-0.723c-1.03-0.482-1.544-1.181-1.544-2.101V92.08
			c0-0.917,0.514-1.618,1.544-2.1c1.029-0.481,2.145-0.723,3.346-0.723h30.539c1.257,0,2.157,0.413,2.702,1.239
			c0.542,0.826,0.814,1.699,0.814,2.617c0,1.102-0.3,2.043-0.901,2.823c-0.6,0.781-1.473,1.171-2.615,1.171h-24.277v13.772h13.039
			c1.144,0,2.016,0.355,2.616,1.067c0.602,0.712,0.901,1.549,0.901,2.514c0,0.781-0.272,1.549-0.814,2.307
			c-0.545,0.757-1.445,1.136-2.703,1.136h-13.039v13.841h24.277c1.143,0,2.016,0.391,2.615,1.171
			c0.602,0.781,0.901,1.721,0.901,2.823c0,0.919-0.272,1.791-0.814,2.617c-0.545,0.826-1.445,1.239-2.702,1.239H397.224z"/>
	</g>
	<g>
		<path fill="#FFFFFF" d="M307.875,206.525c-0.902,0-1.719-0.177-2.451-0.531s-1.1-0.886-1.1-1.594v-44.133h-13.692
			c-0.733,0-1.325-0.284-1.775-0.85c-0.452-0.567-0.676-1.228-0.676-1.984c0-0.661,0.197-1.275,0.592-1.842
			c0.394-0.566,1.014-0.85,1.859-0.85h34.485c0.846,0,1.465,0.284,1.861,0.85c0.393,0.567,0.59,1.181,0.59,1.842
			c0,0.708-0.197,1.358-0.59,1.948c-0.396,0.591-1.016,0.886-1.861,0.886h-13.691V204.4c0,0.708-0.367,1.239-1.1,1.594
			S308.775,206.525,307.875,206.525z"/>
		<path fill="#FFFFFF" d="M329.344,206.525c-0.563,0-1.198-0.106-1.901-0.318c-0.706-0.213-1.269-0.508-1.69-0.886
			c-0.423-0.378-0.635-0.803-0.635-1.275c0-0.188,0.028-0.377,0.085-0.566l17.327-47.108c0.225-0.708,0.761-1.228,1.606-1.559
			c0.845-0.33,1.746-0.496,2.705-0.496c1.014,0,1.943,0.177,2.789,0.531c0.845,0.354,1.38,0.862,1.605,1.523l17.243,47.108
			c0.112,0.189,0.169,0.354,0.169,0.496c0,0.473-0.24,0.897-0.718,1.274c-0.479,0.379-1.057,0.686-1.733,0.921
			c-0.676,0.237-1.324,0.354-1.943,0.354c-0.621,0-1.156-0.106-1.606-0.318c-0.451-0.213-0.761-0.555-0.93-1.027l-3.804-10.556
			h-22.229l-3.635,10.556c-0.169,0.473-0.494,0.814-0.973,1.027C330.597,206.419,330.02,206.525,329.344,206.525z M337.374,189.736
			h18.934l-9.467-26.636L337.374,189.736z"/>
		<path fill="#FFFFFF" d="M393.581,206.95c-3.438,0-6.522-0.507-9.255-1.522c-2.734-1.016-4.902-2.657-6.509-4.924
			c-1.605-2.267-2.409-5.266-2.409-8.996v-21.323c0-3.729,0.804-6.729,2.409-8.996c1.606-2.267,3.774-3.907,6.509-4.923
			c2.732-1.015,5.761-1.523,9.086-1.523c3.72,0,6.944,0.531,9.679,1.594c2.732,1.063,4.873,2.539,6.424,4.428
			c1.549,1.889,2.324,4.108,2.324,6.658c0,1.134-0.311,1.901-0.93,2.303c-0.621,0.401-1.494,0.602-2.62,0.602
			c-0.959,0-1.775-0.152-2.451-0.46c-0.677-0.307-1.044-0.838-1.1-1.594c-0.226-1.652-0.732-3.082-1.521-4.286
			s-1.973-2.148-3.55-2.833c-1.578-0.685-3.606-1.028-6.086-1.028c-3.494,0-6.212,0.815-8.156,2.444
			c-1.944,1.63-2.916,4.169-2.916,7.615v21.323c0,3.447,0.972,5.985,2.916,7.615c1.944,1.629,4.662,2.443,8.156,2.443
			c3.493,0,6.227-0.814,8.199-2.443c1.972-1.63,2.958-4.168,2.958-7.615v-7.226h-10.058c-0.79,0-1.396-0.26-1.817-0.779
			c-0.423-0.52-0.634-1.086-0.634-1.7c0-0.613,0.211-1.18,0.634-1.7c0.422-0.52,1.027-0.779,1.817-0.779h14.707
			c0.788,0,1.395,0.212,1.817,0.638c0.422,0.425,0.634,0.945,0.634,1.559v9.988c0,3.73-0.803,6.729-2.409,8.996
			c-1.605,2.267-3.79,3.908-6.551,4.924C400.117,206.443,397.018,206.95,393.581,206.95z"/>
		<path fill="#FFFFFF" d="M439.899,206.95c-3.438,0-6.522-0.507-9.255-1.522c-2.734-1.016-4.902-2.657-6.509-4.924
			c-1.605-2.267-2.409-5.266-2.409-8.996v-21.323c0-3.729,0.804-6.729,2.409-8.996c1.606-2.267,3.774-3.907,6.509-4.923
			c2.732-1.015,5.761-1.523,9.086-1.523c3.72,0,6.944,0.531,9.679,1.594c2.732,1.063,4.873,2.539,6.424,4.428
			c1.549,1.889,2.324,4.108,2.324,6.658c0,1.134-0.311,1.901-0.93,2.303c-0.621,0.401-1.494,0.602-2.62,0.602
			c-0.959,0-1.775-0.152-2.451-0.46c-0.677-0.307-1.044-0.838-1.1-1.594c-0.226-1.652-0.732-3.082-1.521-4.286
			s-1.973-2.148-3.55-2.833c-1.578-0.685-3.606-1.028-6.086-1.028c-3.494,0-6.212,0.815-8.156,2.444
			c-1.944,1.63-2.916,4.169-2.916,7.615v21.323c0,3.447,0.972,5.985,2.916,7.615c1.944,1.629,4.662,2.443,8.156,2.443
			c3.493,0,6.227-0.814,8.199-2.443c1.972-1.63,2.958-4.168,2.958-7.615v-7.226h-10.058c-0.79,0-1.396-0.26-1.817-0.779
			c-0.423-0.52-0.634-1.086-0.634-1.7c0-0.613,0.211-1.18,0.634-1.7c0.422-0.52,1.027-0.779,1.817-0.779h14.707
			c0.788,0,1.395,0.212,1.817,0.638c0.422,0.425,0.634,0.945,0.634,1.559v9.988c0,3.73-0.803,6.729-2.409,8.996
			c-1.605,2.267-3.79,3.908-6.551,4.924C446.436,206.443,443.336,206.95,439.899,206.95z"/>
		<path fill="#FFFFFF" d="M471.849,206.525c-0.789,0-1.521-0.177-2.197-0.531c-0.677-0.354-1.015-0.886-1.015-1.594v-47.533
			c0-0.708,0.338-1.24,1.015-1.594c0.676-0.354,1.408-0.531,2.197-0.531h30.091c0.901,0,1.535,0.284,1.902,0.85
			c0.365,0.567,0.549,1.158,0.549,1.771c0,0.708-0.211,1.346-0.634,1.913c-0.423,0.567-1.028,0.85-1.817,0.85h-26.202v17.994h13.186
			c0.788,0,1.395,0.26,1.817,0.779s0.634,1.109,0.634,1.771c0,0.566-0.184,1.11-0.549,1.63c-0.367,0.52-1.002,0.778-1.902,0.778
			h-13.186v18.064h26.202c0.789,0,1.395,0.272,1.817,0.814c0.423,0.544,0.634,1.193,0.634,1.948c0,0.614-0.184,1.204-0.549,1.771
			c-0.367,0.566-1.001,0.85-1.902,0.85H471.849z"/>
		<path fill="#FFFFFF" d="M544.878,206.667c-0.676,0-1.282-0.235-1.817-0.708c-0.536-0.472-1.001-1.016-1.395-1.63l-12.679-20.756
			h-9.805V204.4c0,0.708-0.367,1.239-1.099,1.594c-0.733,0.354-1.551,0.531-2.451,0.531c-0.846,0-1.648-0.177-2.409-0.531
			s-1.142-0.886-1.142-1.594v-47.604c0-0.567,0.239-1.039,0.719-1.417c0.479-0.377,1.084-0.59,1.817-0.638h15.468
			c3.437,0,6.578,0.438,9.425,1.311c2.845,0.875,5.113,2.338,6.804,4.392c1.69,2.055,2.536,4.877,2.536,8.466
			c0,2.881-0.55,5.266-1.648,7.154c-1.099,1.89-2.606,3.365-4.521,4.428c-1.917,1.063-4.058,1.807-6.424,2.231l12.509,19.905
			c0.112,0.189,0.197,0.366,0.254,0.531c0.056,0.166,0.085,0.319,0.085,0.461c0,0.521-0.212,1.016-0.635,1.487
			c-0.422,0.473-0.958,0.851-1.605,1.134C546.216,206.525,545.554,206.667,544.878,206.667z M519.183,178.614h10.903
			c3.493,0,6.311-0.708,8.452-2.125c2.142-1.416,3.212-3.801,3.212-7.154c0-3.353-1.07-5.726-3.212-7.119
			c-2.142-1.393-4.959-2.09-8.452-2.09h-10.903V178.614z"/>
	</g>
</g>
</svg>
