<svg version="1.1" xmlns="http://www.w3.org/2000/svg" xmlns:xlink="http://www.w3.org/1999/xlink" width="71" height="25" viewBox="0 0 71 25">
<g id="Logo-Patreon">
<g id="#dcdcdc">
<path id="Ellipse-1" d="M13.406,9.094 C16.685,9.094 19.344,11.759 19.344,15.047 C19.344,18.335 16.685,21.000 13.406,21.000 C10.127,21.000 7.469,18.335 7.469,15.047 C7.469,11.759 10.127,9.094 13.406,9.094 z" fill="#DCDCDC" />
<path id="Color-Fill-9" d="M5.844,9.096 C5.863,11.082 5.847,13.069 5.851,15.056 C5.846,18.338 5.863,21.622 5.844,24.905 C4.882,24.903 3.920,24.916 2.958,24.900 C2.957,19.635 2.954,14.369 2.960,9.104 C3.921,9.084 4.883,9.097 5.844,9.096 z" fill="#DCDCDC" />
</g>
<g id="#e7e7e7">
<path id="Color-Fill-8" d="M69.668,8.698 C69.670,14.233 69.670,19.767 69.668,25.302 C69.273,25.302 68.877,25.305 68.482,25.301 C68.498,22.219 68.484,19.137 68.489,16.056 C68.486,13.603 68.497,11.152 68.482,8.700 C68.877,8.695 69.273,8.698 69.668,8.698 z" fill="#E7E7E7" />
<path id="Color-Fill-10" d="M53.268,14.133 C53.981,14.025 54.749,14.149 55.352,14.559 C55.960,14.961 56.365,15.633 56.492,16.346 C56.640,17.191 56.415,18.114 55.832,18.753 C54.910,19.794 53.190,19.915 52.078,19.115 C50.930,18.301 50.653,16.576 51.372,15.392 C51.763,14.705 52.492,14.246 53.268,14.133 M52.557,15.805 C52.025,16.515 52.128,17.640 52.820,18.209 C53.399,18.699 54.357,18.627 54.859,18.057 C55.437,17.405 55.444,16.318 54.855,15.670 C54.508,15.277 53.940,15.116 53.434,15.228 C53.085,15.304 52.764,15.512 52.557,15.805 z" fill="#E7E7E7" />
<path id="Color-Fill-11" d="M23.195,14.236 C23.933,14.234 24.670,14.233 25.408,14.236 C25.924,14.233 26.452,14.435 26.799,14.826 C27.443,15.498 27.471,16.651 26.876,17.363 C26.677,17.597 26.428,17.793 26.138,17.900 C25.589,18.124 24.986,18.002 24.411,18.035 C24.411,18.521 24.415,19.006 24.411,19.492 C24.005,19.494 23.600,19.495 23.195,19.489 C23.191,17.738 23.191,15.987 23.195,14.236 M24.410,17.047 C24.720,17.038 25.030,17.057 25.339,17.038 C25.633,17.019 25.886,16.806 25.998,16.541 C26.222,16.061 25.985,15.373 25.440,15.252 C25.099,15.203 24.752,15.238 24.409,15.228 C24.415,15.834 24.413,16.441 24.410,17.047 z" fill="#E7E7E7" />
<path id="Color-Fill-12" d="M30.254,14.238 C30.628,14.233 31.003,14.233 31.377,14.237 C32.015,15.986 32.632,17.743 33.279,19.489 C32.837,19.497 32.395,19.493 31.953,19.494 C31.890,19.281 31.814,19.072 31.753,18.859 C31.129,18.857 30.504,18.854 29.880,18.861 C29.819,19.067 29.743,19.269 29.699,19.479 C29.263,19.505 28.825,19.492 28.388,19.493 C29.000,17.738 29.638,15.992 30.254,14.238 M30.175,17.902 C30.599,17.904 31.023,17.906 31.447,17.902 C31.300,17.367 31.138,16.838 30.985,16.306 C30.933,16.124 30.893,15.938 30.815,15.766 C30.595,16.476 30.391,17.191 30.175,17.902 z" fill="#E7E7E7" />
<path id="Color-Fill-13" d="M37.724,14.235 C37.726,14.586 37.732,14.937 37.722,15.287 C37.324,15.289 36.927,15.288 36.530,15.291 C36.531,16.689 36.528,18.088 36.531,19.487 C36.124,19.500 35.716,19.494 35.309,19.491 C35.323,18.091 35.311,16.692 35.315,15.292 C34.920,15.285 34.525,15.290 34.130,15.288 C34.127,14.937 34.132,14.587 34.129,14.237 C35.327,14.232 36.526,14.235 37.724,14.235 z" fill="#E7E7E7" />
<path id="Color-Fill-14" d="M39.619,14.237 C40.355,14.232 41.091,14.234 41.827,14.236 C42.437,14.222 43.057,14.518 43.399,15.029 C43.822,15.643 43.851,16.506 43.460,17.143 C43.275,17.437 43.008,17.676 42.702,17.838 C43.037,18.394 43.394,18.937 43.738,19.487 C43.270,19.499 42.800,19.497 42.332,19.488 C42.007,19.009 41.716,18.509 41.386,18.033 C41.200,18.035 41.015,18.034 40.829,18.036 C40.833,18.521 40.837,19.006 40.830,19.491 C40.426,19.493 40.021,19.497 39.616,19.489 C39.622,17.738 39.617,15.988 39.619,14.237 M40.828,17.046 C41.140,17.039 41.453,17.058 41.765,17.038 C42.121,17.011 42.415,16.708 42.475,16.363 C42.608,15.893 42.310,15.312 41.807,15.239 C41.482,15.215 41.156,15.233 40.832,15.229 C40.833,15.835 40.837,16.441 40.828,17.046 z" fill="#E7E7E7" />
<path id="Color-Fill-15" d="M48.997,14.234 C49.011,14.561 49.002,14.888 49.001,15.215 C48.338,15.208 47.676,15.209 47.013,15.212 C47.011,15.611 47.008,16.011 47.015,16.410 C47.679,16.413 48.343,16.409 49.008,16.412 C49.002,16.728 49.004,17.044 49.005,17.361 C48.340,17.363 47.675,17.360 47.010,17.362 C47.012,17.748 47.008,18.135 47.013,18.522 C47.678,18.524 48.342,18.519 49.006,18.523 C49.004,18.845 49.001,19.167 49.008,19.489 C47.936,19.499 46.864,19.495 45.792,19.491 C45.800,17.739 45.788,15.987 45.798,14.235 C46.864,14.234 47.931,14.235 48.997,14.234 z" fill="#E7E7E7" />
<path id="Color-Fill-16" d="M59.827,14.239 C60.456,15.376 61.078,16.517 61.720,17.647 C61.724,16.511 61.722,15.374 61.720,14.237 C62.121,14.236 62.523,14.234 62.924,14.234 C62.934,15.986 62.930,17.737 62.926,19.488 C62.502,19.478 62.071,19.526 61.651,19.474 C61.015,18.367 60.412,17.239 59.770,16.136 C59.760,17.253 59.771,18.371 59.766,19.489 C59.361,19.494 58.957,19.497 58.552,19.493 C58.546,17.741 58.546,15.987 58.552,14.234 C58.977,14.236 59.403,14.230 59.827,14.239 z" fill="#E7E7E7" />
</g>
</g>
</svg>
