<svg version="1.1" xmlns="http://www.w3.org/2000/svg" xmlns:xlink="http://www.w3.org/1999/xlink" width="68" height="18" viewBox="0 0 68 18">
<g id="patreon">
<g id="Logo-Patreon">
<g id="#dcdcdc">
<path id="Ellipse-1" d="M17.344,8.047 C17.344,11.335 14.685,14.000 11.406,14.000 C8.127,14.000 5.469,11.335 5.469,8.047 C5.469,4.759 8.127,2.094 11.406,2.094 C14.685,2.094 17.344,4.759 17.344,8.047 z" fill="#DCDCDC" />
<path id="Color-Fill-9" d="M3.851,8.056 C3.846,11.338 3.863,14.622 3.844,17.905 C2.882,17.903 1.920,17.916 0.958,17.900 C0.957,12.635 0.954,7.369 0.960,2.104 C1.921,2.084 2.883,2.097 3.844,2.096 C3.863,4.082 3.847,6.069 3.851,8.056 z" fill="#DCDCDC" />
</g>
<g id="#e7e7e7">
<path id="Color-Fill-8" d="M67.668,18.302 C67.273,18.302 66.877,18.305 66.482,18.301 C66.498,15.219 66.484,12.137 66.489,9.056 C66.486,6.603 66.497,4.152 66.482,1.700 C66.877,1.695 67.273,1.698 67.668,1.698 C67.670,7.233 67.670,12.767 67.668,18.302 z" fill="#E7E7E7" />
<path id="Color-Fill-10" d="M51.268,7.133 C51.981,7.025 52.749,7.149 53.352,7.559 C53.960,7.961 54.365,8.633 54.492,9.346 C54.640,10.191 54.415,11.114 53.832,11.753 C52.910,12.794 51.190,12.915 50.078,12.115 C48.930,11.301 48.653,9.576 49.372,8.392 C49.763,7.705 50.492,7.246 51.268,7.133 M50.820,11.209 C51.399,11.699 52.357,11.627 52.859,11.057 C53.437,10.405 53.444,9.318 52.855,8.670 C52.508,8.277 51.940,8.116 51.434,8.228 C51.085,8.304 50.764,8.512 50.557,8.805 C50.025,9.515 50.128,10.640 50.820,11.209 z" fill="#E7E7E7" />
<path id="Color-Fill-11" d="M21.195,7.236 C21.933,7.234 22.670,7.233 23.408,7.236 C23.924,7.233 24.452,7.435 24.799,7.826 C25.443,8.498 25.471,9.651 24.876,10.363 C24.677,10.597 24.428,10.793 24.138,10.900 C23.589,11.124 22.986,11.002 22.411,11.035 C22.411,11.521 22.415,12.006 22.411,12.492 C22.005,12.494 21.600,12.495 21.195,12.489 C21.191,10.738 21.191,8.987 21.195,7.236 M23.339,10.038 C23.633,10.019 23.886,9.806 23.998,9.541 C24.222,9.061 23.985,8.373 23.440,8.252 C23.099,8.203 22.752,8.238 22.409,8.228 C22.415,8.834 22.413,9.441 22.410,10.047 C22.720,10.038 23.030,10.057 23.339,10.038 z" fill="#E7E7E7" />
<path id="Color-Fill-12" d="M28.254,7.238 C28.628,7.233 29.003,7.233 29.377,7.237 C30.015,8.986 30.632,10.743 31.279,12.489 C30.837,12.497 30.395,12.493 29.953,12.494 C29.890,12.281 29.814,12.072 29.753,11.859 C29.129,11.857 28.504,11.854 27.880,11.861 C27.819,12.067 27.743,12.269 27.699,12.479 C27.263,12.505 26.825,12.492 26.388,12.493 C27.000,10.738 27.638,8.992 28.254,7.238 M29.447,10.902 C29.300,10.367 29.138,9.838 28.985,9.306 C28.933,9.124 28.893,8.938 28.815,8.766 C28.595,9.476 28.391,10.191 28.175,10.902 C28.599,10.904 29.023,10.906 29.447,10.902 z" fill="#E7E7E7" />
<path id="Color-Fill-13" d="M35.722,8.287 C35.324,8.289 34.927,8.288 34.530,8.291 C34.531,9.689 34.528,11.088 34.531,12.487 C34.124,12.500 33.716,12.494 33.309,12.491 C33.323,11.091 33.311,9.692 33.315,8.292 C32.920,8.285 32.525,8.290 32.130,8.288 C32.127,7.937 32.132,7.587 32.129,7.237 C33.327,7.232 34.526,7.235 35.724,7.235 C35.726,7.586 35.732,7.937 35.722,8.287 z" fill="#E7E7E7" />
<path id="Color-Fill-14" d="M37.619,7.237 C38.355,7.232 39.091,7.234 39.827,7.236 C40.437,7.222 41.057,7.518 41.399,8.029 C41.822,8.643 41.851,9.506 41.460,10.143 C41.275,10.437 41.008,10.676 40.702,10.838 C41.037,11.394 41.394,11.937 41.738,12.487 C41.270,12.499 40.800,12.497 40.332,12.488 C40.007,12.009 39.716,11.509 39.386,11.033 C39.200,11.035 39.015,11.034 38.829,11.036 C38.833,11.521 38.837,12.006 38.830,12.491 C38.426,12.493 38.021,12.497 37.616,12.489 C37.622,10.738 37.617,8.988 37.619,7.237 M39.765,10.038 C40.121,10.011 40.415,9.708 40.475,9.363 C40.608,8.893 40.310,8.312 39.807,8.239 C39.482,8.215 39.156,8.233 38.832,8.229 C38.833,8.835 38.837,9.441 38.828,10.046 C39.140,10.039 39.453,10.058 39.765,10.038 z" fill="#E7E7E7" />
<path id="Color-Fill-15" d="M47.001,8.215 C46.338,8.208 45.676,8.209 45.013,8.212 C45.011,8.611 45.008,9.011 45.015,9.410 C45.679,9.413 46.343,9.409 47.008,9.412 C47.002,9.728 47.004,10.044 47.005,10.361 C46.340,10.363 45.675,10.360 45.010,10.362 C45.012,10.748 45.008,11.135 45.013,11.522 C45.678,11.524 46.342,11.519 47.006,11.523 C47.004,11.845 47.001,12.167 47.008,12.489 C45.936,12.499 44.864,12.495 43.792,12.491 C43.800,10.739 43.788,8.987 43.798,7.235 C44.864,7.234 45.931,7.235 46.997,7.234 C47.011,7.561 47.002,7.888 47.001,8.215 z" fill="#E7E7E7" />
<path id="Color-Fill-16" d="M59.720,10.647 C59.724,9.511 59.722,8.374 59.720,7.237 C60.121,7.236 60.523,7.234 60.924,7.234 C60.934,8.986 60.930,10.737 60.926,12.488 C60.502,12.478 60.071,12.526 59.651,12.474 C59.015,11.367 58.412,10.239 57.770,9.136 C57.760,10.253 57.771,11.371 57.766,12.489 C57.361,12.494 56.957,12.497 56.552,12.493 C56.546,10.741 56.546,8.987 56.552,7.234 C56.977,7.236 57.403,7.230 57.827,7.239 C58.456,8.376 59.078,9.517 59.720,10.647 z" fill="#E7E7E7" />
</g>
</g>
</g>
</svg>
