<svg version="1.1" xmlns="http://www.w3.org/2000/svg" xmlns:xlink="http://www.w3.org/1999/xlink" width="73" height="26" viewBox="0 0 73 26">
<g id="paypal_backup">
<g id="Logo-PayPal">
<g id="#d3d2d2">
<path id="Color-Fill-6" d="M9.012,8.751 C10.088,8.755 11.200,8.870 12.177,9.373 C12.965,9.772 13.582,10.525 13.819,11.400 C13.977,11.971 13.978,12.578 13.897,13.163 C13.728,14.618 13.234,16.093 12.232,17.160 C11.411,18.057 10.267,18.576 9.103,18.776 C8.018,18.985 6.911,18.905 5.816,18.924 C5.425,18.914 5.127,19.293 5.076,19.669 C4.813,21.449 4.548,23.230 4.258,25.006 C3.142,25.006 2.026,25.007 0.910,25.006 C0.650,25.033 0.402,24.787 0.419,24.517 C0.430,24.333 0.470,24.152 0.494,23.970 C1.224,19.153 1.959,14.337 2.689,9.520 C2.716,9.254 2.842,8.991 3.072,8.858 C3.256,8.721 3.494,8.767 3.706,8.751 C5.474,8.749 7.243,8.749 9.012,8.751 z" fill="#D2D2D2" />
<path id="Color-Fill-7" d="M23.234,12.854 C24.251,12.816 25.272,12.850 26.292,12.838 C27.069,12.854 27.857,12.778 28.623,12.958 C29.325,13.103 30.022,13.452 30.438,14.077 C30.870,14.743 30.941,15.592 30.834,16.369 C30.704,17.455 30.337,18.562 29.568,19.345 C28.870,20.050 27.903,20.401 26.944,20.477 C26.290,20.549 25.632,20.499 24.976,20.518 C24.725,20.517 24.495,20.722 24.461,20.981 C24.304,21.940 24.166,22.903 24.016,23.864 C23.984,24.152 23.717,24.364 23.443,24.352 C22.832,24.354 22.221,24.349 21.611,24.355 C21.459,24.374 21.308,24.279 21.247,24.136 C21.207,23.885 21.285,23.636 21.319,23.390 C21.824,20.048 22.333,16.707 22.840,13.365 C22.857,13.133 23.030,12.935 23.234,12.854 M24.887,18.213 C25.452,18.202 26.022,18.238 26.580,18.135 C26.890,18.077 27.196,17.946 27.419,17.708 C27.701,17.415 27.816,16.998 27.864,16.597 C27.899,16.241 27.892,15.834 27.643,15.556 C27.331,15.207 26.840,15.160 26.409,15.143 C26.112,15.146 25.811,15.116 25.516,15.158 C25.321,15.226 25.291,15.467 25.262,15.649 C25.141,16.504 24.988,17.355 24.887,18.213 z" fill="#D2D2D2" />
<path id="Color-Fill-8" d="M32.805,16.906 C33.668,16.461 34.675,16.395 35.613,16.580 C35.969,16.654 36.323,16.785 36.607,17.026 C36.768,17.154 36.868,17.342 37.002,17.497 C37.031,17.307 37.041,17.111 37.088,16.925 C37.118,16.797 37.221,16.673 37.357,16.679 C37.965,16.666 38.574,16.679 39.183,16.673 C39.294,16.681 39.423,16.655 39.519,16.728 C39.650,16.810 39.659,16.994 39.635,17.135 C39.300,19.367 38.956,21.598 38.619,23.831 C38.593,24.125 38.329,24.364 38.043,24.351 C37.489,24.353 36.935,24.348 36.382,24.354 C36.209,24.364 36.009,24.234 36.017,24.039 C36.018,23.824 36.072,23.612 36.099,23.400 C35.439,24.119 34.487,24.520 33.533,24.533 C32.838,24.540 32.107,24.417 31.532,23.989 C30.794,23.447 30.376,22.529 30.298,21.611 C30.123,19.717 31.128,17.731 32.805,16.906 M32.883,20.853 C32.883,21.249 33.000,21.663 33.274,21.949 C33.582,22.299 34.060,22.426 34.503,22.423 C35.274,22.441 36.041,21.991 36.404,21.283 C36.661,20.784 36.772,20.172 36.593,19.625 C36.482,19.238 36.189,18.914 35.833,18.754 C35.481,18.578 35.073,18.554 34.692,18.619 C34.296,18.699 33.906,18.866 33.611,19.159 C33.143,19.579 32.895,20.220 32.883,20.853 z" fill="#D2D2D2" />
<path id="Color-Fill-9" d="M42.833,16.675 C43.064,16.664 43.279,16.838 43.340,17.067 C43.728,18.362 44.080,19.669 44.474,20.962 C45.346,19.620 46.223,18.283 47.098,16.943 C47.203,16.788 47.369,16.656 47.562,16.675 C48.224,16.678 48.888,16.666 49.551,16.680 C49.771,16.682 49.888,16.964 49.802,17.156 C49.723,17.319 49.610,17.460 49.509,17.608 C47.492,20.638 45.469,23.663 43.452,26.692 C43.347,26.853 43.204,27.029 43.000,27.029 C42.468,27.041 41.936,27.029 41.404,27.034 C41.156,27.026 40.856,27.098 40.687,26.854 C40.688,26.727 40.658,26.584 40.740,26.477 C41.378,25.546 42.013,24.611 42.650,23.678 C42.708,23.612 42.714,23.523 42.681,23.442 C42.031,21.475 41.390,19.503 40.740,17.536 C40.690,17.382 40.633,17.230 40.600,17.073 C40.554,16.885 40.700,16.671 40.892,16.678 C41.539,16.669 42.186,16.675 42.833,16.675 z" fill="#D2D2D2" />
</g>
<g id="#e0e0e0">
<path id="Color-Fill-10" d="M51.516,12.958 C51.644,12.816 51.842,12.846 52.010,12.839 C53.380,12.840 54.750,12.836 56.120,12.842 C56.908,12.842 57.710,13.043 58.369,13.505 C58.931,13.902 59.253,14.590 59.322,15.280 C59.403,16.150 59.248,17.030 58.962,17.847 C58.712,18.537 58.298,19.176 57.723,19.620 C57.017,20.223 56.086,20.424 55.198,20.513 C54.611,20.531 54.023,20.513 53.436,20.523 C53.193,20.525 52.960,20.724 52.928,20.976 C52.767,21.976 52.628,22.980 52.470,23.981 C52.454,24.218 52.232,24.372 52.015,24.359 C51.367,24.360 50.718,24.364 50.070,24.357 C49.914,24.364 49.801,24.242 49.698,24.139 C49.695,23.865 49.749,23.596 49.791,23.328 C50.277,20.143 50.764,16.959 51.242,13.772 C51.295,13.493 51.272,13.147 51.516,12.958 M54.920,18.151 C55.331,18.085 55.769,17.930 56.013,17.556 C56.307,17.091 56.385,16.509 56.317,15.965 C56.233,15.648 55.999,15.372 55.693,15.271 C55.187,15.095 54.644,15.157 54.121,15.150 C53.941,15.137 53.775,15.274 53.766,15.463 C53.637,16.379 53.466,17.289 53.358,18.208 C53.879,18.220 54.402,18.215 54.920,18.151 z" fill="#E7E7E7" />
<path id="Color-Fill-11" d="M72.304,12.849 C72.549,12.895 72.559,13.193 72.518,13.397 C71.988,16.873 71.465,20.350 70.932,23.825 C70.895,24.123 70.623,24.396 70.323,24.363 C69.739,24.362 69.155,24.363 68.571,24.361 C68.441,24.233 68.371,24.051 68.414,23.865 C68.949,20.295 69.493,16.727 70.027,13.156 C70.058,12.989 70.192,12.812 70.373,12.838 C71.016,12.846 71.661,12.826 72.304,12.849 z" fill="#E7E7E7" />
<path id="Color-Fill-12" d="M13.894,13.352 C14.052,13.517 14.259,13.619 14.425,13.775 C14.968,14.254 15.270,14.986 15.321,15.715 C15.404,16.579 15.263,17.452 15.019,18.278 C14.785,19.055 14.417,19.800 13.869,20.391 C13.348,20.950 12.692,21.370 11.982,21.618 C11.245,21.857 10.468,21.971 9.696,21.953 C9.398,21.962 9.051,21.894 8.809,22.119 C8.635,22.255 8.579,22.484 8.547,22.695 C8.349,23.918 8.170,25.144 7.989,26.369 C7.949,26.578 7.880,26.823 7.671,26.913 C7.507,27.012 7.317,27.040 7.130,27.030 C6.216,27.021 5.301,27.038 4.388,27.023 C4.139,27.029 3.993,26.754 4.035,26.524 C4.103,26.018 4.191,25.514 4.258,25.006 C4.548,23.230 4.813,21.449 5.076,19.669 C5.127,19.293 5.425,18.914 5.816,18.924 C6.911,18.905 8.018,18.985 9.103,18.776 C10.267,18.576 11.411,18.057 12.232,17.160 C13.234,16.093 13.728,14.618 13.897,13.163 C13.896,13.210 13.894,13.305 13.894,13.352 z" fill="#E7E7E7" />
<path id="Color-Fill-13" d="M61.833,16.672 C62.435,16.467 63.078,16.465 63.705,16.512 C64.163,16.558 64.629,16.681 65.005,16.968 C65.175,17.094 65.296,17.275 65.471,17.396 C65.519,17.154 65.496,16.843 65.722,16.690 C66.468,16.662 67.217,16.675 67.964,16.685 C68.065,16.807 68.158,16.951 68.119,17.121 C67.758,19.374 67.434,21.634 67.081,23.888 C67.045,24.176 66.770,24.368 66.500,24.358 C65.986,24.362 65.471,24.356 64.957,24.360 C64.815,24.362 64.644,24.350 64.561,24.213 C64.394,23.987 64.562,23.701 64.547,23.446 C64.275,23.655 64.039,23.920 63.724,24.065 C63.233,24.360 62.668,24.494 62.107,24.532 C61.402,24.558 60.660,24.450 60.062,24.037 C59.355,23.551 58.930,22.713 58.794,21.860 C58.595,20.363 59.088,18.756 60.162,17.717 C60.618,17.224 61.213,16.889 61.833,16.672 M61.349,20.913 C61.366,21.424 61.609,21.956 62.058,22.204 C62.548,22.478 63.149,22.476 63.673,22.309 C64.595,22.023 65.220,21.007 65.140,20.024 C65.100,19.677 64.988,19.318 64.735,19.074 C64.339,18.638 63.703,18.521 63.153,18.624 C62.606,18.725 62.094,19.040 61.779,19.518 C61.491,19.917 61.359,20.418 61.349,20.913 z" fill="#E7E7E7" />
</g>
</g>
</g>
</svg>
