<svg version="1.1" xmlns="http://www.w3.org/2000/svg" xmlns:xlink="http://www.w3.org/1999/xlink" width="114" height="46" viewBox="0 0 114 46">
<g id="Logo-PayPal">
<g id="#d3d2d2">
<path id="Color-Fill-6" d="M5.787,18.230 C8.549,18.228 11.311,18.227 14.074,18.230 C15.754,18.237 17.490,18.409 19.016,19.166 C20.246,19.767 21.211,20.900 21.581,22.218 C21.827,23.077 21.829,23.991 21.702,24.871 C21.439,27.061 20.667,29.280 19.102,30.887 C17.820,32.236 16.033,33.017 14.215,33.318 C12.522,33.633 10.793,33.512 9.083,33.541 C8.472,33.526 8.006,34.096 7.927,34.662 C7.516,37.342 7.103,40.022 6.650,42.695 C4.907,42.695 3.164,42.696 1.421,42.695 C1.015,42.735 0.627,42.365 0.655,41.959 C0.671,41.682 0.734,41.410 0.772,41.136 C1.912,33.886 3.060,26.637 4.199,19.388 C4.241,18.988 4.438,18.592 4.798,18.391 C5.085,18.186 5.456,18.254 5.787,18.230 z" fill="#D2D2D2" />
<path id="Color-Fill-7" d="M36.283,24.406 C37.871,24.349 39.466,24.399 41.058,24.382 C42.272,24.406 43.503,24.292 44.699,24.562 C45.795,24.780 46.884,25.306 47.534,26.246 C48.208,27.249 48.319,28.527 48.151,29.696 C47.949,31.331 47.375,32.997 46.175,34.174 C45.085,35.236 43.575,35.764 42.077,35.878 C41.056,35.987 40.028,35.911 39.004,35.940 C38.611,35.938 38.252,36.247 38.200,36.637 C37.954,38.081 37.738,39.530 37.504,40.976 C37.455,41.409 37.038,41.728 36.610,41.710 C35.656,41.714 34.702,41.706 33.748,41.715 C33.511,41.744 33.275,41.601 33.180,41.385 C33.117,41.007 33.240,40.633 33.292,40.262 C34.081,35.233 34.876,30.204 35.668,25.175 C35.694,24.825 35.964,24.527 36.283,24.406 M39.451,28.612 C39.262,29.899 39.022,31.180 38.865,32.471 C39.747,32.454 40.637,32.508 41.509,32.353 C41.992,32.266 42.471,32.069 42.818,31.711 C43.259,31.270 43.439,30.642 43.513,30.039 C43.569,29.503 43.558,28.891 43.168,28.472 C42.681,27.947 41.915,27.876 41.241,27.851 C40.777,27.855 40.308,27.810 39.847,27.873 C39.543,27.976 39.496,28.338 39.451,28.612 z" fill="#D2D2D2" />
<path id="Color-Fill-8" d="M51.229,30.504 C52.578,29.834 54.150,29.735 55.615,30.013 C56.171,30.124 56.723,30.322 57.167,30.684 C57.419,30.877 57.575,31.160 57.784,31.394 C57.829,31.107 57.845,30.813 57.919,30.532 C57.965,30.340 58.126,30.154 58.338,30.163 C59.288,30.143 60.239,30.163 61.190,30.153 C61.364,30.165 61.564,30.127 61.715,30.236 C61.919,30.360 61.933,30.636 61.896,30.848 C61.372,34.208 60.835,37.566 60.309,40.926 C60.269,41.369 59.856,41.728 59.410,41.709 C58.545,41.712 57.680,41.705 56.815,41.713 C56.546,41.729 56.234,41.533 56.245,41.240 C56.247,40.915 56.331,40.597 56.374,40.277 C55.343,41.359 53.856,41.963 52.366,41.983 C51.281,41.993 50.140,41.808 49.241,41.164 C48.089,40.349 47.436,38.967 47.314,37.585 C47.042,34.734 48.611,31.745 51.229,30.504 M52.488,33.895 C51.758,34.527 51.370,35.491 51.352,36.445 C51.351,37.040 51.534,37.664 51.962,38.094 C52.443,38.621 53.190,38.812 53.882,38.807 C55.086,38.834 56.283,38.157 56.850,37.092 C57.252,36.340 57.424,35.420 57.146,34.596 C56.972,34.013 56.515,33.526 55.958,33.285 C55.408,33.021 54.772,32.985 54.177,33.082 C53.558,33.203 52.949,33.454 52.488,33.895 z" fill="#D2D2D2" />
<path id="Color-Fill-9" d="M63.859,30.161 C64.869,30.148 65.880,30.156 66.890,30.156 C67.251,30.140 67.586,30.402 67.681,30.746 C68.287,32.695 68.838,34.662 69.453,36.609 C70.814,34.589 72.184,32.577 73.550,30.560 C73.715,30.327 73.973,30.128 74.275,30.156 C75.309,30.161 76.346,30.143 77.381,30.164 C77.725,30.167 77.907,30.592 77.773,30.880 C77.649,31.125 77.473,31.338 77.315,31.561 C74.166,36.120 71.006,40.673 67.857,45.232 C67.692,45.474 67.469,45.739 67.150,45.739 C66.320,45.758 65.489,45.739 64.659,45.747 C64.271,45.735 63.802,45.843 63.539,45.476 C63.540,45.285 63.493,45.070 63.622,44.908 C64.618,43.507 65.610,42.100 66.604,40.696 C66.695,40.596 66.704,40.462 66.653,40.341 C65.638,37.380 64.637,34.412 63.622,31.452 C63.543,31.220 63.454,30.992 63.403,30.755 C63.331,30.473 63.559,30.150 63.859,30.161 z" fill="#D2D2D2" />
</g>
<g id="#e0e0e0">
<path id="Color-Fill-10" d="M80.450,24.562 C80.650,24.349 80.958,24.394 81.221,24.383 C83.361,24.385 85.500,24.378 87.639,24.387 C88.870,24.388 90.123,24.690 91.151,25.385 C92.030,25.983 92.532,27.019 92.640,28.057 C92.767,29.366 92.525,30.690 92.078,31.920 C91.688,32.959 91.041,33.921 90.142,34.588 C89.040,35.496 87.587,35.799 86.199,35.932 C85.283,35.960 84.364,35.932 83.448,35.948 C83.069,35.950 82.704,36.250 82.655,36.629 C82.403,38.135 82.186,39.646 81.939,41.152 C81.915,41.508 81.567,41.740 81.229,41.721 C80.217,41.723 79.204,41.729 78.192,41.718 C77.948,41.728 77.771,41.545 77.610,41.390 C77.606,40.978 77.691,40.573 77.756,40.169 C78.514,35.376 79.275,30.584 80.021,25.788 C80.104,25.368 80.068,24.847 80.450,24.562 M83.326,32.464 C84.140,32.481 84.956,32.474 85.765,32.378 C86.408,32.279 87.091,32.045 87.472,31.483 C87.931,30.783 88.053,29.906 87.947,29.088 C87.816,28.610 87.451,28.196 86.973,28.044 C86.183,27.779 85.335,27.871 84.517,27.861 C84.236,27.842 83.978,28.048 83.964,28.332 C83.762,29.711 83.495,31.081 83.326,32.464 z" fill="#E7E7E7" />
<path id="Color-Fill-11" d="M109.898,24.382 C110.902,24.393 111.909,24.363 112.913,24.398 C113.296,24.468 113.311,24.916 113.248,25.223 C112.419,30.454 111.603,35.687 110.770,40.917 C110.713,41.365 110.288,41.777 109.820,41.727 C108.907,41.726 107.995,41.727 107.083,41.724 C106.881,41.531 106.771,41.257 106.838,40.978 C107.674,35.604 108.524,30.234 109.358,24.860 C109.405,24.609 109.615,24.342 109.898,24.382 z" fill="#E7E7E7" />
<path id="Color-Fill-12" d="M21.702,24.871 C21.701,24.942 21.698,25.084 21.697,25.155 C21.944,25.403 22.267,25.557 22.526,25.792 C23.374,26.513 23.846,27.614 23.926,28.712 C24.056,30.012 23.835,31.325 23.454,32.569 C23.089,33.738 22.514,34.860 21.658,35.749 C20.845,36.590 19.820,37.222 18.711,37.595 C17.560,37.956 16.348,38.127 15.141,38.100 C14.676,38.113 14.135,38.011 13.757,38.350 C13.485,38.554 13.397,38.899 13.347,39.217 C13.038,41.057 12.759,42.902 12.476,44.746 C12.413,45.060 12.306,45.430 11.979,45.564 C11.723,45.714 11.426,45.756 11.134,45.741 C9.707,45.728 8.278,45.753 6.852,45.730 C6.464,45.740 6.235,45.326 6.301,44.980 C6.408,44.217 6.545,43.459 6.650,42.695 C7.103,40.022 7.516,37.342 7.927,34.662 C8.006,34.096 8.472,33.526 9.083,33.541 C10.793,33.512 12.522,33.633 14.215,33.318 C16.033,33.017 17.820,32.236 19.102,30.887 C20.667,29.280 21.439,27.061 21.702,24.871 z" fill="#E7E7E7" />
<path id="Color-Fill-13" d="M96.561,30.152 C97.502,29.843 98.506,29.840 99.484,29.911 C100.200,29.981 100.927,30.166 101.514,30.598 C101.780,30.787 101.969,31.060 102.242,31.242 C102.318,30.878 102.281,30.409 102.635,30.179 C103.800,30.137 104.969,30.156 106.136,30.172 C106.293,30.355 106.439,30.572 106.377,30.828 C105.814,34.219 105.308,37.620 104.756,41.012 C104.700,41.446 104.271,41.735 103.850,41.720 C103.046,41.725 102.242,41.717 101.439,41.723 C101.218,41.725 100.951,41.707 100.821,41.501 C100.560,41.161 100.823,40.730 100.800,40.347 C100.374,40.662 100.006,41.060 99.514,41.279 C98.748,41.723 97.865,41.924 96.989,41.981 C95.888,42.020 94.729,41.858 93.796,41.236 C92.691,40.505 92.027,39.243 91.815,37.960 C91.505,35.707 92.275,33.289 93.952,31.724 C94.664,30.982 95.593,30.478 96.561,30.152 M96.477,34.435 C96.027,35.036 95.821,35.790 95.806,36.534 C95.832,37.304 96.212,38.104 96.913,38.477 C97.678,38.890 98.617,38.887 99.434,38.636 C100.875,38.205 101.850,36.676 101.726,35.196 C101.663,34.674 101.488,34.134 101.093,33.767 C100.475,33.110 99.481,32.935 98.622,33.090 C97.768,33.241 96.969,33.716 96.477,34.435 z" fill="#E7E7E7" />
</g>
</g>
</svg>
