<svg version="1.1" xmlns="http://www.w3.org/2000/svg" xmlns:xlink="http://www.w3.org/1999/xlink" width="73" height="18" viewBox="0 0 73 18">
<g id="paypal">
<g id="paypal">
<g id="paypal_backup">
<g id="Logo-PayPal">
<g id="#d3d2d2">
<path id="Color-Fill-6" d="M13.819,3.400 C13.977,3.971 13.978,4.578 13.897,5.163 C13.728,6.618 13.234,8.093 12.232,9.160 C11.411,10.057 10.267,10.576 9.103,10.776 C8.018,10.985 6.911,10.905 5.816,10.924 C5.425,10.914 5.127,11.293 5.076,11.669 C4.813,13.449 4.548,15.230 4.258,17.006 C3.142,17.006 2.026,17.007 0.910,17.006 C0.650,17.033 0.402,16.787 0.419,16.517 C0.430,16.333 0.470,16.152 0.494,15.970 C1.224,11.153 1.959,6.337 2.689,1.520 C2.716,1.254 2.842,0.991 3.072,0.858 C3.256,0.721 3.494,0.767 3.706,0.751 C5.474,0.749 7.243,0.749 9.012,0.751 C10.088,0.755 11.200,0.870 12.177,1.373 C12.965,1.772 13.582,2.525 13.819,3.400 z" fill="#D2D2D2" />
<path id="Color-Fill-7" d="M21.234,4.854 C22.251,4.816 23.272,4.850 24.292,4.838 C25.069,4.854 25.857,4.778 26.623,4.958 C27.325,5.103 28.022,5.452 28.438,6.077 C28.870,6.743 28.941,7.592 28.834,8.369 C28.704,9.455 28.337,10.562 27.568,11.345 C26.870,12.050 25.903,12.401 24.944,12.477 C24.290,12.549 23.632,12.499 22.976,12.518 C22.725,12.517 22.495,12.722 22.461,12.981 C22.304,13.940 22.166,14.903 22.016,15.864 C21.984,16.152 21.717,16.364 21.443,16.352 C20.832,16.354 20.221,16.349 19.611,16.355 C19.459,16.374 19.308,16.279 19.247,16.136 C19.207,15.885 19.285,15.636 19.319,15.390 C19.824,12.048 20.333,8.707 20.840,5.365 C20.857,5.133 21.030,4.935 21.234,4.854 M25.419,9.708 C25.701,9.415 25.816,8.998 25.864,8.597 C25.899,8.241 25.892,7.834 25.643,7.556 C25.331,7.207 24.840,7.160 24.409,7.143 C24.112,7.146 23.811,7.116 23.516,7.158 C23.321,7.226 23.291,7.467 23.262,7.649 C23.141,8.504 22.988,9.355 22.887,10.213 C23.452,10.202 24.022,10.238 24.580,10.135 C24.890,10.077 25.196,9.946 25.419,9.708 z" fill="#D2D2D2" />
<path id="Color-Fill-8" d="M30.805,8.906 C31.668,8.461 32.675,8.395 33.613,8.580 C33.969,8.654 34.323,8.785 34.607,9.026 C34.768,9.154 34.868,9.342 35.002,9.497 C35.031,9.307 35.041,9.111 35.088,8.925 C35.118,8.797 35.221,8.673 35.357,8.679 C35.965,8.666 36.574,8.679 37.183,8.673 C37.294,8.681 37.423,8.655 37.519,8.728 C37.650,8.810 37.659,8.994 37.635,9.135 C37.300,11.367 36.956,13.598 36.619,15.831 C36.593,16.125 36.329,16.364 36.043,16.351 C35.489,16.353 34.935,16.348 34.382,16.354 C34.209,16.364 34.009,16.234 34.017,16.039 C34.018,15.824 34.072,15.612 34.099,15.400 C33.439,16.119 32.487,16.520 31.533,16.533 C30.838,16.540 30.107,16.417 29.532,15.989 C28.794,15.447 28.376,14.529 28.298,13.611 C28.123,11.717 29.128,9.731 30.805,8.906 M32.503,14.423 C33.274,14.441 34.041,13.991 34.404,13.283 C34.661,12.784 34.772,12.172 34.593,11.625 C34.482,11.238 34.189,10.914 33.833,10.754 C33.481,10.578 33.073,10.554 32.692,10.619 C32.296,10.699 31.906,10.866 31.611,11.159 C31.143,11.579 30.895,12.220 30.883,12.853 C30.883,13.249 31.000,13.663 31.274,13.949 C31.582,14.299 32.060,14.426 32.503,14.423 z" fill="#D2D2D2" />
<path id="Color-Fill-9" d="M42.474,12.962 C43.346,11.620 44.223,10.283 45.098,8.943 C45.203,8.788 45.369,8.656 45.562,8.675 C46.224,8.678 46.888,8.666 47.551,8.680 C47.771,8.682 47.888,8.964 47.802,9.156 C47.723,9.319 47.610,9.460 47.509,9.608 C45.492,12.638 43.469,15.663 41.452,18.692 C41.347,18.853 41.204,19.029 41.000,19.029 C40.468,19.041 39.936,19.029 39.404,19.034 C39.156,19.026 38.856,19.098 38.687,18.854 C38.688,18.727 38.658,18.584 38.740,18.477 C39.378,17.546 40.013,16.611 40.650,15.678 C40.708,15.612 40.714,15.523 40.681,15.442 C40.031,13.475 39.390,11.503 38.740,9.536 C38.690,9.382 38.633,9.230 38.600,9.073 C38.554,8.885 38.700,8.671 38.892,8.678 C39.539,8.669 40.186,8.675 40.833,8.675 C41.064,8.664 41.279,8.838 41.340,9.067 C41.728,10.362 42.080,11.669 42.474,12.962 z" fill="#D2D2D2" />
</g>
<g id="#e0e0e0">
<path id="Color-Fill-10" d="M49.516,4.958 C49.644,4.816 49.842,4.846 50.010,4.839 C51.380,4.840 52.750,4.836 54.120,4.842 C54.908,4.842 55.710,5.043 56.369,5.505 C56.931,5.902 57.253,6.590 57.322,7.280 C57.403,8.150 57.248,9.030 56.962,9.847 C56.712,10.537 56.298,11.176 55.723,11.620 C55.017,12.223 54.086,12.424 53.198,12.513 C52.611,12.531 52.023,12.513 51.436,12.523 C51.193,12.525 50.960,12.724 50.928,12.976 C50.767,13.976 50.628,14.980 50.470,15.981 C50.454,16.218 50.232,16.372 50.015,16.359 C49.367,16.360 48.718,16.364 48.070,16.357 C47.914,16.364 47.801,16.242 47.698,16.139 C47.695,15.865 47.749,15.596 47.791,15.328 C48.277,12.143 48.764,8.959 49.242,5.772 C49.295,5.493 49.272,5.147 49.516,4.958 M54.317,7.965 C54.233,7.648 53.999,7.372 53.693,7.271 C53.187,7.095 52.644,7.157 52.121,7.150 C51.941,7.137 51.775,7.274 51.766,7.463 C51.637,8.379 51.466,9.289 51.358,10.208 C51.879,10.220 52.402,10.215 52.920,10.151 C53.331,10.085 53.769,9.930 54.013,9.556 C54.307,9.091 54.385,8.509 54.317,7.965 z" fill="#E7E7E7" />
<path id="Color-Fill-11" d="M68.932,15.825 C68.895,16.123 68.623,16.396 68.323,16.363 C67.739,16.362 67.155,16.363 66.571,16.361 C66.441,16.233 66.371,16.051 66.414,15.865 C66.949,12.295 67.493,8.727 68.027,5.156 C68.058,4.989 68.192,4.812 68.373,4.838 C69.016,4.846 69.661,4.826 70.304,4.849 C70.549,4.895 70.559,5.193 70.518,5.397 C69.988,8.873 69.465,12.350 68.932,15.825 z" fill="#E7E7E7" />
<path id="Color-Fill-12" d="M15.321,7.715 C15.404,8.579 15.263,9.452 15.019,10.278 C14.785,11.055 14.417,11.800 13.869,12.391 C13.348,12.950 12.692,13.370 11.982,13.618 C11.245,13.857 10.468,13.971 9.696,13.953 C9.398,13.962 9.051,13.894 8.809,14.119 C8.635,14.255 8.579,14.484 8.547,14.695 C8.349,15.918 8.170,17.144 7.989,18.369 C7.949,18.578 7.880,18.823 7.671,18.913 C7.507,19.012 7.317,19.040 7.130,19.030 C6.216,19.021 5.301,19.038 4.388,19.023 C4.139,19.029 3.993,18.754 4.035,18.524 C4.103,18.018 4.191,17.514 4.258,17.006 C4.548,15.230 4.813,13.449 5.076,11.669 C5.127,11.293 5.425,10.914 5.816,10.924 C6.911,10.905 8.018,10.985 9.103,10.776 C10.267,10.576 11.411,10.057 12.232,9.160 C13.234,8.093 13.728,6.618 13.897,5.163 C13.896,5.210 13.894,5.305 13.894,5.352 C14.052,5.517 14.259,5.619 14.425,5.775 C14.968,6.254 15.270,6.986 15.321,7.715 z" fill="#E7E7E7" />
<path id="Color-Fill-13" d="M59.833,8.672 C60.435,8.467 61.078,8.465 61.705,8.512 C62.163,8.558 62.629,8.681 63.005,8.968 C63.175,9.094 63.296,9.275 63.471,9.396 C63.519,9.154 63.496,8.843 63.722,8.690 C64.468,8.662 65.217,8.675 65.964,8.685 C66.065,8.807 66.158,8.951 66.119,9.121 C65.758,11.374 65.434,13.634 65.081,15.888 C65.045,16.176 64.770,16.368 64.500,16.358 C63.986,16.362 63.471,16.356 62.957,16.360 C62.815,16.362 62.644,16.350 62.561,16.213 C62.394,15.987 62.562,15.701 62.547,15.446 C62.275,15.655 62.039,15.920 61.724,16.065 C61.233,16.360 60.668,16.494 60.107,16.532 C59.402,16.558 58.660,16.450 58.062,16.037 C57.355,15.551 56.930,14.713 56.794,13.860 C56.595,12.363 57.088,10.756 58.162,9.717 C58.618,9.224 59.213,8.889 59.833,8.672 M61.673,14.309 C62.595,14.023 63.220,13.007 63.140,12.024 C63.100,11.677 62.988,11.318 62.735,11.074 C62.339,10.638 61.703,10.521 61.153,10.624 C60.606,10.725 60.094,11.040 59.779,11.518 C59.491,11.917 59.359,12.418 59.349,12.913 C59.366,13.424 59.609,13.956 60.058,14.204 C60.548,14.478 61.149,14.476 61.673,14.309 z" fill="#E7E7E7" />
</g>
</g>
</g>
</g>
</g>
</svg>
