<svg version="1.1" xmlns="http://www.w3.org/2000/svg" xmlns:xlink="http://www.w3.org/1999/xlink" width="48" height="48" viewBox="0 0 48 48">
<g id="shazam">
<path id="Color-Fill-1" d="M0.120,24.120 C0.120,37.320 10.920,48.120 24.120,48.120 C24.120,48.120 24.120,48.120 24.120,48.120 C37.320,48.120 48.120,37.320 48.120,24.120 C48.120,24.120 48.120,24.120 48.120,24.120 C48.120,10.920 37.320,0.120 24.120,0.120 C24.120,0.120 24.120,0.120 24.120,0.120 C10.800,0.120 0.120,10.800 0.120,24.120 " fill="#2979FF" />
<path id="Color-Fill-2" d="M11.520,30.480 C7.320,26.280 7.320,19.440 11.520,15.240 C18.720,8.040 18.720,8.040 18.720,8.040 C19.680,7.080 21.120,7.080 22.080,8.040 C23.040,9.000 23.040,10.440 22.080,11.400 C14.880,18.600 14.880,18.600 14.880,18.600 C12.600,20.880 12.600,24.720 14.880,27.120 C15.960,28.200 17.520,28.920 19.080,28.920 C20.640,28.920 22.200,28.320 23.280,27.120 C27.000,23.520 27.000,23.520 27.000,23.520 C27.960,22.560 29.520,22.680 30.360,23.520 C31.320,24.480 31.200,26.040 30.360,26.880 C26.760,30.480 26.760,30.480 26.760,30.480 C24.840,32.520 22.080,33.600 19.200,33.600 C16.320,33.600 13.560,32.520 11.520,30.480 z" fill="#FFFFFF" />
<path id="Color-Fill-3" d="M25.920,39.960 C24.960,39.000 24.960,37.560 25.920,36.600 C33.120,29.400 33.120,29.400 33.120,29.400 C35.400,27.000 35.400,23.280 33.120,20.880 C31.920,19.800 30.480,19.200 28.800,19.200 C27.240,19.200 25.680,19.800 24.600,21.000 C20.880,24.600 20.880,24.600 20.880,24.600 C19.920,25.560 18.360,25.440 17.520,24.600 C16.560,23.640 16.680,22.080 17.520,21.240 C21.240,17.640 21.240,17.640 21.240,17.640 C23.280,15.600 25.920,14.520 28.800,14.520 C31.680,14.520 34.440,15.600 36.480,17.640 C40.680,21.840 40.680,28.680 36.480,32.880 C29.280,40.080 29.280,40.080 29.280,40.080 C28.800,40.440 28.200,40.680 27.600,40.680 C27.000,40.680 26.400,40.440 25.920,39.960 z" fill="#FFFFFF" />
</g>
</svg>
